SplineFontDB: 3.2
FontName: Indus-Brahmi-Input-Font
FullName: Indus-Brahmi-Input-Font
FamilyName: Indus
Weight: Regular
Copyright: Copyright (c) 2025, Ram G Athreya
UComments: "2025-2-12: Created with FontForge (http://fontforge.org)"
Version: 001.000
ItalicAngle: 0
UnderlinePosition: -100
UnderlineWidth: 50
Ascent: 800
Descent: 200
InvalidEm: 0
LayerCount: 2
Layer: 0 0 "Back" 1
Layer: 1 0 "Fore" 0
XUID: [1021 226 -701567772 9511488]
StyleMap: 0x0000
FSType: 0
OS2Version: 0
OS2_WeightWidthSlopeOnly: 0
OS2_UseTypoMetrics: 1
CreationTime: 1739403220
ModificationTime: 1741224504
PfmFamily: 17
TTFWeight: 400
TTFWidth: 5
LineGap: 90
VLineGap: 90
OS2TypoAscent: 0
OS2TypoAOffset: 1
OS2TypoDescent: 0
OS2TypoDOffset: 1
OS2TypoLinegap: 90
OS2WinAscent: 0
OS2WinAOffset: 1
OS2WinDescent: 0
OS2WinDOffset: 1
HheadAscent: 0
HheadAOffset: 1
HheadDescent: 0
HheadDOffset: 1
OS2Vendor: 'PfEd'
Lookup: 4 0 1 "'dlig' Discretionary Ligatures lookup 0" { "i dlig"  } ['dlig' ('DFLT' <'dflt' > 'dev2' <'dflt' > 'latn' <'dflt' > ) ]
MarkAttachClasses: 1
DEI: 91125
LangName: 1033
Encoding: UnicodeBmp
Compacted: 1
UnicodeInterp: none
NameList: AGL For New Fonts
DisplaySize: -48
AntiAlias: 1
FitToEm: 0
WinInfo: 0 19 14
BeginPrivate: 0
EndPrivate
BeginChars: 65578 135

StartChar: uni0902
Encoding: 2306 2306 0
Width: 770
Flags: HW
LayerCount: 2
Fore
SplineSet
62 748 m 0
 74 756 81.6666666667 760 85 760 c 0
 95 760 104.166666667 753.166666667 112.5 739.5 c 128
 120.833333333 725.833333333 126 709.333333333 128 690 c 0
 134.666666667 632 143.166666667 570.5 153.5 505.5 c 128
 163.833333333 440.5 172.666666667 395.333333333 180 370 c 0
 181.333333333 363.333333333 185.833333333 346.166666667 193.5 318.5 c 128
 201.166666667 290.833333333 206.666666667 271 210 259 c 0
 225.333333333 202.333333333 249 137.333333333 281 64 c 128
 313 -9.33333333333 336.666666667 -53.3333333333 352 -68 c 0
 368.666666667 -83.3333333333 382.166666667 -89.8333333333 392.5 -87.5 c 128
 402.833333333 -85.1666666667 418.666666667 -71.6666666667 440 -47 c 0
 467.333333333 -15 497.333333333 45.6666666667 530 135 c 128
 562.666666667 224.333333333 590 319.666666667 612 421 c 128
 634 522.333333333 645 605.333333333 645 670 c 0
 645 699.333333333 646.166666667 718.833333333 648.5 728.5 c 128
 650.833333333 738.166666667 656 745.333333333 664 750 c 0
 684 760.666666667 697.5 760.5 704.5 749.5 c 128
 711.5 738.5 715 712 715 670 c 0
 715 617.333333333 711.666666667 582 705 564 c 0
 699 545.333333333 689.333333333 497.333333333 676 420 c 0
 660 330 635.666666667 236.833333333 603 140.5 c 128
 570.333333333 44.1666666667 539.333333333 -26.3333333333 510 -71 c 0
 493.333333333 -96.3333333333 472.666666667 -118 448 -136 c 128
 423.333333333 -154 402.333333333 -163 385 -163 c 0
 361 -163 336.666666667 -150.833333333 312 -126.5 c 128
 287.333333333 -102.166666667 266 -69.3333333333 248 -28 c 0
 162 171.333333333 102.666666667 372.333333333 70 575 c 0
 58 650.333333333 51.6666666667 696.333333333 51 713 c 128
 50.3333333333 729.666666667 54 741.333333333 62 748 c 0
EndSplineSet
LCarets2: 2 0 0
EndChar

StartChar: uni0905
Encoding: 2309 2309 1
Width: 512
Flags: W
VStem: 45 2<459.188 473.719> 202 75<235 337.625> 215 61<270.231 519.628 595 757.613>
LayerCount: 2
Fore
SplineSet
222 763 m 0xa0
 225.333333333 767.666666667 235.333333333 770 252 770 c 0
 263.333333333 770 270 766 272 758 c 0
 274 750 275 725 275 683 c 2
 276 595 l 1xa0
 357 554 l 2
 401.666666667 531.333333333 430.333333333 513.833333333 443 501.5 c 0
 455.666666667 489.166666667 457.666666667 476 449 462 c 0
 439.666666667 447.333333333 428.666666667 441.5 416 444.5 c 0
 403.333333333 447.5 381.333333333 460.666666667 350 484 c 0
 309.333333333 514.666666667 285.333333333 530 278 530 c 0
 270 530 267.666666667 481 271 383 c 2
 277 235 l 1
 339 125 l 2
 423 -23.6666666667 465 -114 465 -146 c 0
 465 -155.333333333 463.333333333 -161.666666667 460 -165 c 0
 456.666666667 -168.333333333 450.333333333 -170 441 -170 c 0
 431 -170 419.833333333 -161 407.5 -143 c 0
 395.166666667 -125 371.666666667 -83.3333333333 337 -18 c 0
 283.666666667 83.3333333333 253.666666667 135.333333333 247 138 c 0
 241 140 232.333333333 123.333333333 221 88 c 0
 207.666666667 42 188 -12 162 -74 c 0
 136 -136 119.333333333 -169.333333333 112 -174 c 0
 101.333333333 -180.666666667 90.8333333333 -181 80.5 -175 c 0
 70.1666666667 -169 65 -159.333333333 65 -146 c 0
 65 -130 88 -69.3333333333 134 36 c 2
 202 195 l 1xc0
 210 358 l 2
 214 466 213 520 207 520 c 0
 200.333333333 520 176.666666667 506.333333333 136 479 c 0
 82.6666666667 443 53 436.333333333 47 459 c 0
 45.6666666667 463 45 468 45 474 c 0
 45 488.666666667 53.5 502.666666667 70.5 516 c 0
 87.5 529.333333333 116.666666667 545.333333333 158 564 c 2
 215 589 l 1
 215 673 l 2
 215 729.666666667 217.333333333 759.666666667 222 763 c 0xa0
EndSplineSet
Validated: 33
EndChar

StartChar: uni0906
Encoding: 2310 2310 2
Width: 917
Flags: W
VStem: 210 60<235 509.964 619 747.609> 617 65<238 504.778> 626 59<589.666 746.988>
LayerCount: 2
Fore
SplineSet
222 748 m 0xc0
 230 756 239.333333333 759.333333333 250 758 c 0
 260 755.333333333 266.666666667 726 270 670 c 2
 275 585 l 1
 365 536 l 1
 455 488 l 1
 538 531 l 2
 583.333333333 555.666666667 610.666666667 575 620 589 c 0
 629.333333333 603 631.333333333 629.666666667 626 669 c 0xa0
 622.666666667 695.666666667 624.666666667 716.333333333 632 731 c 0
 639.333333333 745.666666667 650.666666667 751.333333333 666 748 c 0
 674.666666667 746.666666667 680 741.333333333 682 732 c 0xc0
 684 722.666666667 685 700.333333333 685 665 c 2
 685 586 l 1
 770 540 l 2
 805.333333333 520.666666667 828.333333333 506.5 839 497.5 c 0
 849.666666667 488.5 855 479 855 469 c 0
 855 442.333333333 839.333333333 434.333333333 808 445 c 0
 791.333333333 451 771.666666667 462.333333333 749 479 c 0
 714.333333333 506.333333333 693 520 685 520 c 0xa0
 678.333333333 520 676 473 678 379 c 2
 682 238 l 1
 776 72 l 2
 799.333333333 30.6666666667 817.666666667 -3.33333333333 831 -30 c 0
 844.333333333 -56.6666666667 854.166666667 -79 860.5 -97 c 0
 866.833333333 -115 869.5 -128.166666667 868.5 -136.5 c 0
 867.5 -144.833333333 863.333333333 -150.333333333 856 -153 c 0
 844.666666667 -157.666666667 830.5 -148.166666667 813.5 -124.5 c 0
 796.5 -100.833333333 770.333333333 -55 735 13 c 0
 690.333333333 97.6666666667 663.666666667 140 655 140 c 0
 646.333333333 140 639.666666667 131 635 113 c 0
 631.666666667 99 616.833333333 56.8333333333 590.5 -13.5 c 0
 564.166666667 -83.8333333333 547.666666667 -126 541 -140 c 0
 535.666666667 -150.666666667 525 -155.666666667 509 -155 c 0
 493 -154.333333333 484 -148.666666667 482 -138 c 0
 480 -127.333333333 502 -67.3333333333 548 42 c 2
 617 205 l 1
 623 352 l 2
 626.333333333 450 625.666666667 501 621 505 c 0
 614.333333333 507.666666667 588.666666667 494.333333333 544 465 c 0
 498.666666667 435 469 420 455 420 c 0
 443 420 410.333333333 436.666666667 357 470 c 0
 305.666666667 503.333333333 276.666666667 520 270 520 c 0
 264 520 262.666666667 472.666666667 266 378 c 2
 272 235 l 1
 323 150 l 2
 436.333333333 -40.6666666667 471.666666667 -140 429 -148 c 0
 423.666666667 -149.333333333 413.666666667 -138.833333333 399 -116.5 c 0
 384.333333333 -94.1666666667 363.333333333 -57.3333333333 336 -6 c 0
 285.333333333 90 257 140.333333333 251 145 c 0
 245 148.333333333 238.5 144.666666667 231.5 134 c 0
 224.5 123.333333333 217.666666667 106 211 82 c 0
 203.666666667 54.6666666667 186.666666667 8 160 -58 c 0
 133.333333333 -124.666666667 111.666666667 -158.666666667 95 -160 c 0
 87 -160.666666667 78.6666666667 -155.666666667 70 -145 c 0
 60.6666666667 -134.333333333 60.6666666667 -120 70 -102 c 0
 84 -71.3333333333 109 -14 145 70 c 2
 208 216 l 1
 211 363 l 2
 213.666666667 461 210.666666667 510 202 510 c 0
 192.666666667 510 170.666666667 498 136 474 c 0
 75.3333333333 434 45 432.666666667 45 470 c 0
 45 480.666666667 50.1666666667 490.166666667 60.5 498.5 c 0
 70.8333333333 506.833333333 93.3333333333 520 128 538 c 2
 210 581 l 1
 210 658 l 2
 210 710 214 740 222 748 c 0xc0
EndSplineSet
Validated: 33
EndChar

StartChar: uni0907
Encoding: 2311 2311 3
Width: 538
Flags: HW
LayerCount: 2
Fore
SplineSet
249 758 m 0
 265 774 278.333333333 772.333333333 289 753 c 0
 295.666666667 739.666666667 298.333333333 721.333333333 297 698 c 0
 297 694 297 694 297 687 c 0
 296.333333333 675 295.833333333 666.666666667 295.5 662 c 128
 295.166666667 657.333333333 296 652 298 646 c 128
 300 640 301.666666667 636.5 303 635.5 c 128
 304.333333333 634.5 308.833333333 633.166666667 316.5 631.5 c 128
 324.166666667 629.833333333 331.166666667 629.166666667 337.5 629.5 c 128
 343.833333333 629.833333333 354.666666667 630.333333333 370 631 c 0
 376.666666667 631.666666667 381.666666667 632 385 632 c 2
 472 635 l 1
 472 610 l 2
 472 597.333333333 468.333333333 589.833333333 461 587.5 c 128
 453.666666667 585.166666667 428.666666667 583.333333333 386 582 c 2
 386 582 386 582 385 582 c 0
 343.666666667 580.666666667 318.5 578.666666667 309.5 576 c 128
 300.5 573.333333333 294.333333333 566.333333333 291 555 c 0
 289 545 287.5 537.166666667 286.5 531.5 c 128
 285.5 525.833333333 285.833333333 520.5 287.5 515.5 c 128
 289.166666667 510.5 291.666666667 506.833333333 295 504.5 c 128
 298.333333333 502.166666667 304.333333333 500.166666667 313 498.5 c 128
 321.666666667 496.833333333 331 495.833333333 341 495.5 c 128
 351 495.166666667 364.666666667 495 382 495 c 0
 426.666666667 495 452.833333333 494 460.5 492 c 128
 468.166666667 490 472 482.666666667 472 470 c 0
 472 458 468 450.666666667 460 448 c 128
 452 445.333333333 426 442.666666667 382 440 c 0
 337.333333333 437.333333333 311.166666667 434.666666667 303.5 432 c 128
 295.833333333 429.333333333 291 421.333333333 289 408 c 0
 289 407 289 407 289 404 c 0
 287 390.666666667 290 382.833333333 298 380.5 c 128
 306 378.166666667 334.333333333 376.666666667 383 376 c 0
 389 376 389 376 392 376 c 0
 429.333333333 375.333333333 452.166666667 373.833333333 460.5 371.5 c 128
 468.833333333 369.166666667 473.666666667 363 475 353 c 0
 477 344.333333333 476 338.166666667 472 334.5 c 128
 468 330.833333333 459.666666667 327.666666667 447 325 c 0
 425.666666667 320.333333333 400.333333333 320.333333333 371 325 c 0
 341 329.666666667 319.5 329.5 306.5 324.5 c 128
 293.5 319.5 287 309 287 293 c 0
 287 280.333333333 290.5 273 297.5 271 c 128
 304.5 269 328.666666667 268.666666667 370 270 c 0
 374 270 374 270 381 270 c 0
 429 271.333333333 457 271 465 269 c 128
 473 267 477 259.666666667 477 247 c 0
 477 246 477 246 477 246 c 2
 477 230 471.5 220.333333333 460.5 217 c 128
 449.5 213.666666667 421.666666667 213.666666667 377 217 c 0
 335.666666667 220.333333333 308.166666667 218.5 294.5 211.5 c 128
 280.833333333 204.5 275.666666667 190 279 168 c 0
 281 157.333333333 286.5 150.666666667 295.5 148 c 128
 304.5 145.333333333 331.666666667 142.666666667 377 140 c 0
 378 140 378 140 379 140 c 0
 425 137.333333333 452 134.833333333 460 132.5 c 128
 468 130.166666667 472 122.666666667 472 110 c 128
 472 97.3333333333 468.166666667 89.8333333333 460.5 87.5 c 128
 452.833333333 85.1666666667 426.333333333 83.3333333333 381 82 c 2
 380 82 l 1
 287 79 l 1
 287 45 l 2
 287 23 291.333333333 9 300 3 c 0
 308 -2.33333333333 338.666666667 -5 392 -5 c 0
 432 -5 455.333333333 -6 462 -8 c 128
 468.666666667 -10 472 -17.3333333333 472 -30 c 128
 472 -42.6666666667 468.333333333 -50.1666666667 461 -52.5 c 128
 453.666666667 -54.8333333333 428.666666667 -56.6666666667 386 -58 c 2
 386 -58 386 -58 385 -58 c 2
 297 -61 l 1
 297 -111 l 2
 297 -144.333333333 292 -162.666666667 282 -166 c 0
 269.333333333 -171.333333333 258.666666667 -168 250 -156 c 128
 241.333333333 -144 237 -126.666666667 237 -104 c 2
 237 -60 l 1
 153 -60 l 2
 109.666666667 -60 82.1666666667 -57 70.5 -51 c 128
 58.8333333333 -45 56.6666666667 -32.6666666667 64 -14 c 0
 66 -8 72.3333333333 -4 83 -2 c 128
 93.6666666667 0 113 0.666666666667 141 0 c 0
 149 0 149 0 163 0 c 0
 206.333333333 -1.33333333333 231.5 -0.666666666667 238.5 2 c 128
 245.5 4.66666666667 248 14.3333333333 246 31 c 0
 246 33.6666666667 245.666666667 35.6666666667 245 37 c 2
 242 75 l 1
 155 78 l 2
 110.333333333 79.3333333333 82.3333333333 83 71 89 c 128
 59.6666666667 95 57.3333333333 107.333333333 64 126 c 0
 66.6666666667 133.333333333 73.1666666667 137.666666667 83.5 139 c 128
 93.8333333333 140.333333333 115 139.666666667 147 137 c 0
 188.333333333 133.666666667 215.333333333 134.5 228 139.5 c 128
 240.666666667 144.5 247 156.666666667 247 176 c 0
 247 193.333333333 240.166666667 205 226.5 211 c 128
 212.833333333 217 186 219.333333333 146 218 c 2
 72 215 l 1
 69 244 l 1
 65 272 l 1
 154 269 l 2
 197.333333333 267 223 266.833333333 231 268.5 c 128
 239 270.166666667 243.666666667 277 245 289 c 0
 247.666666667 306.333333333 242.666666667 317.333333333 230 322 c 128
 217.333333333 326.666666667 191 327.333333333 151 324 c 0
 119 320.666666667 98.5 319.833333333 89.5 321.5 c 128
 80.5 323.166666667 73.3333333333 328.666666667 68 338 c 0
 64.6666666667 346 63.1666666667 352.5 63.5 357.5 c 128
 63.8333333333 362.5 68 366.833333333 76 370.5 c 128
 84 374.166666667 94.6666666667 376.833333333 108 378.5 c 128
 121.333333333 380.166666667 139.333333333 381.333333333 162 382 c 0
 201.333333333 383.333333333 224.5 385.333333333 231.5 388 c 128
 238.5 390.666666667 242 398 242 410 c 128
 242 422 238.333333333 429.333333333 231 432 c 128
 223.666666667 434.666666667 200 436.666666667 160 438 c 0
 92.6666666667 440 59.3333333333 450 60 468 c 0
 60 473.333333333 62.6666666667 479.333333333 68 486 c 256
 73.3333333333 492.666666667 82.1666666667 496.666666667 94.5 498 c 128
 106.833333333 499.333333333 129 499.333333333 161 498 c 2
 242 495 l 1
 242 535 l 1
 242 575 l 1
 160 575 l 2
 118 575 89.5 577.833333333 74.5 583.5 c 128
 59.5 589.166666667 54.6666666667 599.333333333 60 614 c 0
 62.6666666667 620.666666667 70 625 82 627 c 128
 94 629 117.333333333 630 152 630 c 2
 237 630 l 1
 237 688 l 2
 237 726.666666667 241 750 249 758 c 0
EndSplineSet
EndChar

StartChar: uni0908
Encoding: 2312 2312 4
Width: 990
Flags: HW
LayerCount: 2
Fore
SplineSet
724 758 m 4
 740 774 753.333007812 772.333007812 764 753 c 4
 770.666992188 739.666992188 773.333007812 721.333007812 772 698 c 4
 772 694 772 694 772 687 c 4
 771.333007812 675 770.833007812 666.666992188 770.5 662 c 132
 770.166992188 657.333007812 771 652 773 646 c 132
 775 640 776.666992188 636.5 778 635.5 c 132
 779.333007812 634.5 783.833007812 633.166992188 791.5 631.5 c 132
 799.166992188 629.833007812 806.166992188 629.166992188 812.5 629.5 c 132
 818.833007812 629.833007812 829.666992188 630.333007812 845 631 c 4
 851.666992188 631.666992188 856.666992188 632 860 632 c 6
 947 635 l 5
 947 610 l 6
 947 597.333007812 943.333007812 589.833007812 936 587.5 c 132
 928.666992188 585.166992188 903.666992188 583.333007812 861 582 c 6
 861 582 861 582 860 582 c 4
 818.666992188 580.666992188 793.5 578.666992188 784.5 576 c 132
 775.5 573.333007812 769.333007812 566.333007812 766 555 c 4
 764 545 762.5 537.166992188 761.5 531.5 c 132
 760.5 525.833007812 760.833007812 520.5 762.5 515.5 c 132
 764.166992188 510.5 766.666992188 506.833007812 770 504.5 c 132
 773.333007812 502.166992188 779.333007812 500.166992188 788 498.5 c 132
 796.666992188 496.833007812 806 495.833007812 816 495.5 c 132
 826 495.166992188 839.666992188 495 857 495 c 4
 901.666992188 495 927.833007812 494 935.5 492 c 132
 943.166992188 490 947 482.666992188 947 470 c 4
 947 458 943 450.666992188 935 448 c 132
 927 445.333007812 901 442.666992188 857 440 c 4
 812.333007812 437.333007812 786.166992188 434.666992188 778.5 432 c 132
 770.833007812 429.333007812 766 421.333007812 764 408 c 4
 764 407 764 407 764 404 c 4
 762 390.666992188 765 382.833007812 773 380.5 c 132
 781 378.166992188 809.333007812 376.666992188 858 376 c 4
 864 376 864 376 867 376 c 4
 904.333007812 375.333007812 927.166992188 373.833007812 935.5 371.5 c 132
 943.833007812 369.166992188 948.666992188 363 950 353 c 4
 952 344.333007812 951 338.166992188 947 334.5 c 132
 943 330.833007812 934.666992188 327.666992188 922 325 c 4
 900.666992188 320.333007812 875.333007812 320.333007812 846 325 c 4
 816 329.666992188 794.5 329.5 781.5 324.5 c 132
 768.5 319.5 762 309 762 293 c 4
 762 280.333007812 765.5 273 772.5 271 c 132
 779.5 269 803.666992188 268.666992188 845 270 c 4
 849 270 849 270 856 270 c 4
 904 271.333007812 932 271 940 269 c 132
 948 267 952 259.666992188 952 247 c 4
 952 246 952 246 952 246 c 6
 952 230 946.5 220.333007812 935.5 217 c 132
 924.5 213.666992188 896.666992188 213.666992188 852 217 c 4
 810.666992188 220.333007812 783.166992188 218.5 769.5 211.5 c 132
 755.833007812 204.5 750.666992188 190 754 168 c 4
 756 157.333007812 761.5 150.666992188 770.5 148 c 132
 779.5 145.333007812 806.666992188 142.666992188 852 140 c 4
 853 140 853 140 854 140 c 4
 900 137.333007812 927 134.833007812 935 132.5 c 132
 943 130.166992188 947 122.666992188 947 110 c 132
 947 97.3330078125 943.166992188 89.8330078125 935.5 87.5 c 132
 927.833007812 85.1669921875 901.333007812 83.3330078125 856 82 c 6
 855 82 l 5
 762 79 l 5
 762 45 l 6
 762 23 766.333007812 9 775 3 c 4
 783 -2.3330078125 813.666992188 -5 867 -5 c 4
 907 -5 930.333007812 -6 937 -8 c 132
 943.666992188 -10 947 -17.3330078125 947 -30 c 132
 947 -42.6669921875 943.333007812 -50.1669921875 936 -52.5 c 132
 928.666992188 -54.8330078125 903.666992188 -56.6669921875 861 -58 c 6
 861 -58 861 -58 860 -58 c 6
 772 -61 l 5
 772 -111 l 6
 772 -144.333007812 767 -162.666992188 757 -166 c 4
 744.333007812 -171.333007812 733.666992188 -168 725 -156 c 132
 716.333007812 -144 712 -126.666992188 712 -104 c 6
 712 -60 l 5
 628 -60 l 6
 584.666992188 -60 557.166992188 -57 545.5 -51 c 132
 533.833007812 -45 531.666992188 -32.6669921875 539 -14 c 4
 541 -8 547.333007812 -4 558 -2 c 132
 568.666992188 0 588 0.6669921875 616 0 c 4
 624 0 624 0 638 0 c 4
 681.333007812 -1.3330078125 706.5 -0.6669921875 713.5 2 c 132
 720.5 4.6669921875 723 14.3330078125 721 31 c 4
 721 33.6669921875 720.666992188 35.6669921875 720 37 c 6
 717 75 l 5
 630 78 l 6
 585.333007812 79.3330078125 557.333007812 83 546 89 c 132
 534.666992188 95 532.333007812 107.333007812 539 126 c 4
 541.666992188 133.333007812 548.166992188 137.666992188 558.5 139 c 132
 568.833007812 140.333007812 590 139.666992188 622 137 c 4
 663.333007812 133.666992188 690.333007812 134.5 703 139.5 c 132
 715.666992188 144.5 722 156.666992188 722 176 c 4
 722 193.333007812 715.166992188 205 701.5 211 c 132
 687.833007812 217 661 219.333007812 621 218 c 6
 547 215 l 5
 544 244 l 5
 540 272 l 5
 629 269 l 6
 672.333007812 267 698 266.833007812 706 268.5 c 132
 714 270.166992188 718.666992188 277 720 289 c 4
 722.666992188 306.333007812 717.666992188 317.333007812 705 322 c 132
 692.333007812 326.666992188 666 327.333007812 626 324 c 4
 594 320.666992188 573.5 319.833007812 564.5 321.5 c 132
 555.5 323.166992188 548.333007812 328.666992188 543 338 c 4
 539.666992188 346 538.166992188 352.5 538.5 357.5 c 132
 538.833007812 362.5 543 366.833007812 551 370.5 c 132
 559 374.166992188 569.666992188 376.833007812 583 378.5 c 132
 596.333007812 380.166992188 614.333007812 381.333007812 637 382 c 4
 676.333007812 383.333007812 699.5 385.333007812 706.5 388 c 132
 713.5 390.666992188 717 398 717 410 c 132
 717 422 713.333007812 429.333007812 706 432 c 132
 698.666992188 434.666992188 675 436.666992188 635 438 c 4
 567.666992188 440 534.333007812 450 535 468 c 4
 535 473.333007812 537.666992188 479.333007812 543 486 c 260
 548.333007812 492.666992188 557.166992188 496.666992188 569.5 498 c 132
 581.833007812 499.333007812 604 499.333007812 636 498 c 6
 717 495 l 5
 717 535 l 5
 717 575 l 5
 635 575 l 6
 593 575 564.5 577.833007812 549.5 583.5 c 132
 534.5 589.166992188 529.666992188 599.333007812 535 614 c 4
 537.666992188 620.666992188 545 625 557 627 c 132
 569 629 592.333007812 630 627 630 c 6
 712 630 l 5
 712 688 l 6
 712 726.666992188 716 750 724 758 c 4
249 758 m 0
 265 774 278.333333333 772.333333333 289 753 c 0
 295.666666667 739.666666667 298.333333333 721.333333333 297 698 c 0
 297 694 297 694 297 687 c 0
 296.333333333 675 295.833333333 666.666666667 295.5 662 c 128
 295.166666667 657.333333333 296 652 298 646 c 128
 300 640 301.666666667 636.5 303 635.5 c 128
 304.333333333 634.5 308.833333333 633.166666667 316.5 631.5 c 128
 324.166666667 629.833333333 331.166666667 629.166666667 337.5 629.5 c 128
 343.833333333 629.833333333 354.666666667 630.333333333 370 631 c 0
 376.666666667 631.666666667 381.666666667 632 385 632 c 2
 472 635 l 1
 472 610 l 2
 472 597.333333333 468.333333333 589.833333333 461 587.5 c 128
 453.666666667 585.166666667 428.666666667 583.333333333 386 582 c 2
 386 582 386 582 385 582 c 0
 343.666666667 580.666666667 318.5 578.666666667 309.5 576 c 128
 300.5 573.333333333 294.333333333 566.333333333 291 555 c 0
 289 545 287.5 537.166666667 286.5 531.5 c 128
 285.5 525.833333333 285.833333333 520.5 287.5 515.5 c 128
 289.166666667 510.5 291.666666667 506.833333333 295 504.5 c 128
 298.333333333 502.166666667 304.333333333 500.166666667 313 498.5 c 128
 321.666666667 496.833333333 331 495.833333333 341 495.5 c 128
 351 495.166666667 364.666666667 495 382 495 c 0
 426.666666667 495 452.833333333 494 460.5 492 c 128
 468.166666667 490 472 482.666666667 472 470 c 0
 472 458 468 450.666666667 460 448 c 128
 452 445.333333333 426 442.666666667 382 440 c 0
 337.333333333 437.333333333 311.166666667 434.666666667 303.5 432 c 128
 295.833333333 429.333333333 291 421.333333333 289 408 c 0
 289 407 289 407 289 404 c 0
 287 390.666666667 290 382.833333333 298 380.5 c 128
 306 378.166666667 334.333333333 376.666666667 383 376 c 0
 389 376 389 376 392 376 c 0
 429.333333333 375.333333333 452.166666667 373.833333333 460.5 371.5 c 128
 468.833333333 369.166666667 473.666666667 363 475 353 c 0
 477 344.333333333 476 338.166666667 472 334.5 c 128
 468 330.833333333 459.666666667 327.666666667 447 325 c 0
 425.666666667 320.333333333 400.333333333 320.333333333 371 325 c 0
 341 329.666666667 319.5 329.5 306.5 324.5 c 128
 293.5 319.5 287 309 287 293 c 0
 287 280.333333333 290.5 273 297.5 271 c 128
 304.5 269 328.666666667 268.666666667 370 270 c 0
 374 270 374 270 381 270 c 0
 429 271.333333333 457 271 465 269 c 128
 473 267 477 259.666666667 477 247 c 0
 477 246 477 246 477 246 c 2
 477 230 471.5 220.333333333 460.5 217 c 128
 449.5 213.666666667 421.666666667 213.666666667 377 217 c 0
 335.666666667 220.333333333 308.166666667 218.5 294.5 211.5 c 128
 280.833333333 204.5 275.666666667 190 279 168 c 0
 281 157.333333333 286.5 150.666666667 295.5 148 c 128
 304.5 145.333333333 331.666666667 142.666666667 377 140 c 0
 378 140 378 140 379 140 c 0
 425 137.333333333 452 134.833333333 460 132.5 c 128
 468 130.166666667 472 122.666666667 472 110 c 128
 472 97.3333333333 468.166666667 89.8333333333 460.5 87.5 c 128
 452.833333333 85.1666666667 426.333333333 83.3333333333 381 82 c 2
 380 82 l 1
 287 79 l 1
 287 45 l 2
 287 23 291.333333333 9 300 3 c 0
 308 -2.33333333333 338.666666667 -5 392 -5 c 0
 432 -5 455.333333333 -6 462 -8 c 128
 468.666666667 -10 472 -17.3333333333 472 -30 c 128
 472 -42.6666666667 468.333333333 -50.1666666667 461 -52.5 c 128
 453.666666667 -54.8333333333 428.666666667 -56.6666666667 386 -58 c 2
 386 -58 386 -58 385 -58 c 2
 297 -61 l 1
 297 -111 l 2
 297 -144.333333333 292 -162.666666667 282 -166 c 0
 269.333333333 -171.333333333 258.666666667 -168 250 -156 c 128
 241.333333333 -144 237 -126.666666667 237 -104 c 2
 237 -60 l 1
 153 -60 l 2
 109.666666667 -60 82.1666666667 -57 70.5 -51 c 128
 58.8333333333 -45 56.6666666667 -32.6666666667 64 -14 c 0
 66 -8 72.3333333333 -4 83 -2 c 128
 93.6666666667 0 113 0.666666666667 141 0 c 0
 149 0 149 0 163 0 c 0
 206.333333333 -1.33333333333 231.5 -0.666666666667 238.5 2 c 128
 245.5 4.66666666667 248 14.3333333333 246 31 c 0
 246 33.6666666667 245.666666667 35.6666666667 245 37 c 2
 242 75 l 1
 155 78 l 2
 110.333333333 79.3333333333 82.3333333333 83 71 89 c 128
 59.6666666667 95 57.3333333333 107.333333333 64 126 c 0
 66.6666666667 133.333333333 73.1666666667 137.666666667 83.5 139 c 128
 93.8333333333 140.333333333 115 139.666666667 147 137 c 0
 188.333333333 133.666666667 215.333333333 134.5 228 139.5 c 128
 240.666666667 144.5 247 156.666666667 247 176 c 0
 247 193.333333333 240.166666667 205 226.5 211 c 128
 212.833333333 217 186 219.333333333 146 218 c 2
 72 215 l 1
 69 244 l 1
 65 272 l 1
 154 269 l 2
 197.333333333 267 223 266.833333333 231 268.5 c 128
 239 270.166666667 243.666666667 277 245 289 c 0
 247.666666667 306.333333333 242.666666667 317.333333333 230 322 c 128
 217.333333333 326.666666667 191 327.333333333 151 324 c 0
 119 320.666666667 98.5 319.833333333 89.5 321.5 c 128
 80.5 323.166666667 73.3333333333 328.666666667 68 338 c 0
 64.6666666667 346 63.1666666667 352.5 63.5 357.5 c 128
 63.8333333333 362.5 68 366.833333333 76 370.5 c 128
 84 374.166666667 94.6666666667 376.833333333 108 378.5 c 128
 121.333333333 380.166666667 139.333333333 381.333333333 162 382 c 0
 201.333333333 383.333333333 224.5 385.333333333 231.5 388 c 128
 238.5 390.666666667 242 398 242 410 c 128
 242 422 238.333333333 429.333333333 231 432 c 128
 223.666666667 434.666666667 200 436.666666667 160 438 c 0
 92.6666666667 440 59.3333333333 450 60 468 c 0
 60 473.333333333 62.6666666667 479.333333333 68 486 c 256
 73.3333333333 492.666666667 82.1666666667 496.666666667 94.5 498 c 128
 106.833333333 499.333333333 129 499.333333333 161 498 c 2
 242 495 l 1
 242 535 l 1
 242 575 l 1
 160 575 l 2
 118 575 89.5 577.833333333 74.5 583.5 c 128
 59.5 589.166666667 54.6666666667 599.333333333 60 614 c 0
 62.6666666667 620.666666667 70 625 82 627 c 128
 94 629 117.333333333 630 152 630 c 2
 237 630 l 1
 237 688 l 2
 237 726.666666667 241 750 249 758 c 0
EndSplineSet
EndChar

StartChar: uni0909
Encoding: 2313 2313 5
Width: 404
Flags: HW
LayerCount: 2
Fore
SplineSet
169 758 m 0
 177 767.333007812 187.666992188 770.666992188 201 768 c 0
 209.666992188 766.666992188 215.666992188 763 219 757 c 128
 222.333007812 751 224.333007812 739.666992188 225 723 c 0
 227.666992188 695 232.666992188 680.333007812 240 679 c 0
 245.333007812 679 262.666992188 678.333007812 292 677 c 2
 332 675 l 1
 335 399 l 1
 337 122 l 1
 300 113 l 1
 262 104 l 1
 257 25 l 2
 254.333007812 -9.6669921875 250.833007812 -34.5 246.5 -49.5 c 128
 242.166992188 -64.5 232.333007812 -83 217 -105 c 0
 183 -155.666992188 160.333007812 -176.666992188 149 -168 c 0
 146.333007812 -166 143.666992188 -161.666992188 141 -155 c 0
 137 -145.666992188 147 -123 171 -87 c 0
 188.333007812 -61.6669921875 198.666992188 -42.8330078125 202 -30.5 c 128
 205.333007812 -18.1669921875 206.333007812 5.6669921875 205 41 c 0
 202.333007812 90.3330078125 198 115 192 115 c 0
 185.333007812 115 180.333007812 90 177 40 c 0
 175 8 171.666992188 -15.3330078125 167 -30 c 128
 162.333007812 -44.6669921875 153 -62 139 -82 c 0
 121 -108 108.5 -122.833007812 101.5 -126.5 c 128
 94.5 -130.166992188 86.3330078125 -126.333007812 77 -115 c 0
 71.6669921875 -108.333007812 70.1669921875 -101.333007812 72.5 -94 c 128
 74.8330078125 -86.6669921875 82.6669921875 -74 96 -56 c 0
 109.333007812 -37.3330078125 117.833007812 -21.8330078125 121.5 -9.5 c 128
 125.166992188 2.8330078125 127 20.6669921875 127 44 c 0
 127 70 125.5 86.6669921875 122.5 94 c 128
 119.5 101.333007812 111 108.333007812 97 115 c 2
 67 131 l 1
 67 393 l 2
 67 567 69.6669921875 658.666992188 75 668 c 0
 80.3330078125 676 94.6669921875 679.333007812 118 678 c 0
 134 676.666992188 143.833007812 677.5 147.5 680.5 c 128
 151.166992188 683.5 153.666992188 693.333007812 155 710 c 0
 157.666992188 734 162.333007812 750 169 758 c 0
172 629 m 0
 168.666992188 635 159.5 638.5 144.5 639.5 c 128
 129.5 640.5 119.333007812 638.333007812 114 633 c 0
 109.333007812 629.666992188 107 618 107 598 c 0
 107 586 108.833007812 578.333007812 112.5 575 c 128
 116.166992188 571.666992188 124.333007812 570 137 570 c 0
 148.333007812 570 156.5 571.666992188 161.5 575 c 128
 166.5 578.333007812 170.333007812 584.666992188 173 594 c 0
 177 612 176.666992188 623.666992188 172 629 c 0
292 605 m 128
 292 619 289.833007812 627.666992188 285.5 631 c 128
 281.166992188 634.333007812 269 636.666992188 249 638 c 2
 206 641 l 1
 209 608 l 2
 210.333007812 592.666992188 213.166992188 583.333007812 217.5 580 c 128
 221.833007812 576.666992188 233.333007812 575 252 575 c 128
 270.666992188 575 282 576.5 286 579.5 c 128
 290 582.5 292 591 292 605 c 128
165 508 m 0
 164.333007812 522 162.166992188 531.833007812 158.5 537.5 c 128
 154.833007812 543.166992188 149.333007812 546.666992188 142 548 c 0
 128 550 118.666992188 548 114 542 c 128
 109.333007812 536 107 523 107 503 c 0
 107 488.333007812 108.666992188 479.166992188 112 475.5 c 128
 115.333007812 471.833007812 124 470 138 470 c 0
 152.666992188 470 161.166992188 471.833007812 163.5 475.5 c 128
 165.833007812 479.166992188 166.333007812 490 165 508 c 0
295 506 m 0
 296.333007812 518.666992188 295.666992188 527.333007812 293 532 c 128
 290.333007812 536.666992188 284 540 274 542 c 0
 252.666992188 546 236 544.333007812 224 537 c 128
 212 529.666992188 207 518.333007812 209 503 c 0
 210.333007812 490.333007812 213.333007812 482.5 218 479.5 c 128
 222.666992188 476.5 234 475 252 475 c 0
 270.666992188 475 282.166992188 476.5 286.5 479.5 c 128
 290.833007812 482.5 293.666992188 491.333007812 295 506 c 0
167 429 m 0
 161 441 151.166992188 447.833007812 137.5 449.5 c 128
 123.833007812 451.166992188 115 446.666992188 111 436 c 0
 107 426 106.333007812 411.666992188 109 393 c 0
 110.333007812 381 113 373.333007812 117 370 c 128
 121 366.666992188 129.333007812 365 142 365 c 0
 153.333007812 365 161.5 366.5 166.5 369.5 c 128
 171.5 372.5 174.333007812 378.333007812 175 387 c 0
 177 401 174.333007812 415 167 429 c 0
278 440 m 0
 266 446 256.833007812 449 250.5 449 c 128
 244.166992188 449 235.666992188 445.666992188 225 439 c 0
 211.666992188 429 205.333007812 417.666992188 206 405 c 128
 206.666992188 392.333007812 213.833007812 381.333007812 227.5 372 c 128
 241.166992188 362.666992188 256.333007812 360 273 364 c 0
 288.333007812 368 296.666992188 379.666992188 298 399 c 128
 299.333007812 418.333007812 292.666992188 432 278 440 c 0
175 298 m 0
 176.333007812 313.333007812 175.5 322.5 172.5 325.5 c 128
 169.5 328.5 159.666992188 330 143 330 c 0
 125.666992188 330 115.333007812 328.333007812 112 325 c 128
 108.666992188 321.666992188 107 311.333007812 107 294 c 128
 107 276.666992188 108.5 266.666992188 111.5 264 c 128
 114.5 261.333007812 124 260.666992188 140 262 c 0
 154 263.333007812 163 266 167 270 c 128
 171 274 173.666992188 283.333007812 175 298 c 0
295 298 m 0
 296.333007812 314 295.166992188 323.333007812 291.5 326 c 128
 287.833007812 328.666992188 274.666992188 330 252 330 c 128
 229.333007812 330 216.166992188 328.666992188 212.5 326 c 128
 208.833007812 323.333007812 207.666992188 314 209 298 c 0
 210.333007812 282.666992188 213.166992188 273.333007812 217.5 270 c 128
 221.833007812 266.666992188 233.333007812 265 252 265 c 128
 270.666992188 265 282.166992188 266.666992188 286.5 270 c 128
 290.833007812 273.333007812 293.666992188 282.666992188 295 298 c 0
175 187 m 0
 173.666992188 203.666992188 171.166992188 214.333007812 167.5 219 c 128
 163.833007812 223.666992188 156 226.666992188 144 228 c 0
 129.333007812 230 119 227 113 219 c 128
 107 211 105.666992188 197.333007812 109 178 c 0
 110.333007812 168.666992188 113.5 162.166992188 118.5 158.5 c 128
 123.5 154.833007812 132.333007812 152.666992188 145 152 c 0
 161.666992188 150.666992188 171.166992188 151.5 173.5 154.5 c 128
 175.833007812 157.5 176.333007812 168.333007812 175 187 c 0
285 221 m 0
 275.666992188 227 264 229.666992188 250 229 c 128
 236 228.333007812 225.666992188 224.666992188 219 218 c 0
 211 210 207 196.333007812 207 177 c 0
 207 163.666992188 209 155.833007812 213 153.5 c 128
 217 151.166992188 229.333007812 150.666992188 250 152 c 0
 268.666992188 153.333007812 280.5 155.666992188 285.5 159 c 128
 290.5 162.333007812 293.666992188 170.666992188 295 184 c 0
 297.666992188 203.333007812 294.333007812 215.666992188 285 221 c 0
EndSplineSet
EndChar

StartChar: uni090F
Encoding: 2319 2319 6
Width: 789
Flags: HW
LayerCount: 2
Fore
SplineSet
386 685 m 0
 381.333333333 688.333333333 368.666666667 655 348 585 c 0
 344.666666667 573 343.666666667 566.333333333 345 565 c 0
 348.333333333 561.666666667 360.333333333 559.666666667 381 559 c 0
 405.666666667 559 420.166666667 560.166666667 424.5 562.5 c 128
 428.833333333 564.833333333 428.666666667 571.333333333 424 582 c 0
 405.333333333 646 392.666666667 680.333333333 386 685 c 0
375 758 m 0
 381.666666667 766 389.666666667 766.333333333 399 759 c 128
 408.333333333 751.666666667 413 745 413 739 c 128
 413 733 450.833333333 630.833333333 526.5 432.5 c 128
 602.166666667 234.166666667 656.333333333 94.3333333333 689 13 c 0
 725 -73.6666666667 743 -124 743 -138 c 0
 743 -151.333333333 723.166666667 -160 683.5 -164 c 128
 643.833333333 -168 560 -170 432 -170 c 0
 172.666666667 -170 43 -161.666666667 43 -145 c 0
 43 -137 68.3333333333 -65 119 71 c 0
 127 92.3333333333 151.333333333 158.333333333 192 269 c 128
 232.666666667 379.666666667 262 460 280 510 c 0
 336 666.666666667 367.666666667 749.333333333 375 758 c 0
451 493 m 0
 449.666666667 502.333333333 445.666666667 508.5 439 511.5 c 128
 432.333333333 514.5 417 516.666666667 393 518 c 0
 339.666666667 520.666666667 313 509 313 483 c 0
 313 474.333333333 336.666666667 470 384 470 c 0
 417.333333333 470 437.166666667 471.166666667 443.5 473.5 c 128
 449.833333333 475.833333333 452.333333333 482.333333333 451 493 c 0
480 412 m 0
 470.666666667 417.333333333 439.333333333 420 386 420 c 0
 349.333333333 420 325.666666667 418.833333333 315 416.5 c 128
 304.333333333 414.166666667 295.666666667 408 289 398 c 0
 278.333333333 383.333333333 275.666666667 373.333333333 281 368 c 128
 286.333333333 362.666666667 324 360.666666667 394 362 c 0
 443.333333333 363.333333333 472.833333333 365.166666667 482.5 367.5 c 128
 492.166666667 369.833333333 496.333333333 375.666666667 495 385 c 0
 492.333333333 397.666666667 487.333333333 406.666666667 480 412 c 0
514 310 m 0
 496 319.333333333 432.333333333 319.666666667 323 311 c 0
 289 308.333333333 267.833333333 305.5 259.5 302.5 c 128
 251.166666667 299.5 246.333333333 293 245 283 c 0
 243.666666667 271.666666667 248.833333333 265 260.5 263 c 128
 272.166666667 261 314.333333333 260 387 260 c 0
 456.333333333 260 498 261 512 263 c 128
 526 265 533 270.666666667 533 280 c 0
 533 292.666666667 526.666666667 302.666666667 514 310 c 0
572 188 m 0
 568 198.666666667 558.333333333 205 543 207 c 128
 527.666666667 209 478.333333333 210 395 210 c 0
 347.666666667 210 312.833333333 209.666666667 290.5 209 c 128
 268.166666667 208.333333333 249.5 206.333333333 234.5 203 c 128
 219.5 199.666666667 210.5 195.5 207.5 190.5 c 128
 204.5 185.5 203 178 203 168 c 0
 203 159.333333333 212.166666667 154.166666667 230.5 152.5 c 128
 248.833333333 150.833333333 301 150 387 150 c 0
 511 150 574 152.666666667 576 158 c 0
 579.333333333 162.666666667 578 172.666666667 572 188 c 0
613 79 m 0
 607.666666667 89 594.833333333 95 574.5 97 c 128
 554.166666667 99 493.666666667 100 393 100 c 128
 292.333333333 100 231.833333333 99 211.5 97 c 128
 191.166666667 95 178.333333333 89 173 79 c 0
 164.333333333 65 162.666666667 56 168 52 c 0
 171.333333333 48.6666666667 246.666666667 47.3333333333 394 48 c 128
 541.333333333 48.6666666667 617 50.6666666667 621 54 c 0
 624.333333333 57.3333333333 621.666666667 65.6666666667 613 79 c 0
651 -27 m 1
 648 -5 l 1
 397 -2 l 2
 231 -0.666666666667 145.333333333 -2 140 -6 c 0
 135.333333333 -10.6666666667 133 -19.3333333333 133 -32 c 0
 133 -40.6666666667 145.666666667 -45.8333333333 171 -47.5 c 128
 196.333333333 -49.1666666667 270.666666667 -50 394 -50 c 2
 654 -50 l 1
 651 -27 l 1
682 -105 m 0
 678.666666667 -101.666666667 593.333333333 -98.8333333333 426 -96.5 c 128
 258.666666667 -94.1666666667 163.333333333 -94.3333333333 140 -97 c 0
 132 -97.6666666667 125.333333333 -98.8333333333 120 -100.5 c 128
 114.666666667 -102.166666667 110.666666667 -104 108 -106 c 128
 105.333333333 -108 104.666666667 -110.333333333 106 -113 c 0
 108.666666667 -121 202.666666667 -126 388 -128 c 128
 573.333333333 -130 669.666666667 -127.333333333 677 -120 c 0
 683 -114 684.666666667 -109 682 -105 c 0
EndSplineSet
EndChar

StartChar: uni0903
Encoding: 2307 2307 7
Width: 350
Flags: HW
LayerCount: 2
Fore
SplineSet
126 724 m 0
 134.666666667 736.666666667 143.166666667 747.5 151.5 756.5 c 128
 159.833333333 765.5 166 770 170 770 c 0
 178 770 195.5 749 222.5 707 c 128
 249.5 665 267 631.333333333 275 606 c 0
 284.333333333 576.666666667 286.5 537.333333333 281.5 488 c 128
 276.5 438.666666667 266.333333333 398 251 366 c 0
 235 333.333333333 226.833333333 310.333333333 226.5 297 c 128
 226.166666667 283.666666667 233.333333333 265.333333333 248 242 c 0
 266.666666667 212.666666667 279.333333333 184.333333333 286 157 c 128
 292.666666667 129.666666667 295 97.6666666667 293 61 c 0
 289 8.33333333333 274.166666667 -41.6666666667 248.5 -89 c 128
 222.833333333 -136.333333333 198 -160 174 -160 c 0
 160 -160 140 -139.333333333 114 -98 c 128
 88 -56.6666666667 73 -21.6666666667 69 7 c 0
 63 47 62.8333333333 88.5 68.5 131.5 c 128
 74.1666666667 174.5 84.3333333333 209 99 235 c 0
 116.333333333 267 125 287.333333333 125 296 c 0
 125 306 114.333333333 329.333333333 93 366 c 0
 63 419.333333333 50.8333333333 477 56.5 539 c 128
 62.1666666667 601 85.3333333333 662.666666667 126 724 c 0
206 643 m 0
 200 655.666666667 193.333333333 666.666666667 186 676 c 128
 178.666666667 685.333333333 173 690 169 690 c 0
 155.666666667 690 142.5 672 129.5 636 c 128
 116.5 600 109 561.333333333 107 520 c 0
 105 486.666666667 105.5 462.833333333 108.5 448.5 c 128
 111.5 434.166666667 119.333333333 414.666666667 132 390 c 0
 139.333333333 375.333333333 147.333333333 362.5 156 351.5 c 128
 164.666666667 340.5 171 335 175 335 c 0
 184.333333333 335 197 356.666666667 213 400 c 0
 227 442 233.5 484.333333333 232.5 527 c 128
 231.5 569.666666667 222.666666667 608.333333333 206 643 c 0
219 195 m 0
 206.333333333 225.666666667 195.666666667 245.333333333 187 254 c 128
 178.333333333 262.666666667 169.833333333 261.5 161.5 250.5 c 128
 153.166666667 239.5 143 216.666666667 131 182 c 0
 113.666666667 130 105 95.6666666667 105 79 c 0
 105 59 110.5 32.1666666667 121.5 -1.5 c 128
 132.5 -35.1666666667 144 -59.3333333333 156 -74 c 0
 162.666666667 -83.3333333333 168.666666667 -89.1666666667 174 -91.5 c 128
 179.333333333 -93.8333333333 184.666666667 -92.8333333333 190 -88.5 c 128
 195.333333333 -84.1666666667 200.666666667 -76.3333333333 206 -65 c 128
 211.333333333 -53.6666666667 217.666666667 -37.6666666667 225 -17 c 0
 238.333333333 21 244.5 56 243.5 88 c 128
 242.5 120 234.333333333 155.666666667 219 195 c 0
EndSplineSet
EndChar

StartChar: uni0915
Encoding: 2325 2325 8
Width: 515
Flags: W
VStem: 218 82.5<229.613 367.295>
LayerCount: 2
Fore
SplineSet
52 755 m 0
 54.6666666667 763 60 767.666666667 68 769 c 0
 76 770.333333333 85 768 95 762 c 0
 102.333333333 757.333333333 126.666666667 705 168 605 c 0
 177.333333333 581 187.666666667 555.333333333 199 528 c 0
 210.333333333 500.666666667 219.5 478.333333333 226.5 461 c 0
 233.5 443.666666667 237.666666667 433.666666667 239 431 c 0
 241.666666667 424.333333333 244.833333333 419.5 248.5 416.5 c 0
 252.166666667 413.5 255.333333333 413.333333333 258 416 c 0
 263.333333333 421.333333333 285 476 323 580 c 0
 352.333333333 660 373.333333333 711.666666667 386 735 c 0
 398.666666667 758.333333333 411.333333333 767.666666667 424 763 c 0
 430 761 434.5 758 437.5 754 c 0
 440.5 750 442.333333333 744.166666667 443 736.5 c 0
 443.666666667 728.833333333 442.833333333 719.833333333 440.5 709.5 c 0
 438.166666667 699.166666667 434 685.333333333 428 668 c 0
 422 650.666666667 414.833333333 631.333333333 406.5 610 c 0
 398.166666667 588.666666667 387.333333333 562.333333333 374 531 c 0
 356.666666667 489.666666667 343.833333333 458.833333333 335.5 438.5 c 0
 327.166666667 418.166666667 319.5 396.166666667 312.5 372.5 c 0
 305.5 348.833333333 301.5 331.833333333 300.5 321.5 c 0
 299.5 311.166666667 300.166666667 297.833333333 302.5 281.5 c 0
 304.833333333 265.166666667 308.5 251.333333333 313.5 240 c 0
 318.5 228.666666667 326.333333333 212.666666667 337 192 c 0
 360.333333333 145.333333333 387.5 86 418.5 14 c 0
 449.5 -58 466 -99.3333333333 468 -110 c 0
 470 -126.666666667 469.333333333 -137.5 466 -142.5 c 0
 462.666666667 -147.5 454.333333333 -149.333333333 441 -148 c 0
 431.666666667 -146.666666667 423.666666667 -142.333333333 417 -135 c 0
 410.333333333 -127.666666667 401.833333333 -113.5 391.5 -92.5 c 0
 381.166666667 -71.5 364.666666667 -34 342 20 c 0
 322 67.3333333333 304 106.666666667 288 138 c 0
 272 169.333333333 262 185 258 185 c 256
 254 185 249.5 181.166666667 244.5 173.5 c 0
 239.5 165.833333333 235 156.333333333 231 145 c 0
 215 100.333333333 190.666666667 41.5 158 -31.5 c 0
 125.333333333 -104.5 104.666666667 -145.666666667 96 -155 c 0
 86 -165 79.6666666667 -170 77 -170 c 0
 74.3333333333 -170 69.6666666667 -165.333333333 63 -156 c 0
 57 -148.666666667 53.5 -142 52.5 -136 c 0
 51.5 -130 54 -117.166666667 60 -97.5 c 0
 66 -77.8333333333 74.3333333333 -55.5 85 -30.5 c 0
 95.6666666667 -5.5 113.666666667 35 139 91 c 0
 160.333333333 139 178.833333333 183.333333333 194.5 224 c 0
 210.166666667 264.666666667 218 289.333333333 218 298 c 256
 218 306.666666667 210.166666667 331.666666667 194.5 373 c 0
 178.833333333 414.333333333 160 459.666666667 138 509 c 0
 95.3333333333 604.333333333 69.1666666667 666.166666667 59.5 694.5 c 0
 49.8333333333 722.833333333 47.3333333333 743 52 755 c 0
  Spiro
    52 755 o
    58 764.5 o
    68 769 o
    80.75 768.25 o
    95 762 o
    118.75 719.25 o
    168 605 o
    182.75 567.75 o
    199 528 o
    214.375 490.75 o
    226.5 461 o
    234.875 440.5 o
    239 431 o
    243.375 422.375 o
    248.5 416.5 o
    253.625 414.125 o
    258 416 o
    278.25 461 o
    323 580 o
    360.75 678.75 o
    386 735 o
    405 759.5 o
    424 763 o
    431.875 759.25 o
    437.5 754 o
    441.125 746.625 o
    443 736.5 o
    442.875 724 o
    440.5 709.5 o
    435.625 691.375 o
    428 668 o
    418.125 640.5 o
    406.5 610 o
    392.125 574.25 o
    374 531 o
    351.375 476.875 o
    335.5 438.5 o
    323.5 406.75 o
    312.5 372.5 o
    304.25 342 o
    300.5 321.5 o
    300.25 303.75 o
    302.5 281.5 o
    307 258.875 o
    313.5 240 o
    323.125 219.5 o
    337 192 o
    374.875 112.5 o
    418.5 14 o
    454.125 -71 o
    468 -110 o
    469 -130.625 o
    466 -142.5 o
    457.25 -147.625 o
    441 -148 o
    428 -143.75 o
    417 -135 o
    405.625 -118.875 o
    391.5 -92.5 o
    371.375 -48.625 o
    342 20 o
    313.5 85 o
    288 138 o
    268.5 173.25 o
    258 185 o
    251.625 182.125 o
    244.5 173.5 o
    237.375 160.625 o
    231 145 o
    200.75 67.375 o
    158 -31.5 o
    118 -117.125 o
    96 -155 o
    83.75 -166.25 o
    77 -170 o
    71.5 -166.5 o
    63 -156 o
    55.875 -145.5 o
    52.5 -136 o
    53.625 -121.875 o
    60 -97.5 o
    70.75 -66 o
    85 -30.5 o
    106.5 18.625 o
    139 91 o
    168.875 160.25 o
    194.5 224 o
    212.125 273 o
    218 298 o
    212.125 323.25 o
    194.5 373 o
    168.625 438 o
    138 509 o
    86.375 626.875 o
    59.5 694.5 o
    50.375 730.875 o
    0 0 z
  EndSpiro
EndSplineSet
EndChar

StartChar: uni0916
Encoding: 2326 2326 9
Width: 395
Flags: HW
LayerCount: 2
Fore
SplineSet
166 759 m 0
 173.333333333 766.333333333 184 769.333333333 198 768 c 0
 207.333333333 766.666666667 213.166666667 759.833333333 215.5 747.5 c 128
 217.833333333 735.166666667 219.666666667 700 221 642 c 2
 224 519 l 1
 256 504 l 2
 264.666666667 500 274.5 493 285.5 483 c 128
 296.5 473 305.666666667 462.666666667 313 452 c 0
 323 436 329.5 420.666666667 332.5 406 c 128
 335.5 391.333333333 337 364.333333333 337 325 c 0
 337.666666667 285 336.5 257.5 333.5 242.5 c 128
 330.5 227.5 323 210 311 190 c 0
 303 177.333333333 293.5 164.666666667 282.5 152 c 128
 271.5 139.333333333 262 130.333333333 254 125 c 2
 224 105 l 1
 221 -30 l 1
 218 -165 l 1
 193 -165 l 1
 168 -165 l 1
 163 -23 l 1
 158 119 l 1
 117 154 l 2
 90.3333333333 176.666666667 72.5 203.833333333 63.5 235.5 c 128
 54.5 267.166666667 52.6666666667 310.333333333 58 365 c 0
 61.3333333333 403 65.5 427 70.5 437 c 128
 75.5 447 90.6666666667 462.333333333 116 483 c 2
 166 525 l 1
 160 636 l 2
 156 710 158 751 166 759 c 0
252 415 m 0
 233.333333333 436.333333333 214.5 448 195.5 450 c 128
 176.5 452 159.333333333 444.666666667 144 428 c 0
 118.666666667 402 109 354 115 284 c 0
 117 262.666666667 120.166666667 246.166666667 124.5 234.5 c 128
 128.833333333 222.833333333 136.666666667 211.333333333 148 200 c 0
 168.666666667 178 186.833333333 168.333333333 202.5 171 c 128
 218.166666667 173.666666667 235 189 253 217 c 0
 265 236.333333333 273 252.833333333 277 266.5 c 128
 281 280.166666667 283 298.666666667 283 322 c 0
 283 347.333333333 281.166666667 365.333333333 277.5 376 c 128
 273.833333333 386.666666667 265.333333333 399.666666667 252 415 c 0
EndSplineSet
EndChar

StartChar: uni0917
Encoding: 2327 2327 10
Width: 680
Flags: HW
VStem: 52.5 76.5<-152.888 -41.6993>
LayerCount: 2
Fore
SplineSet
366 728 m 0
 373.333007812 744.666992188 383.166992188 755 395.5 759 c 0
 407.833007812 763 418.666992188 759.333007812 428 748 c 0
 434.666992188 740 470.333007812 668 535 532 c 0
 562.333007812 474.666992188 582.833007812 430.666992188 596.5 400 c 0
 610.166992188 369.333007812 619.5 343.833007812 624.5 323.5 c 0
 629.5 303.166992188 629.833007812 289.833007812 625.5 283.5 c 0
 621.166992188 277.166992188 612.666992188 273.333007812 600 272 c 0
 583.333007812 270 571.333007812 273.333007812 564 282 c 0
 558 290 533.666992188 344.333007812 491 445 c 0
 472.333007812 488.333007812 458.333007812 520.5 449 541.5 c 0
 439.666992188 562.5 431.333007812 580.166992188 424 594.5 c 0
 416.666992188 608.833007812 411.833007812 615.666992188 409.5 615 c 0
 407.166992188 614.333007812 404 613.666992188 400 613 c 0
 394 607.666992188 375.666992188 561.666992188 345 475 c 0
 339 458.333007812 312.666992188 385 266 255 c 0
 249.333007812 211 223 143 187 51 c 0
 155.666992188 -25 136.333007812 -77.6669921875 129 -107 c 0
 123 -129.666992188 114.5 -146.166992188 103.5 -156.5 c 0
 92.5 -166.833007812 80.3330078125 -169.333007812 67 -164 c 0
 47.6669921875 -156 42.8330078125 -133 52.5 -95 c 0
 62.1669921875 -57 98 41.3330078125 160 200 c 0
 234 391.333007812 281.333007812 513 302 565 c 0
 312.666992188 593.666992188 325.833007812 627.666992188 341.5 667 c 0
 357.166992188 706.333007812 365.333007812 726.666992188 366 728 c 0
EndSplineSet
EndChar

StartChar: uni0918
Encoding: 2328 2328 11
Width: 680
Flags: W
VStem: 52.5 76.5<-152.888 -41.6993>
LayerCount: 2
Fore
SplineSet
366 728 m 0
 373.333007812 744.666992188 383.166992188 755 395.5 759 c 0
 407.833007812 763 418.666992188 759.333007812 428 748 c 0
 434.666992188 740 470.333007812 668 535 532 c 0
 562.333007812 474.666992188 582.833007812 430.666992188 596.5 400 c 0
 610.166992188 369.333007812 619.5 343.833007812 624.5 323.5 c 0
 629.5 303.166992188 629.833007812 289.833007812 625.5 283.5 c 0
 621.166992188 277.166992188 612.666992188 273.333007812 600 272 c 0
 583.333007812 270 571.333007812 273.333007812 564 282 c 0
 558 290 533.666992188 344.333007812 491 445 c 0
 472.333007812 488.333007812 458.333007812 520.5 449 541.5 c 0
 439.666992188 562.5 431.333007812 580.166992188 424 594.5 c 0
 416.666992188 608.833007812 411.833007812 615.666992188 409.5 615 c 0
 407.166992188 614.333007812 404 613.666992188 400 613 c 0
 394 607.666992188 375.666992188 561.666992188 345 475 c 0
 339 458.333007812 312.666992188 385 266 255 c 0
 249.333007812 211 223 143 187 51 c 0
 155.666992188 -25 136.333007812 -77.6669921875 129 -107 c 0
 123 -129.666992188 114.5 -146.166992188 103.5 -156.5 c 0
 92.5 -166.833007812 80.3330078125 -169.333007812 67 -164 c 0
 47.6669921875 -156 42.8330078125 -133 52.5 -95 c 0
 62.1669921875 -57 98 41.3330078125 160 200 c 0
 234 391.333007812 281.333007812 513 302 565 c 0
 312.666992188 593.666992188 325.833007812 627.666992188 341.5 667 c 0
 357.166992188 706.333007812 365.333007812 726.666992188 366 728 c 0
EndSplineSet
EndChar

StartChar: uni091A
Encoding: 2330 2330 12
Width: 548
Flags: HW
LayerCount: 2
Fore
SplineSet
246 760 m 0
 250.666666667 768 260 770.666666667 274 768 c 0
 282.666666667 766.666666667 288 762 290 754 c 0
 294 739.333333333 296.666666667 664.666666667 298 530 c 0
 299.333333333 374 303.333333333 293 310 287 c 0
 314 283 320.833333333 286.666666667 330.5 298 c 128
 340.166666667 309.333333333 350.5 325.833333333 361.5 347.5 c 128
 372.5 369.166666667 382 391.666666667 390 415 c 0
 403.333333333 460.333333333 412.666666667 519 418 591 c 0
 423.333333333 649.666666667 429.333333333 690.833333333 436 714.5 c 128
 442.666666667 738.166666667 452 750 464 750 c 256
 476 750 483.166666667 740.666666667 485.5 722 c 128
 487.833333333 703.333333333 486 666 480 610 c 0
 472 519.333333333 462.833333333 454.333333333 452.5 415 c 128
 442.166666667 375.666666667 426 341.666666667 404 313 c 0
 388 292.333333333 380 280 380 276 c 256
 380 272 396.666666667 270 430 270 c 0
 457.333333333 270 475.5 266 484.5 258 c 128
 493.5 250 492.666666667 239.333333333 482 226 c 0
 473.333333333 216.666666667 449.333333333 213.666666667 410 217 c 0
 370 220.333333333 350 220 350 216 c 0
 350 209.333333333 359.333333333 195 378 173 c 0
 390 157.666666667 397.833333333 143 401.5 129 c 128
 405.166666667 115 407.333333333 92 408 60 c 0
 410 18 406.666666667 -16 398 -42 c 128
 389.333333333 -68 372 -97 346 -129 c 0
 326 -152.333333333 306.833333333 -162.666666667 288.5 -160 c 128
 270.166666667 -157.333333333 246.666666667 -141.333333333 218 -112 c 0
 187.333333333 -80 168.166666667 -55 160.5 -37 c 128
 152.833333333 -19 148.666666667 11.6666666667 148 55 c 0
 148 87.6666666667 149.5 110.666666667 152.5 124 c 128
 155.5 137.333333333 162.666666667 152.666666667 174 170 c 0
 191.333333333 197.333333333 200 212.666666667 200 216 c 0
 200 220 178.666666667 220.333333333 136 217 c 0
 111.333333333 214.333333333 93.6666666667 213.666666667 83 215 c 128
 72.3333333333 216.333333333 64.6666666667 219.666666667 60 225 c 0
 55.3333333333 231 53 236 53 240 c 128
 53 244 55.5 249 60.5 255 c 128
 65.5 261 72.3333333333 264.666666667 81 266 c 128
 89.6666666667 267.333333333 103.333333333 266.666666667 122 264 c 0
 151.333333333 260 166.833333333 261.5 168.5 268.5 c 128
 170.166666667 275.5 160 295.333333333 138 328 c 0
 119.333333333 355.333333333 105.333333333 387.166666667 96 423.5 c 128
 86.6666666667 459.833333333 78 515 70 589 c 0
 62.6666666667 666.333333333 59.6666666667 712.5 61 727.5 c 128
 62.3333333333 742.5 70.6666666667 750 86 750 c 0
 100.666666667 750 110.166666667 742.5 114.5 727.5 c 128
 118.833333333 712.5 124 666.333333333 130 589 c 0
 134.666666667 528.333333333 142.333333333 479.333333333 153 442 c 128
 163.666666667 404.666666667 181.333333333 365.333333333 206 324 c 0
 226 288.666666667 240.666666667 276.333333333 250 287 c 0
 254 291 256 299 256 311 c 0
 256 313 253.333333333 390 248 542 c 0
 241.333333333 680 240.666666667 752.666666667 246 760 c 0
330 156 m 0
 317.333333333 181.333333333 303.833333333 197.833333333 289.5 205.5 c 128
 275.166666667 213.166666667 262.666666667 210.333333333 252 197 c 0
 229.333333333 169.666666667 214.166666667 133.833333333 206.5 89.5 c 128
 198.833333333 45.1666666667 201.333333333 7.66666666667 214 -23 c 0
 224 -47 237.833333333 -66.5 255.5 -81.5 c 128
 273.166666667 -96.5 287.333333333 -100.666666667 298 -94 c 0
 326 -76 343.5 -40.3333333333 350.5 13 c 128
 357.5 66.3333333333 350.666666667 114 330 156 c 0
EndSplineSet
EndChar

StartChar: uni091B
Encoding: 2331 2331 13
Width: 548
Flags: HW
LayerCount: 2
Fore
SplineSet
246 760 m 0
 250.666666667 768 260 770.666666667 274 768 c 0
 282.666666667 766.666666667 288 762 290 754 c 0
 294 739.333333333 296.666666667 664.666666667 298 530 c 0
 299.333333333 374 303.333333333 293 310 287 c 0
 314 283 320.833333333 286.666666667 330.5 298 c 128
 340.166666667 309.333333333 350.5 325.833333333 361.5 347.5 c 128
 372.5 369.166666667 382 391.666666667 390 415 c 0
 403.333333333 460.333333333 412.666666667 519 418 591 c 0
 423.333333333 649.666666667 429.333333333 690.833333333 436 714.5 c 128
 442.666666667 738.166666667 452 750 464 750 c 256
 476 750 483.166666667 740.666666667 485.5 722 c 128
 487.833333333 703.333333333 486 666 480 610 c 0
 472 519.333333333 462.833333333 454.333333333 452.5 415 c 128
 442.166666667 375.666666667 426 341.666666667 404 313 c 0
 388 292.333333333 380 280 380 276 c 256
 380 272 396.666666667 270 430 270 c 0
 457.333333333 270 475.5 266 484.5 258 c 128
 493.5 250 492.666666667 239.333333333 482 226 c 0
 473.333333333 216.666666667 449.333333333 213.666666667 410 217 c 0
 370 220.333333333 350 220 350 216 c 0
 350 209.333333333 359.333333333 195 378 173 c 0
 390 157.666666667 397.833333333 143 401.5 129 c 128
 405.166666667 115 407.333333333 92 408 60 c 0
 410 18 406.666666667 -16 398 -42 c 128
 389.333333333 -68 372 -97 346 -129 c 0
 326 -152.333333333 306.833333333 -162.666666667 288.5 -160 c 128
 270.166666667 -157.333333333 246.666666667 -141.333333333 218 -112 c 0
 187.333333333 -80 168.166666667 -55 160.5 -37 c 128
 152.833333333 -19 148.666666667 11.6666666667 148 55 c 0
 148 87.6666666667 149.5 110.666666667 152.5 124 c 128
 155.5 137.333333333 162.666666667 152.666666667 174 170 c 0
 191.333333333 197.333333333 200 212.666666667 200 216 c 0
 200 220 178.666666667 220.333333333 136 217 c 0
 111.333333333 214.333333333 93.6666666667 213.666666667 83 215 c 128
 72.3333333333 216.333333333 64.6666666667 219.666666667 60 225 c 0
 55.3333333333 231 53 236 53 240 c 128
 53 244 55.5 249 60.5 255 c 128
 65.5 261 72.3333333333 264.666666667 81 266 c 128
 89.6666666667 267.333333333 103.333333333 266.666666667 122 264 c 0
 151.333333333 260 166.833333333 261.5 168.5 268.5 c 128
 170.166666667 275.5 160 295.333333333 138 328 c 0
 119.333333333 355.333333333 105.333333333 387.166666667 96 423.5 c 128
 86.6666666667 459.833333333 78 515 70 589 c 0
 62.6666666667 666.333333333 59.6666666667 712.5 61 727.5 c 128
 62.3333333333 742.5 70.6666666667 750 86 750 c 0
 100.666666667 750 110.166666667 742.5 114.5 727.5 c 128
 118.833333333 712.5 124 666.333333333 130 589 c 0
 134.666666667 528.333333333 142.333333333 479.333333333 153 442 c 128
 163.666666667 404.666666667 181.333333333 365.333333333 206 324 c 0
 226 288.666666667 240.666666667 276.333333333 250 287 c 0
 254 291 256 299 256 311 c 0
 256 313 253.333333333 390 248 542 c 0
 241.333333333 680 240.666666667 752.666666667 246 760 c 0
330 156 m 0
 317.333333333 181.333333333 303.833333333 197.833333333 289.5 205.5 c 128
 275.166666667 213.166666667 262.666666667 210.333333333 252 197 c 0
 229.333333333 169.666666667 214.166666667 133.833333333 206.5 89.5 c 128
 198.833333333 45.1666666667 201.333333333 7.66666666667 214 -23 c 0
 224 -47 237.833333333 -66.5 255.5 -81.5 c 128
 273.166666667 -96.5 287.333333333 -100.666666667 298 -94 c 0
 326 -76 343.5 -40.3333333333 350.5 13 c 128
 357.5 66.3333333333 350.666666667 114 330 156 c 0
EndSplineSet
EndChar

StartChar: uni091C
Encoding: 2332 2332 14
Width: 950
VWidth: 2048
Flags: HW
LayerCount: 2
Fore
SplineSet
617 803 m 4
 637 797 643.799804688 785.19921875 637.400390625 767.599609375 c 6
 347.600585938 -164.80078125 l 6
 344 -176.80078125 335.799804688 -180.80078125 323 -176.80078125 c 6
 313.400390625 -173.80078125 l 6
 293.799804688 -167.80078125 287 -156 293 -138.400390625 c 6
 580.400390625 785.599609375 l 6
 585.200195312 801.599609375 597.400390625 807.399414062 617 803 c 4
377 803 m 4
 397 797 403.799804688 785.19921875 397.400390625 767.599609375 c 6
 107.600585938 -164.80078125 l 6
 104 -176.80078125 95.7998046875 -180.80078125 83 -176.80078125 c 6
 73.400390625 -173.80078125 l 6
 53.7998046875 -167.80078125 47 -156 53 -138.400390625 c 6
 340.400390625 785.599609375 l 6
 345.200195312 801.599609375 357.400390625 807.399414062 377 803 c 4
857 803 m 4
 877 797 883.799804688 785.19921875 877.400390625 767.599609375 c 6
 587.600585938 -164.80078125 l 6
 584 -176.80078125 575.799804688 -180.80078125 563 -176.80078125 c 6
 553.400390625 -173.80078125 l 6
 533.799804688 -167.80078125 527 -156 533 -138.400390625 c 6
 820.400390625 785.599609375 l 6
 825.200195312 801.599609375 837.400390625 807.399414062 857 803 c 4
EndSplineSet
EndChar

StartChar: uni091D
Encoding: 2333 2333 15
Width: 738
Flags: HW
LayerCount: 2
Fore
SplineSet
51 763 m 0
 57.6666666667 769.666666667 66.5 770.666666667 77.5 766 c 128
 88.5 761.333333333 106.333333333 749.333333333 131 730 c 0
 169.666666667 698.666666667 207.166666667 651.666666667 243.5 589 c 128
 279.833333333 526.333333333 305.333333333 464 320 402 c 0
 332 351.333333333 336 295.5 332 234.5 c 128
 328 173.5 317.333333333 123.333333333 300 84 c 0
 277.333333333 36 241.333333333 -18.3333333333 192 -79 c 128
 142.666666667 -139.666666667 109.333333333 -170 92 -170 c 0
 53.3333333333 -170 60.6666666667 -141.333333333 114 -84 c 0
 140.666666667 -54 167.666666667 -19.8333333333 195 18.5 c 128
 222.333333333 56.8333333333 243.333333333 90 258 118 c 0
 270.666666667 142.666666667 278.333333333 182.666666667 281 238 c 128
 283.666666667 293.333333333 280 340.666666667 270 380 c 0
 256 434 233.666666667 489.833333333 203 547.5 c 128
 172.333333333 605.166666667 142.333333333 647.333333333 113 674 c 0
 78.3333333333 704.666666667 58.3333333333 720 53 720 c 256
 47.6666666667 720 44.6666666667 726 44 738 c 128
 43.3333333333 750 45.6666666667 758.333333333 51 763 c 0
617 737 m 0
 661.666666667 771.666666667 686.666666667 774 692 744 c 0
 693.333333333 729.333333333 682.333333333 714.666666667 659 700 c 0
 621 676.666666667 585.5 637.833333333 552.5 583.5 c 128
 519.5 529.166666667 494.333333333 469.166666667 477 403.5 c 128
 459.666666667 337.833333333 453.666666667 277.333333333 459 222 c 0
 463 173.333333333 479 124.5 507 75.5 c 128
 535 26.5 580.333333333 -32.6666666667 643 -102 c 0
 669.666666667 -132 677 -152.666666667 665 -164 c 0
 660.333333333 -168 654 -170 646 -170 c 0
 628.666666667 -170 597.166666667 -142 551.5 -86 c 128
 505.833333333 -30 471.333333333 23.3333333333 448 74 c 0
 433.333333333 104.666666667 423.333333333 130.333333333 418 151 c 128
 412.666666667 171.666666667 409 197.333333333 407 228 c 0
 400.333333333 321.333333333 417.166666667 416.666666667 457.5 514 c 128
 497.833333333 611.333333333 551 685.666666667 617 737 c 0
EndSplineSet
EndChar

StartChar: uni091F
Encoding: 2335 2335 16
Width: 779
Flags: HW
LayerCount: 2
Fore
SplineSet
313 497 m 0
 359 509.666666667 410 508.333333333 466 493 c 128
 522 477.666666667 568.333333333 452 605 416 c 0
 626.333333333 394.666666667 646.333333333 368.166666667 665 336.5 c 128
 683.666666667 304.833333333 697.833333333 274.333333333 707.5 245 c 128
 717.166666667 215.666666667 722 189.166666667 722 165.5 c 128
 722 141.833333333 716 126.666666667 704 120 c 0
 672.666666667 104.666666667 654 117.333333333 648 158 c 0
 641.333333333 201.333333333 631.833333333 237.666666667 619.5 267 c 128
 607.166666667 296.333333333 590 323.333333333 568 348 c 0
 485.333333333 439.333333333 395.333333333 462 298 416 c 0
 263.333333333 399.333333333 237.666666667 382 221 364 c 0
 201.666666667 343.333333333 184.166666667 315.666666667 168.5 281 c 128
 152.833333333 246.333333333 143 214.333333333 139 185 c 0
 134.333333333 151 126.666666667 130.333333333 116 123 c 0
 105.333333333 115 97.5 111 92.5 111 c 128
 87.5 111 79.3333333333 115.333333333 68 124 c 0
 59.3333333333 130 54.6666666667 137 54 145 c 128
 53.3333333333 153 56 171.666666667 62 201 c 0
 70 241.666666667 81.1666666667 277 95.5 307 c 128
 109.833333333 337 129.333333333 366 154 394 c 0
 200 446 253 480.333333333 313 497 c 0
EndSplineSet
EndChar

StartChar: uni0920
Encoding: 2336 2336 17
Width: 675
Flags: HW
LayerCount: 2
Fore
SplineSet
268 694 m 0
 298.666992188 717.333007812 319 729 329 729 c 0
 341.666992188 729.666992188 364.5 718.166992188 397.5 694.5 c 128
 430.5 670.833007812 459 645.333007812 483 618 c 0
 495.666992188 604 510.333007812 584.166992188 527 558.5 c 128
 543.666992188 532.833007812 557.333007812 508.666992188 568 486 c 0
 584.666992188 453.333007812 596 426.833007812 602 406.5 c 128
 608 386.166992188 612 359 614 325 c 0
 618 272.333007812 616.333007812 220.666992188 609 170 c 128
 601.666992188 119.333007812 589.333007812 76.3330078125 572 41 c 0
 552 3 518.333007812 -39.6669921875 471 -87 c 0
 428.333007812 -129.666992188 395.166992188 -155.333007812 371.5 -164 c 128
 347.833007812 -172.666992188 322.333007812 -168.333007812 295 -151 c 0
 259 -129 221.5 -92.5 182.5 -41.5 c 128
 143.5 9.5 111.833007812 62.3330078125 87.5 117 c 128
 63.1669921875 171.666992188 52.3330078125 216 55 250 c 0
 60.3330078125 314.666992188 67.6669921875 366.833007812 77 406.5 c 128
 86.3330078125 446.166992188 100.666992188 484.666992188 120 522 c 0
 140 560.666992188 159.666992188 591.166992188 179 613.5 c 128
 198.333007812 635.833007812 228 662.666992188 268 694 c 0
367 646 m 0
 349 655.333007812 336.5 659.333007812 329.5 658 c 128
 322.5 656.666992188 307 647.333007812 283 630 c 0
 235.666992188 594.666992188 199.666992188 552.333007812 175 503 c 128
 150.333007812 453.666992188 131.666992188 386.666992188 119 302 c 0
 113.666992188 267.333007812 114.5 233.666992188 121.5 201 c 128
 128.5 168.333007812 143 129.666992188 165 85 c 0
 179 57.6669921875 206.166992188 21.8330078125 246.5 -22.5 c 128
 286.833007812 -66.8330078125 314.666992188 -91.3330078125 330 -96 c 256
 345.333007812 -100.666992188 368.333007812 -92.5 399 -71.5 c 128
 429.666992188 -50.5 456 -25 478 5 c 0
 507.333007812 43.6669921875 528.5 81.8330078125 541.5 119.5 c 128
 554.5 157.166992188 562.333007812 202.333007812 565 255 c 2
 570 345 l 1
 525 442 l 2
 502.333007812 491.333007812 476.833007812 534.333007812 448.5 571 c 128
 420.166992188 607.666992188 393 632.666992188 367 646 c 0
298 377 m 0
 339.333007812 399.666992188 365.833007812 412.833007812 377.5 416.5 c 128
 389.166992188 420.166992188 398.666992188 417.333007812 406 408 c 0
 412.666992188 399.333007812 426.333007812 370.333007812 447 321 c 128
 467.666992188 271.666992188 478 243.333007812 478 236 c 0
 478 226.666992188 452.833007812 208.166992188 402.5 180.5 c 128
 352.166992188 152.833007812 320.333007812 140 307 142 c 0
 299 143.333007812 291 149.833007812 283 161.5 c 128
 275 173.166992188 264.333007812 194.333007812 251 225 c 0
 229 278.333007812 218.666992188 310 220 320 c 0
 222.666992188 328.666992188 248.666992188 347.666992188 298 377 c 0
405 309 m 0
 393 333 383.5 347.666992188 376.5 353 c 128
 369.5 358.333007812 360.333007812 357.666992188 349 351 c 0
 343 347 343.333007812 335.833007812 350 317.5 c 128
 356.666992188 299.166992188 366.333007812 281.666992188 379 265 c 128
 391.666992188 248.333007812 402 240 410 240 c 0
 424 240 429 247.666992188 425 263 c 0
 422.333007812 273 415.666992188 288.333007812 405 309 c 0
310 303 m 0
 292.666992188 323 281 326.666992188 275 314 c 0
 269 300.666992188 273.333007812 279.333007812 288 250 c 0
 299.333007812 228 310.5 213.333007812 321.5 206 c 128
 332.5 198.666992188 342 199.333007812 350 208 c 0
 355.333007812 213.333007812 353.666992188 226.5 345 247.5 c 128
 336.333007812 268.5 324.666992188 287 310 303 c 0
EndSplineSet
EndChar

StartChar: uni0924
Encoding: 2340 2340 18
Width: 525
VWidth: 2048
Flags: HW
LayerCount: 2
Fore
SplineSet
307.799804688 746.25 m 2
 314.625 746.25 l 1
 324.075195312 744.850585938 328.799804688 740.299804688 328.799804688 732.599609375 c 2
 328.799804688 725.775390625 l 1
 314.625 705.825195312 l 1
 307.799804688 178.200195312 l 2
 307.799804688 169.799804688 365.200195312 81.94921875 480 -85.349609375 c 1
 480 -105.299804688 473.174804688 -118.774414062 459.525390625 -125.775390625 c 1
 452.700195312 -125.775390625 l 1
 444.649414062 -117.025390625 439.575195312 -112.650390625 437.474609375 -112.650390625 c 1
 437.474609375 -121.399414062 432.75 -125.775390625 423.299804688 -125.775390625 c 2
 416.474609375 -125.775390625 l 2
 409.825195312 -125.775390625 403 -119.125 396 -105.825195312 c 1
 396 -94.625 400.549804688 -85.525390625 409.650390625 -78.525390625 c 1
 328.099609375 47.474609375 285.57421875 114.325195312 282.075195312 122.025390625 c 1
 231.674804688 60.0751953125 171.475585938 -27.0751953125 101.474609375 -139.424804688 c 1
 66.8251953125 -146.25 l 1
 60 -132.599609375 l 1
 60 -105.825195312 l 1
 266.849609375 198.674804688 l 1
 266.849609375 725.775390625 l 1
 271.399414062 739.424804688 285.049804688 746.25 307.799804688 746.25 c 2
EndSplineSet
EndChar

StartChar: uni0925
Encoding: 2341 2341 19
Width: 673
Flags: HW
LayerCount: 2
Fore
SplineSet
257 730 m 0
 280.333333333 746.666666667 299.5 756.166666667 314.5 758.5 c 128
 329.5 760.833333333 345.166666667 757 361.5 747 c 128
 377.833333333 737 400.333333333 717.333333333 429 688 c 0
 487.666666667 628 531 565.5 559 500.5 c 128
 587 435.5 604 357.666666667 610 267 c 2
 617 169 l 1
 571 77 l 2
 527 -13 467.333333333 -85.6666666667 392 -141 c 0
 341.333333333 -177.666666667 301.333333333 -178.666666667 272 -144 c 0
 257.333333333 -126 232.333333333 -97.3333333333 197 -58 c 0
 138.333333333 9.33333333333 97.8333333333 83.6666666667 75.5 165 c 128
 53.1666666667 246.333333333 50.6666666667 328.333333333 68 411 c 0
 82 477 105.833333333 538.5 139.5 595.5 c 128
 173.166666667 652.5 212.333333333 697.333333333 257 730 c 0
396 643 m 0
 374.666666667 665.666666667 358.5 680.166666667 347.5 686.5 c 128
 336.5 692.833333333 323.333333333 694.666666667 308 692 c 0
 291.333333333 689.333333333 266.833333333 668.666666667 234.5 630 c 128
 202.166666667 591.333333333 176 551.333333333 156 510 c 0
 139.333333333 474.666666667 129.166666667 447.666666667 125.5 429 c 128
 121.833333333 410.333333333 119 373 117 317 c 0
 115 260.333333333 115.333333333 223.5 118 206.5 c 128
 120.666666667 189.5 129.333333333 165.666666667 144 135 c 0
 161.333333333 97.6666666667 192.333333333 49.5 237 -9.5 c 128
 281.666666667 -68.5 311 -100.333333333 325 -105 c 256
 339 -109.666666667 353.333333333 -107.166666667 368 -97.5 c 128
 382.666666667 -87.8333333333 404.333333333 -67 433 -35 c 0
 509 48.3333333333 549 139 553 237 c 0
 560.333333333 389.666666667 508 525 396 643 c 0
288 448 m 0
 302 463.333333333 315.333333333 470.166666667 328 468.5 c 128
 340.666666667 466.833333333 356 455.666666667 374 435 c 0
 394 412.333333333 409.166666667 383.166666667 419.5 347.5 c 128
 429.833333333 311.833333333 433 279.333333333 429 250 c 0
 419.666666667 182 396.666666667 140.666666667 360 126 c 0
 330.666666667 113.333333333 303 122.666666667 277 154 c 0
 249 188.666666667 235 238 235 302 c 0
 235 339.333333333 238.166666667 366.5 244.5 383.5 c 128
 250.833333333 400.5 265.333333333 422 288 448 c 0
357 360 m 0
 339 396.666666667 322.5 407.833333333 307.5 393.5 c 128
 292.5 379.166666667 285 345.333333333 285 292 c 0
 285 269.333333333 286.666666667 252.166666667 290 240.5 c 128
 293.333333333 228.833333333 299.666666667 217 309 205 c 0
 321 189.666666667 329 181.666666667 333 181 c 128
 337 180.333333333 344 184.666666667 354 194 c 0
 368 206.666666667 375.333333333 231.166666667 376 267.5 c 128
 376.666666667 303.833333333 370.333333333 334.666666667 357 360 c 0
EndSplineSet
EndChar

StartChar: uni0926
Encoding: 2342 2342 20
Width: 399
Flags: HW
VStem: 302.5 50<200.892 371.195>
LayerCount: 2
Fore
SplineSet
167.5 698 m 0
 136.166992188 730.666992188 113.5 749.833007812 99.5 755.5 c 0
 85.5 761.166992188 72.8330078125 757.333007812 61.5 744 c 0
 55.5 736.666992188 53.6669921875 730.5 56 725.5 c 0
 58.3330078125 720.5 67.1669921875 712.333007812 82.5 701 c 0
 137.833007812 659.666992188 184.833007812 604.333007812 223.5 535 c 0
 246.166992188 493.666992188 258.333007812 463.833007812 260 445.5 c 0
 261.666992188 427.166992188 254.166992188 411.333007812 237.5 398 c 0
 199.5 368 181.333007812 329.666992188 183 283 c 0
 184.666992188 236.333007812 205.833007812 197.666992188 246.5 167 c 2
 282.5 139 l 1
 266.5 107 l 2
 256.5 87.6669921875 232.833007812 54.3330078125 195.5 7 c 0
 158.166992188 -40.3330078125 128.166992188 -75 105.5 -97 c 0
 90.8330078125 -111 82.1669921875 -121.166992188 79.5 -127.5 c 0
 76.8330078125 -133.833007812 77.8330078125 -141.333007812 82.5 -150 c 0
 89.8330078125 -164.666992188 98.5 -170.666992188 108.5 -168 c 0
 118.5 -165.333007812 133.5 -153.333007812 153.5 -132 c 0
 225.5 -55.3330078125 276.666992188 14 307 76 c 0
 337.333007812 138 352.5 204.333007812 352.5 275 c 0
 352.5 343 335.166992188 416.666992188 300.5 496 c 0
 265.833007812 575.333007812 221.5 642.666992188 167.5 698 c 0
247.5 340 m 0
 266.833007812 377.333007812 281.833007812 382.333007812 292.5 355 c 0
 299.166992188 336.333007812 302.5 305.666992188 302.5 263 c 0
 302.5 227.666992188 298.666992188 207 291 201 c 0
 283.333007812 195 270.833007812 203.333007812 253.5 226 c 0
 227.5 259.333007812 225.5 297.333007812 247.5 340 c 0
EndSplineSet
EndChar

StartChar: uni0927
Encoding: 2343 2343 21
Width: 623
Flags: HW
LayerCount: 2
Fore
SplineSet
80 679 m 2
 86 763 l 1
 165 756 l 2
 221.666992188 751.333007812 268.5 741 305.5 725 c 128
 342.5 709 380.333007812 683 419 647 c 0
 472.333007812 597.666992188 509.666992188 545.5 531 490.5 c 128
 552.333007812 435.5 563 364.333007812 563 277 c 0
 563 225.666992188 561.5 191.833007812 558.5 175.5 c 128
 555.5 159.166992188 546.666992188 137.333007812 532 110 c 0
 511.333007812 72 478.166992188 31 432.5 -13 c 128
 386.833007812 -57 343.666992188 -89.3330078125 303 -110 c 0
 276.333007812 -124 253.833007812 -133.333007812 235.5 -138 c 128
 217.166992188 -142.666992188 190.666992188 -146 156 -148 c 2
 73 -153 l 1
 73 221 l 2
 73 472.333007812 75.3330078125 625 80 679 c 2
253 679 m 0
 189 699.666992188 151.333007812 704.333007812 140 693 c 0
 135.333007812 687.666992188 133.166992188 556 133.5 298 c 128
 133.833007812 40 136.666992188 -90.6669921875 142 -94 c 0
 151.333007812 -99.3330078125 175 -94.5 213 -79.5 c 128
 251 -64.5 288 -45 324 -21 c 0
 356 0.3330078125 380.166992188 19.1669921875 396.5 35.5 c 128
 412.833007812 51.8330078125 431.666992188 76.6669921875 453 110 c 2
 506 190 l 1
 501 299 l 2
 499 347.666992188 496 381.666992188 492 401 c 128
 488 420.333007812 478.666992188 444.666992188 464 474 c 0
 440.666992188 522 409.666992188 564.833007812 371 602.5 c 128
 332.333007812 640.166992188 293 665.666992188 253 679 c 0
EndSplineSet
EndChar

StartChar: uni0921
Encoding: 2337 2337 22
Width: 399
Flags: HW
VStem: 56 50<200.892 371.195>
LayerCount: 2
Fore
SplineSet
241 698 m 0
 272.333007812 730.666992188 295 749.833007812 309 755.5 c 0
 323 761.166992188 335.666992188 757.333007812 347 744 c 0
 353 736.666992188 354.833007812 730.5 352.5 725.5 c 0
 350.166992188 720.5 341.333007812 712.333007812 326 701 c 0
 270.666992188 659.666992188 223.666992188 604.333007812 185 535 c 0
 162.333007812 493.666992188 150.166992188 463.833007812 148.5 445.5 c 0
 146.833007812 427.166992188 154.333007812 411.333007812 171 398 c 0
 209 368 227.166992188 329.666992188 225.5 283 c 0
 223.833007812 236.333007812 202.666992188 197.666992188 162 167 c 2
 126 139 l 1
 142 107 l 2
 152 87.6669921875 175.666992188 54.3330078125 213 7 c 0
 250.333007812 -40.3330078125 280.333007812 -75 303 -97 c 0
 317.666992188 -111 326.333007812 -121.166992188 329 -127.5 c 0
 331.666992188 -133.833007812 330.666992188 -141.333007812 326 -150 c 0
 318.666992188 -164.666992188 310 -170.666992188 300 -168 c 0
 290 -165.333007812 275 -153.333007812 255 -132 c 0
 183 -55.3330078125 131.833007812 14 101.5 76 c 0
 71.1669921875 138 56 204.333007812 56 275 c 0
 56 343 73.3330078125 416.666992188 108 496 c 0
 142.666992188 575.333007812 187 642.666992188 241 698 c 0
161 340 m 0
 141.666992188 377.333007812 126.666992188 382.333007812 116 355 c 0
 109.333007812 336.333007812 106 305.666992188 106 263 c 0
 106 227.666992188 109.833007812 207 117.5 201 c 0
 125.166992188 195 137.666992188 203.333007812 155 226 c 0
 181 259.333007812 183 297.333007812 161 340 c 0
EndSplineSet
EndChar

StartChar: uni0922
Encoding: 2338 2338 23
Width: 399
Flags: W
VStem: 56 50<200.892 371.195>
LayerCount: 2
Fore
SplineSet
241 698 m 0
 272.333007812 730.666992188 295 749.833007812 309 755.5 c 0
 323 761.166992188 335.666992188 757.333007812 347 744 c 0
 353 736.666992188 354.833007812 730.5 352.5 725.5 c 0
 350.166992188 720.5 341.333007812 712.333007812 326 701 c 0
 270.666992188 659.666992188 223.666992188 604.333007812 185 535 c 0
 162.333007812 493.666992188 150.166992188 463.833007812 148.5 445.5 c 0
 146.833007812 427.166992188 154.333007812 411.333007812 171 398 c 0
 209 368 227.166992188 329.666992188 225.5 283 c 0
 223.833007812 236.333007812 202.666992188 197.666992188 162 167 c 2
 126 139 l 1
 142 107 l 2
 152 87.6669921875 175.666992188 54.3330078125 213 7 c 0
 250.333007812 -40.3330078125 280.333007812 -75 303 -97 c 0
 317.666992188 -111 326.333007812 -121.166992188 329 -127.5 c 0
 331.666992188 -133.833007812 330.666992188 -141.333007812 326 -150 c 0
 318.666992188 -164.666992188 310 -170.666992188 300 -168 c 0
 290 -165.333007812 275 -153.333007812 255 -132 c 0
 183 -55.3330078125 131.833007812 14 101.5 76 c 0
 71.1669921875 138 56 204.333007812 56 275 c 0
 56 343 73.3330078125 416.666992188 108 496 c 0
 142.666992188 575.333007812 187 642.666992188 241 698 c 0
161 340 m 0
 141.666992188 377.333007812 126.666992188 382.333007812 116 355 c 0
 109.333007812 336.333007812 106 305.666992188 106 263 c 0
 106 227.666992188 109.833007812 207 117.5 201 c 0
 125.166992188 195 137.666992188 203.333007812 155 226 c 0
 181 259.333007812 183 297.333007812 161 340 c 0
EndSplineSet
EndChar

StartChar: uni0928
Encoding: 2344 2344 24
Width: 815
Flags: HW
LayerCount: 2
Fore
SplineSet
278 763 m 0
 282 767.666666667 312.833333333 769.833333333 370.5 769.5 c 128
 428.166666667 769.166666667 470 766.666666667 496 762 c 2
 536 755 l 1
 541 405 l 1
 546 55 l 1
 654 52 l 1
 761 49 l 1
 761 -54 l 1
 761 -157 l 1
 664 -163 l 2
 600.666666667 -167.666666667 514.666666667 -170 406 -170 c 128
 297.333333333 -170 211.333333333 -167.666666667 148 -163 c 2
 50 -157 l 1
 53 -56 l 1
 56 45 l 1
 157 48 l 1
 258 51 l 1
 265 88 l 2
 269 114.666666667 271 232.333333333 271 441 c 0
 271 652.333333333 273.333333333 759.666666667 278 763 c 0
484 653 m 2
 478 720 l 1
 406 720 l 2
 357.333333333 720 331.333333333 717.666666667 328 713 c 0
 323.333333333 709.666666667 321 600 321 384 c 2
 321 60 l 1
 344 55 l 2
 358.666666667 50.3333333333 384.666666667 49.3333333333 422 52 c 2
 476 55 l 1
 483 100 l 2
 487.666666667 129.333333333 490.166666667 217.833333333 490.5 365.5 c 128
 490.833333333 513.166666667 488.666666667 609 484 653 c 2
266 -55 m 1
 266 5 l 1
 211 6 l 2
 179 7.33333333333 151.666666667 6.33333333333 129 3 c 0
 115.666666667 1 107.666666667 -2.83333333333 105 -8.5 c 128
 102.333333333 -14.1666666667 101 -29.6666666667 101 -55 c 0
 101 -87 106.166666667 -106.166666667 116.5 -112.5 c 128
 126.833333333 -118.833333333 156.666666667 -120.666666667 206 -118 c 2
 266 -115 l 1
 266 -55 l 1
486 -55 m 1
 486 5 l 1
 411 8 l 2
 359.666666667 9.33333333333 332 8 328 4 c 0
 323.333333333 -0.666666666667 321 -20.6666666667 321 -56 c 0
 321 -87.3333333333 326.333333333 -106.166666667 337 -112.5 c 128
 347.666666667 -118.833333333 377.333333333 -120.666666667 426 -118 c 2
 486 -115 l 1
 486 -55 l 1
665 4 m 2
 593 13.3333333333 553 11.3333333333 545 -2 c 0
 539 -11.3333333333 537 -30.6666666667 539 -60 c 128
 541 -89.3333333333 545.666666667 -106.333333333 553 -111 c 0
 561 -117 588.666666667 -119.333333333 636 -118 c 2
 706 -115 l 1
 709 -59 l 1
 712 -3 l 1
 665 4 l 2
EndSplineSet
EndChar

StartChar: uni092A
Encoding: 2346 2346 25
Width: 491
Flags: HW
HStem: 705 55<136.214 363.813>
VStem: 369 52<65.4734 503.508> 76 338<308.078 756.188> 76 60<440 705> 76 50<175 625.5>
LayerCount: 2
Fore
SplineSet
414 753 m 0xa0
 410.666992188 757.666992188 354.333007812 760 245 760 c 0
 164.333007812 760 116.666992188 759 102 757 c 0
 87.3330078125 755 78.6669921875 748.666992188 76 738 c 0xa0
 72.6669921875 724 71.6669921875 626.333007812 73 445 c 2
 76 175 l 1
 101 175 l 1
 126 175 l 1x88
 131 440 l 1
 136 705 l 1
 251 705 l 1
 366 705 l 1
 369 281 l 2
 370.333007812 -1.6669921875 374.666992188 -147.333007812 382 -156 c 0
 389.333007812 -164 397.666992188 -166.333007812 407 -163 c 0
 413 -161 416.833007812 -132.333007812 418.5 -77 c 0
 420.166992188 -21.6669921875 421 102 421 294 c 0xd0
 421 596.666992188 418.666992188 749.666992188 414 753 c 0xa0
EndSplineSet
EndChar

StartChar: uni092B
Encoding: 2347 2347 26
Width: 491
Flags: W
HStem: 705 55<136.214 363.813>
VStem: 369 52<65.4734 503.508> 76 338<308.078 756.188> 76 60<440 705> 76 50<175 625.5>
LayerCount: 2
Fore
SplineSet
414 753 m 0xa0
 410.666992188 757.666992188 354.333007812 760 245 760 c 0
 164.333007812 760 116.666992188 759 102 757 c 0
 87.3330078125 755 78.6669921875 748.666992188 76 738 c 0xa0
 72.6669921875 724 71.6669921875 626.333007812 73 445 c 2
 76 175 l 1
 101 175 l 1
 126 175 l 1x88
 131 440 l 1
 136 705 l 1
 251 705 l 1
 366 705 l 1
 369 281 l 2
 370.333007812 -1.6669921875 374.666992188 -147.333007812 382 -156 c 0
 389.333007812 -164 397.666992188 -166.333007812 407 -163 c 0
 413 -161 416.833007812 -132.333007812 418.5 -77 c 0
 420.166992188 -21.6669921875 421 102 421 294 c 0xd0
 421 596.666992188 418.666992188 749.666992188 414 753 c 0xa0
EndSplineSet
EndChar

StartChar: uni092C
Encoding: 2348 2348 27
Width: 1069
Flags: HW
LayerCount: 2
Fore
SplineSet
76 728 m 2
 82 760 l 1
 536 760 l 1
 991 760 l 1
 993 538 l 2
 995.666666667 389.333333333 995.666666667 235.666666667 993 77 c 2
 990 -160 l 1
 533 -158 l 1
 76 -155 l 1
 73 270 l 2
 72.3333333333 556 73.3333333333 708.666666667 76 728 c 2
929 683 m 0
 925.666666667 691 904.166666667 695.833333333 864.5 697.5 c 128
 824.833333333 699.166666667 714.333333333 700 533 700 c 0
 273.666666667 700 142 697.666666667 138 693 c 0
 133.333333333 689.666666667 131 558.333333333 131 299 c 2
 131 -88 l 1
 264 -95 l 2
 348 -99.6666666667 478.333333333 -100.833333333 655 -98.5 c 128
 831.666666667 -96.1666666667 922.666666667 -92.3333333333 928 -87 c 0
 933.333333333 -82.3333333333 936 44 936 292 c 128
 936 540 933.666666667 670.333333333 929 683 c 0
EndSplineSet
EndChar

StartChar: uni092D
Encoding: 2349 2349 28
Width: 870
Flags: HW
LayerCount: 2
Fore
SplineSet
335 745 m 0
 346.333333333 751 356 750.666666667 364 744 c 0
 367.333333333 741.333333333 369.333333333 736.666666667 370 730 c 128
 370.666666667 723.333333333 371 702.333333333 371 667 c 0
 369.666666667 625 369.666666667 602.333333333 371 599 c 256
 372.333333333 595.666666667 387.666666667 593.666666667 417 593 c 128
 446.333333333 592.333333333 462.666666667 593.333333333 466 596 c 0
 468.666666667 597.333333333 470 616.333333333 470 653 c 128
 470 689.666666667 468.666666667 713 466 723 c 0
 464 732.333333333 464.666666667 739 468 743 c 128
 471.333333333 747 478 749 488 749 c 0
 498.666666667 747.666666667 504.833333333 744.166666667 506.5 738.5 c 128
 508.166666667 732.833333333 509 709.666666667 509 669 c 0
 509 659 509 659 509 646 c 128
 509 637.333333333 508.666666667 631 508 627 c 0
 509.333333333 615 511.666666667 605.333333333 515 598 c 0
 517.666666667 595.333333333 519.666666667 594 521 594 c 0
 570 594 570 594 619 594 c 0
 653 595.333333333 672.833333333 594.5 678.5 591.5 c 128
 684.166666667 588.5 687 578 687 560 c 0
 687 552 687 552 687 546 c 0
 687 520 688.333333333 504.333333333 691 499 c 0
 691.666666667 493 692 434 692 322 c 0
 692 211.333333333 692.833333333 155 694.5 153 c 128
 696.166666667 151 713 150 745 150 c 0
 775.666666667 151.333333333 794.166666667 150.666666667 800.5 148 c 128
 806.833333333 145.333333333 809.333333333 137 808 123 c 0
 806.666666667 114.333333333 803.833333333 109 799.5 107 c 128
 795.166666667 105 777.666666667 104 747 104 c 256
 716.333333333 104 699 103 695 101 c 128
 691 99 689.666666667 87 691 65 c 0
 691 48.3333333333 692.833333333 39.1666666667 696.5 37.5 c 128
 700.166666667 35.8333333333 717 35 747 35 c 0
 777.666666667 35 795.166666667 34.1666666667 799.5 32.5 c 128
 803.833333333 30.8333333333 806.666666667 24.6666666667 808 14 c 0
 808 2 805.5 -5.16666666667 800.5 -7.5 c 128
 795.5 -9.83333333333 773.666666667 -11 735 -11 c 0
 683.666666667 -11 657 -8.66666666667 655 -4 c 0
 652.333333333 -2 651 89.6666666667 651 271 c 256
 651 452.333333333 650 543.666666667 648 545 c 0
 644.666666667 547 567.833333333 548 417.5 548 c 128
 267.166666667 548 190.333333333 547 187 545 c 0
 186.333333333 543.666666667 185.333333333 452.333333333 184 271 c 0
 184 230 184 230 184 166 c 0
 184 75.3333333333 182 22.6666666667 178 8 c 128
 174 -6.66666666667 160 -13 136 -11 c 0
 121 -11 121 -11 109 -11 c 0
 70.3333333333 -11 48.5 -10.1666666667 43.5 -8.5 c 128
 38.5 -6.83333333333 36 -0.666666666667 36 10 c 128
 36 20.6666666667 38.3333333333 26.8333333333 43 28.5 c 128
 47.6666666667 30.1666666667 64 31 92 31 c 0
 120.666666667 31 136.666666667 31.8333333333 140 33.5 c 128
 143.333333333 35.1666666667 145 44.8333333333 145 62.5 c 128
 145 80.1666666667 143.5 89.8333333333 140.5 91.5 c 128
 137.5 93.1666666667 121.333333333 93.6666666667 92 93 c 0
 64 93 48 93.8333333333 44 95.5 c 128
 40 97.1666666667 37.6666666667 103.833333333 37 115.5 c 128
 36.3333333333 127.166666667 38 133.833333333 42 135.5 c 128
 46 137.166666667 62.6666666667 138 92 138 c 0
 122.666666667 138 139 139.333333333 141 142 c 0
 142.333333333 143.333333333 143 217.666666667 143 365 c 0
 143 399 143 399 143 453 c 0
 143 525.666666667 145.333333333 568 150 580 c 128
 154.666666667 592 172.333333333 596.666666667 203 594 c 0
 225 594 225 594 240 594 c 0
 296.666666667 594 326 594.666666667 328 596 c 0
 330.666666667 598 331.666666667 617.5 331 654.5 c 128
 330.333333333 691.5 329.333333333 715 328 725 c 0
 326 736.333333333 328.333333333 743 335 745 c 0
396 184 m 0
 403.333333333 191.333333333 409.5 192.333333333 414.5 187 c 128
 419.5 181.666666667 430 165.333333333 446 138 c 0
 462.666666667 111.333333333 476.666666667 88.6666666667 488 70 c 0
 507.333333333 38.6666666667 518.166666667 20.1666666667 520.5 14.5 c 128
 522.833333333 8.83333333333 521.666666667 3.66666666667 517 -1 c 0
 512.333333333 -6.33333333333 506.666666667 -8.66666666667 500 -8 c 0
 494.666666667 -6.66666666667 484 7.66666666667 468 35 c 0
 442 80.3333333333 426.666666667 103 422 103 c 1
 420 99.6666666667 420 51 422 -43 c 0
 423.333333333 -97.6666666667 423.166666667 -129.166666667 421.5 -137.5 c 128
 419.833333333 -145.833333333 413.333333333 -149.666666667 402 -149 c 0
 400 -149 400 -149 398 -149 c 0
 391.333333333 -147.666666667 387.5 -143 386.5 -135 c 128
 385.5 -127 385 -100 385 -54 c 0
 385 -52 385 -52 385 -52 c 2
 387 42 386.333333333 89 383 89 c 0
 380.333333333 89 371.666666667 77.3333333333 357 54 c 0
 342.333333333 27.3333333333 333.333333333 11.8333333333 330 7.5 c 128
 326.666666667 3.16666666667 322.333333333 1 317 1 c 0
 298.333333333 1 295.333333333 12.3333333333 308 35 c 0
 311.333333333 41.6666666667 316 49.6666666667 322 59 c 0
 359.333333333 119.666666667 380.333333333 155.333333333 385 166 c 0
 389 174.666666667 392.666666667 180.666666667 396 184 c 0
EndSplineSet
EndChar

StartChar: uni092E
Encoding: 2350 2350 29
Width: 484
Flags: W
VStem: 47 37<84.2855 127.635> 150.5 64.5<-163.169 -56.2866> 269 72<-161.999 -79.1625>
LayerCount: 2
Fore
SplineSet
207 754 m 0
 234.333333333 773.333333333 262.333333333 767.833333333 291 737.5 c 0
 319.666666667 707.166666667 346 655 370 581 c 0
 377.333333333 559 381.666666667 536.666666667 383 514 c 0
 384.333333333 491.333333333 383.333333333 452 380 396 c 2
 373 265 l 1
 404 200 l 2
 435.333333333 134 442 95.3333333333 424 84 c 0
 416 78.6666666667 407 82.5 397 95.5 c 0
 387 108.5 375.666666667 131.333333333 363 164 c 0
 357 180 350.5 194.166666667 343.5 206.5 c 0
 336.5 218.833333333 331.333333333 225.666666667 328 227 c 0
 320.666666667 229.666666667 310 211.833333333 296 173.5 c 0
 282 135.166666667 275 104 275 80 c 0
 275 54.6666666667 285.333333333 14 306 -42 c 0
 306.666666667 -43.3333333333 307.666666667 -45.6666666667 309 -49 c 0
 328.333333333 -103 339 -134.833333333 341 -144.5 c 0
 343 -154.166666667 339.666666667 -160.333333333 331 -163 c 0
 330.333333333 -163.666666667 329.666666667 -164 329 -164 c 0
 295.666666667 -176.666666667 275.666666667 -159.333333333 269 -112 c 0
 263.666666667 -78.6666666667 258 -54.6666666667 252 -40 c 2
 243 -15 l 1
 229 -45 l 2
 221 -63 216.333333333 -82.3333333333 215 -103 c 0
 215 -122.333333333 211.166666667 -138.333333333 203.5 -151 c 0
 195.833333333 -163.666666667 186 -170 174 -170 c 0
 165.333333333 -170 159.166666667 -168.333333333 155.5 -165 c 0
 151.833333333 -161.666666667 150.166666667 -154.666666667 150.5 -144 c 0
 150.833333333 -133.333333333 153.333333333 -119.5 158 -102.5 c 0
 162.666666667 -85.5 170 -62.3333333333 180 -33 c 0
 204.666666667 40.3333333333 215 85.6666666667 211 103 c 0
 206.333333333 126.333333333 196.666666667 153.333333333 182 184 c 0
 167.333333333 214.666666667 157 229 151 227 c 0
 143.666666667 224.333333333 132.666666667 203.666666667 118 165 c 0
 105.333333333 132.333333333 94 109.333333333 84 96 c 0
 74 82.6666666667 64.6666666667 78.6666666667 56 84 c 0
 46.6666666667 90 43.6666666667 101.833333333 47 119.5 c 0
 50.3333333333 137.166666667 61 166.333333333 79 207 c 2
 113 285 l 1
 102 397 l 2
 97.3333333333 447 95.3333333333 481.333333333 96 500 c 0
 96.6666666667 518.666666667 101 541 109 567 c 0
 122.333333333 608.333333333 138.666666667 647.666666667 158 685 c 0
 177.333333333 722.333333333 193.666666667 745.333333333 207 754 c 0
281 654 m 0
 274.333333333 669.333333333 267.166666667 682.5 259.5 693.5 c 0
 251.833333333 704.5 246.333333333 710 243 710 c 0
 224.333333333 710 201.666666667 668.666666667 175 586 c 0
 158.333333333 536 151.666666667 482 155 424 c 0
 158.333333333 366 171.333333333 310.666666667 194 258 c 0
 216 205.333333333 230 177.333333333 236 174 c 0
 240 172 245.333333333 175.666666667 252 185 c 0
 258.666666667 194.333333333 265.833333333 207.666666667 273.5 225 c 0
 281.166666667 242.333333333 288.666666667 261 296 281 c 0
 303.333333333 301 309.833333333 321.833333333 315.5 343.5 c 0
 321.166666667 365.166666667 325 384.333333333 327 401 c 0
 333 445.666666667 332.833333333 485.5 326.5 520.5 c 0
 320.166666667 555.5 305 600 281 654 c 0
EndSplineSet
Validated: 33
EndChar

StartChar: uni092F
Encoding: 2351 2351 30
Width: 589
Flags: HW
LayerCount: 2
Fore
SplineSet
50 745 m 0
 60 756.333333333 68.1666666667 760.666666667 74.5 758 c 128
 80.8333333333 755.333333333 88.3333333333 744.333333333 97 725 c 0
 104.333333333 710.333333333 110.333333333 700.666666667 115 696 c 128
 119.666666667 691.333333333 124.166666667 690.666666667 128.5 694 c 128
 132.833333333 697.333333333 137.666666667 705.333333333 143 718 c 0
 157 749.333333333 170 761.333333333 182 754 c 0
 189.333333333 749.333333333 192 738 190 720 c 128
 188 702 181.666666667 681.666666667 171 659 c 0
 161.666666667 637 156.5 609.666666667 155.5 577 c 128
 154.5 544.333333333 156.333333333 453.666666667 161 305 c 0
 167 102.333333333 172.666666667 -16 178 -50 c 2
 185 -95 l 1
 233 -98 l 2
 251.666666667 -99.3333333333 264.666666667 -99 272 -97 c 128
 279.333333333 -95 284 -91 286 -85 c 0
 290.666666667 -75.6666666667 289.666666667 48.6666666667 283 288 c 2
 273 646 l 1
 245 688 l 2
 236.333333333 702 230.333333333 714.5 227 725.5 c 128
 223.666666667 736.5 223.5 745 226.5 751 c 128
 229.5 757 235.333333333 760 244 760 c 0
 254.666666667 760 265 750 275 730 c 0
 286.333333333 710 293.333333333 700 296 700 c 0
 300.666666667 700 310.333333333 709.333333333 325 728 c 0
 341.666666667 746 353.333333333 751.333333333 360 744 c 0
 364.666666667 739.333333333 366.333333333 732.666666667 365 724 c 128
 363.666666667 715.333333333 358.666666667 701.333333333 350 682 c 0
 339.333333333 657.333333333 333.5 627.666666667 332.5 593 c 128
 331.5 558.333333333 333.666666667 452.333333333 339 275 c 0
 346.333333333 37.6666666667 351.666666667 -84.3333333333 355 -91 c 0
 359 -96.3333333333 375.666666667 -99.1666666667 405 -99.5 c 128
 434.333333333 -99.8333333333 450.333333333 -97.3333333333 453 -92 c 0
 456.333333333 -88 453.666666667 35 445 277 c 0
 439 458.333333333 434.333333333 565.833333333 431 599.5 c 128
 427.666666667 633.166666667 419.333333333 661.333333333 406 684 c 0
 398 698 392.166666667 709.166666667 388.5 717.5 c 128
 384.833333333 725.833333333 382.833333333 732.5 382.5 737.5 c 128
 382.166666667 742.5 383.666666667 745.833333333 387 747.5 c 128
 390.333333333 749.166666667 395.666666667 750 403 750 c 0
 418.333333333 750 432 738 444 714 c 0
 451.333333333 699.333333333 456.666666667 690.5 460 687.5 c 128
 463.333333333 684.5 466.833333333 685.166666667 470.5 689.5 c 128
 474.166666667 693.833333333 480 704.666666667 488 722 c 0
 500 745.333333333 512.333333333 756.333333333 525 755 c 0
 532.333333333 753.666666667 536.666666667 747.666666667 538 737 c 0
 540.666666667 726.333333333 533.333333333 705 516 673 c 2
 490 627 l 1
 502 255 l 2
 509.333333333 5.66666666667 511 -123.666666667 507 -133 c 0
 504.333333333 -140.333333333 492.333333333 -145 471 -147 c 128
 449.666666667 -149 398 -150 316 -150 c 0
 224 -150 169.833333333 -149 153.5 -147 c 128
 137.166666667 -145 127.666666667 -138.666666667 125 -128 c 0
 121 -109.333333333 114.666666667 21.6666666667 106 265 c 2
 92 635 l 1
 65 683 l 2
 54.3333333333 702.333333333 48 716 46 724 c 128
 44 732 45.3333333333 739 50 745 c 0
EndSplineSet
EndChar

StartChar: uni0930
Encoding: 2352 2352 31
Width: 350
VWidth: 2048
Flags: HW
LayerCount: 2
Fore
SplineSet
288.400390625 759 m 0
 302.439453125 759 309.639648438 753.419921875 310 742.260742188 c 2
 310 632.099609375 l 1
 306.040039062 530.939453125 264.280273438 470.459960938 184.719726562 450.66015625 c 1
 184.719726562 -146.580078125 l 2
 185.439453125 -154.860351562 176.799804688 -159 158.799804688 -159 c 0
 140.439453125 -159 131.260742188 -154.139648438 131.260742188 -144.419921875 c 2
 131.260742188 457.6796875 l 1
 70.060546875 479.280273438 39.6396484375 539.040039062 40 636.959960938 c 2
 40 736.860351562 l 2
 40.3603515625 746.939453125 47.7392578125 751.620117188 62.1396484375 750.900390625 c 0
 77.2607421875 750.1796875 84.4599609375 745.5 83.7392578125 736.860351562 c 2
 82.1201171875 634.799804688 l 2
 82.1201171875 551.639648438 109.48046875 507.360351562 164.200195312 501.959960938 c 1
 171.219726562 501.959960938 l 1
 228.8203125 512.400390625 260.5 556.5 266.260742188 634.260742188 c 1
 266.260742188 747.66015625 l 2
 266.260742188 754.860351562 273.639648438 758.639648438 288.400390625 759 c 0
EndSplineSet
EndChar

StartChar: uni0932
Encoding: 2354 2354 32
Width: 947
Flags: HW
LayerCount: 2
Fore
SplineSet
419 738 m 0
 429 753.333333333 446.333333333 761 471 761 c 128
 495.666666667 761 515.666666667 753 531 737 c 0
 553.666666667 712.333333333 599.666666667 516.666666667 669 150 c 0
 686.333333333 56.6666666667 699 -3.33333333333 707 -30 c 128
 715 -56.6666666667 724 -70 734 -70 c 0
 749.333333333 -70 763 -18 775 86 c 128
 787 190 798.333333333 353 809 575 c 0
 813.666666667 662.333333333 819 710 825 718 c 0
 831 725.333333333 841.833333333 729.166666667 857.5 729.5 c 128
 873.166666667 729.833333333 883.333333333 726.666666667 888 720 c 0
 892 712.666666667 884.5 591.666666667 865.5 357 c 128
 846.5 122.333333333 833.333333333 -9.33333333333 826 -38 c 0
 816 -74 800.333333333 -103.833333333 779 -127.5 c 128
 757.666666667 -151.166666667 738 -160.666666667 720 -156 c 0
 706 -152.666666667 694.5 -145.833333333 685.5 -135.5 c 128
 676.5 -125.166666667 666.833333333 -106 656.5 -78 c 128
 646.166666667 -50 636 -14.6666666667 626 28 c 128
 616 70.6666666667 603.333333333 130 588 206 c 0
 548 410 524.666666667 531.333333333 518 570 c 0
 504.666666667 643.333333333 493.333333333 680.333333333 484 681 c 0
 478 681.666666667 471.666666667 672.333333333 465 653 c 0
 457.666666667 629.666666667 447.333333333 585.333333333 434 520 c 0
 419.333333333 446.666666667 392.333333333 325 353 155 c 0
 331 64.3333333333 313 -2.5 299 -45.5 c 128
 285 -88.5 270.833333333 -118.333333333 256.5 -135 c 128
 242.166666667 -151.666666667 224.333333333 -160 203 -160 c 0
 177.666666667 -160 156.333333333 -145.666666667 139 -117 c 128
 121.666666667 -88.3333333333 113 -53.3333333333 113 -12 c 0
 113 24.6666666667 109.666666667 72 103 130 c 0
 90.3333333333 252 78.6666666667 381.5 68 518.5 c 128
 57.3333333333 655.5 53.3333333333 727.333333333 56 734 c 0
 60 743.333333333 68.3333333333 748.5 81 749.5 c 128
 93.6666666667 750.5 103.333333333 746.666666667 110 738 c 0
 116 730.666666667 121.666666667 693 127 625 c 0
 133.666666667 533.666666667 142.333333333 437 153 335 c 0
 165.666666667 199 174.333333333 98 179 32 c 0
 183.666666667 -43.3333333333 189.333333333 -83 196 -87 c 0
 201.333333333 -90.3333333333 207.666666667 -88.3333333333 215 -81 c 128
 222.333333333 -73.6666666667 229 -62.3333333333 235 -47 c 128
 241 -31.6666666667 245.333333333 -15.3333333333 248 2 c 0
 251.333333333 38.6666666667 258 73 268 105 c 0
 280.666666667 154.333333333 302.666666667 257.666666667 334 415 c 0
 346.666666667 485 361.666666667 552.833333333 379 618.5 c 128
 396.333333333 684.166666667 409.666666667 724 419 738 c 0
EndSplineSet
EndChar

StartChar: uni0935
Encoding: 2357 2357 33
Width: 662
Flags: HW
LayerCount: 2
Fore
SplineSet
290 763 m 0
 293.333333333 767.666666667 301.333333333 770 314 770 c 128
 326.666666667 770 334.666666667 752.833333333 338 718.5 c 128
 341.333333333 684.166666667 342.333333333 614.666666667 341 510 c 2
 338 335 l 1
 460 330 l 2
 540.666666667 326.666666667 583.333333333 322.666666667 588 318 c 0
 592 314.666666667 594.666666667 234.666666667 596 78 c 2
 598 -155 l 1
 514 -164 l 2
 452.666666667 -169.333333333 363.333333333 -169.666666667 246 -165 c 2
 63 -158 l 1
 63 70 l 2
 63 168 64 231.5 66 260.5 c 128
 68 289.5 72.3333333333 307.333333333 79 314 c 0
 89.6666666667 324.666666667 126.333333333 330 189 330 c 2
 283 330 l 1
 283 543 l 2
 283 686.333333333 285.333333333 759.666666667 290 763 c 0
541 72 m 1
 538 265 l 1
 333 267 l 2
 195.666666667 269.666666667 123.666666667 268 117 262 c 0
 111 257.333333333 109.333333333 193.333333333 112 70 c 2
 118 -115 l 1
 331 -118 l 1
 543 -120 l 1
 541 72 l 1
EndSplineSet
EndChar

StartChar: uni0936
Encoding: 2358 2358 34
Width: 597
Flags: HW
LayerCount: 2
Fore
SplineSet
286 747 m 0
 298 760.333333333 309 765.333333333 319 762 c 128
 329 758.666666667 339.333333333 746.666666667 350 726 c 0
 359.333333333 708.666666667 384.666666667 670.166666667 426 610.5 c 128
 467.333333333 550.833333333 499.666666667 506.666666667 523 478 c 0
 535.666666667 462.666666667 544 451 548 443 c 128
 552 435 552.666666667 429 550 425 c 128
 547.333333333 421 540.666666667 417.666666667 530 415 c 0
 507.333333333 409 487.166666667 413 469.5 427 c 128
 451.833333333 441 429.333333333 470 402 514 c 0
 367.333333333 571.333333333 347.666666667 600 343 600 c 0
 337.666666667 600 335.666666667 472.666666667 337 218 c 2
 338 -165 l 1
 308 -165 l 2
 293.333333333 -165 284.5 -162.166666667 281.5 -156.5 c 128
 278.5 -150.833333333 275.666666667 -132 273 -100 c 0
 269.666666667 -57.3333333333 269.666666667 67.6666666667 273 275 c 0
 277 483 276 589.666666667 270 595 c 0
 268.666666667 597 267.166666667 598.166666667 265.5 598.5 c 128
 263.833333333 598.833333333 261.5 598.166666667 258.5 596.5 c 128
 255.5 594.833333333 252.333333333 592 249 588 c 128
 245.666666667 584 241 578.166666667 235 570.5 c 128
 229 562.833333333 222.333333333 553.833333333 215 543.5 c 128
 207.666666667 533.166666667 198.666666667 520.333333333 188 505 c 0
 158 461.666666667 137 434.833333333 125 424.5 c 128
 113 414.166666667 98 410 80 412 c 0
 58.6666666667 414 47 420.666666667 45 432 c 0
 44.3333333333 436.666666667 52 450.5 68 473.5 c 128
 84 496.5 104.666666667 522.666666667 130 552 c 0
 184 613.333333333 221.333333333 659.333333333 242 690 c 0
 264.666666667 720.666666667 279.333333333 739.666666667 286 747 c 0
EndSplineSet
EndChar

StartChar: uni0937
Encoding: 2359 2359 35
Width: 676
Flags: HW
LayerCount: 2
Fore
SplineSet
370 723 m 0
 365.333007812 727.666992188 349.833007812 729.666992188 323.5 729 c 128
 297.166992188 728.333007812 268.333007812 725.333007812 237 720 c 0
 179 709.333007812 135.5 682 106.5 638 c 128
 77.5 594 57.6669921875 526 47 434 c 0
 40.3330078125 368.666992188 39.6669921875 316.333007812 45 277 c 128
 50.3330078125 237.666992188 64 195.333007812 86 150 c 0
 108 106.666992188 138.666992188 52.8330078125 178 -11.5 c 128
 217.333007812 -75.8330078125 245.333007812 -118 262 -138 c 0
 274 -151.333007812 281.833007812 -158.333007812 285.5 -159 c 128
 289.166992188 -159.666992188 295.333007812 -155 304 -145 c 0
 316 -133 335 -88 361 -10 c 0
 389 68.6669921875 406.666992188 112 414 120 c 0
 420.666992188 126.666992188 425.5 129.833007812 428.5 129.5 c 128
 431.5 129.166992188 436 124.666992188 442 116 c 0
 450.666992188 104.666992188 465.666992188 68 487 6 c 0
 510.333007812 -61.3330078125 527.666992188 -105 539 -125 c 128
 550.333007812 -145 564 -156 580 -158 c 0
 600 -160.666992188 611 -155.666992188 613 -143 c 128
 615 -130.333007812 608.333007812 -107 593 -73 c 0
 589 -63.6669921875 583.666992188 -50.8330078125 577 -34.5 c 128
 570.333007812 -18.1669921875 562.333007812 0.5 553 21.5 c 128
 543.666992188 42.5 536.666992188 58.6669921875 532 70 c 0
 508 127.333007812 489.333007812 166 476 186 c 0
 463.333007812 207.333007812 457 223 457 233 c 0
 457 243.666992188 451.666992188 254 441 264 c 128
 430.333007812 274 421 277.333007812 413 274 c 0
 404.333007812 270.666992188 382.666992188 225 348 137 c 0
 314.666992188 49 294.666992188 0 288 -10 c 0
 272.666992188 -38 252.333007812 -26.3330078125 227 25 c 0
 212.333007812 54.3330078125 190.333007812 94.3330078125 161 145 c 0
 137.666992188 185 120.833007812 226.666992188 110.5 270 c 128
 100.166992188 313.333007812 97.3330078125 353.666992188 102 391 c 0
 105.333007812 417.666992188 110.666992188 435.166992188 118 443.5 c 128
 125.333007812 451.833007812 142 460.666992188 168 470 c 0
 198.666992188 480.666992188 229.5 499 260.5 525 c 128
 291.5 551 317.333007812 580 338 612 c 0
 376 670.666992188 386.666992188 707.666992188 370 723 c 0
218 652 m 0
 239.333007812 662.666992188 254.666992188 668.166992188 264 668.5 c 128
 273.333007812 668.833007812 280 664 284 654 c 0
 288 643.333007812 282.5 628.666992188 267.5 610 c 128
 252.5 591.333007812 231 572.333007812 203 553 c 0
 155 519.666992188 127.666992188 511 121 527 c 0
 119.666992188 530.333007812 120 535.666992188 122 543 c 0
 128 561 141 581.5 161 604.5 c 128
 181 627.5 200 643.333007812 218 652 c 0
EndSplineSet
EndChar

StartChar: uni0938
Encoding: 2360 2360 36
Width: 866
Flags: HW
LayerCount: 2
Fore
SplineSet
497.024414062 749 m 0
 471.69140625 764.333007812 434.357421875 764.166992188 385.024414062 748.5 c 128
 335.69140625 732.833007812 297.024414062 709 269.024414062 677 c 0
 247.69140625 652.333007812 232.024414062 629.166992188 222.024414062 607.5 c 128
 212.024414062 585.833007812 202.524414062 555.333007812 193.524414062 516 c 128
 184.524414062 476.666992188 173.357421875 453.333007812 160.024414062 446 c 0
 126.69140625 427.333007812 99.19140625 408.5 77.5244140625 389.5 c 128
 55.857421875 370.5 45.0244140625 355.333007812 45.0244140625 344 c 0
 45.0244140625 333.333007812 48.357421875 326.166992188 55.0244140625 322.5 c 128
 61.69140625 318.833007812 70.857421875 319 82.5244140625 323 c 128
 94.19140625 327 107.357421875 334.666992188 122.024414062 346 c 0
 140.69140625 360 155.857421875 366.5 167.524414062 365.5 c 128
 179.19140625 364.5 185.024414062 356.333007812 185.024414062 341 c 0
 185.024414062 327.666992188 164.024414062 306.666992188 122.024414062 278 c 0
 60.0244140625 233.333007812 45.69140625 204 79.0244140625 190 c 0
 80.357421875 190 81.69140625 189.666992188 83.0244140625 189 c 0
 92.357421875 185.666992188 101.024414062 185.666992188 109.024414062 189 c 128
 117.024414062 192.333007812 128.69140625 201 144.024414062 215 c 0
 170.024414062 238.333007812 186.524414062 250 193.524414062 250 c 128
 200.524414062 250 210.857421875 240.166992188 224.524414062 220.5 c 128
 238.19140625 200.833007812 245.024414062 186.333007812 245.024414062 177 c 0
 245.024414062 167 231.69140625 152.333007812 205.024414062 133 c 0
 183.69140625 117.666992188 170.024414062 105.333007812 164.024414062 96 c 128
 158.024414062 86.6669921875 157.024414062 76.3330078125 161.024414062 65 c 0
 167.024414062 50.3330078125 179.357421875 45.6669921875 198.024414062 51 c 128
 216.69140625 56.3330078125 236.024414062 70.3330078125 256.024414062 93 c 2
 295.024414062 135 l 1
 320.024414062 107 l 2
 336.69140625 88.3330078125 344.524414062 73.1669921875 343.524414062 61.5 c 128
 342.524414062 49.8330078125 332.357421875 32 313.024414062 8 c 0
 301.024414062 -7.3330078125 293.524414062 -19 290.524414062 -27 c 128
 287.524414062 -35 288.024414062 -42.3330078125 292.024414062 -49 c 0
 302.024414062 -64.3330078125 313.524414062 -69.5 326.524414062 -64.5 c 128
 339.524414062 -59.5 358.024414062 -42 382.024414062 -12 c 0
 510.69140625 144 579.357421875 219 588.024414062 213 c 0
 594.69140625 209 602.69140625 195 612.024414062 171 c 0
 638.69140625 105 670.69140625 31.5 708.024414062 -49.5 c 128
 745.357421875 -130.5 766.357421875 -172 771.024414062 -174 c 0
 779.024414062 -177.333007812 790.357421875 -173.333007812 805.024414062 -162 c 0
 815.024414062 -154 818.19140625 -143.166992188 814.524414062 -129.5 c 128
 810.857421875 -115.833007812 792.357421875 -73 759.024414062 -1 c 0
 756.357421875 6.3330078125 754.024414062 11.6669921875 752.024414062 15 c 0
 720.024414062 84.3330078125 696.19140625 135.666992188 680.524414062 169 c 128
 664.857421875 202.333007812 650.857421875 230 638.524414062 252 c 128
 626.19140625 274 617.357421875 287.5 612.024414062 292.5 c 128
 606.69140625 297.5 600.69140625 300 594.024414062 300 c 0
 583.357421875 300 562.357421875 284.833007812 531.024414062 254.5 c 128
 499.69140625 224.166992188 470.357421875 190.333007812 443.024414062 153 c 0
 435.024414062 141.666992188 426.69140625 131.666992188 418.024414062 123 c 128
 409.357421875 114.333007812 403.357421875 110 400.024414062 110 c 0
 394.024414062 110 369.857421875 136 327.524414062 188 c 128
 285.19140625 240 257.024414062 278.666992188 243.024414062 304 c 0
 232.357421875 324.666992188 226.357421875 351 225.024414062 383 c 2
 225.024414062 430 l 1
 275.024414062 430 l 2
 309.69140625 430 338.357421875 435.333007812 361.024414062 446 c 128
 383.69140625 456.666992188 407.024414062 475.666992188 431.024414062 503 c 0
 448.357421875 522.333007812 463.857421875 545.166992188 477.524414062 571.5 c 128
 491.19140625 597.833007812 501.19140625 623 507.524414062 647 c 128
 513.857421875 671 516.357421875 692.5 515.024414062 711.5 c 128
 513.69140625 730.5 507.69140625 743 497.024414062 749 c 0
370.024414062 677 m 0
 396.024414062 692.333007812 417.357421875 700 434.024414062 700 c 0
 445.357421875 700 451.857421875 698 453.524414062 694 c 128
 455.19140625 690 454.69140625 679.666992188 452.024414062 663 c 0
 447.357421875 637 433.024414062 606.833007812 409.024414062 572.5 c 128
 385.024414062 538.166992188 362.69140625 516.333007812 342.024414062 507 c 0
 317.357421875 495 295.024414062 489.166992188 275.024414062 489.5 c 128
 255.024414062 489.833007812 245.024414062 496.333007812 245.024414062 509 c 0
 245.024414062 525.666992188 260.524414062 554.833007812 291.524414062 596.5 c 128
 322.524414062 638.166992188 348.69140625 665 370.024414062 677 c 0
EndSplineSet
EndChar

StartChar: uni0939
Encoding: 2361 2361 37
Width: 676
Flags: HW
LayerCount: 2
Fore
SplineSet
370 723 m 0
 365.333007812 727.666992188 349.833007812 729.666992188 323.5 729 c 128
 297.166992188 728.333007812 268.333007812 725.333007812 237 720 c 0
 179 709.333007812 135.5 682 106.5 638 c 128
 77.5 594 57.6669921875 526 47 434 c 0
 40.3330078125 368.666992188 39.6669921875 316.333007812 45 277 c 128
 50.3330078125 237.666992188 64 195.333007812 86 150 c 0
 108 106.666992188 138.666992188 52.8330078125 178 -11.5 c 128
 217.333007812 -75.8330078125 245.333007812 -118 262 -138 c 0
 274 -151.333007812 281.833007812 -158.333007812 285.5 -159 c 128
 289.166992188 -159.666992188 295.333007812 -155 304 -145 c 0
 316 -133 335 -88 361 -10 c 0
 389 68.6669921875 406.666992188 112 414 120 c 0
 420.666992188 126.666992188 425.5 129.833007812 428.5 129.5 c 128
 431.5 129.166992188 436 124.666992188 442 116 c 0
 450.666992188 104.666992188 465.666992188 68 487 6 c 0
 510.333007812 -61.3330078125 527.666992188 -105 539 -125 c 128
 550.333007812 -145 564 -156 580 -158 c 0
 600 -160.666992188 611 -155.666992188 613 -143 c 128
 615 -130.333007812 608.333007812 -107 593 -73 c 0
 589 -63.6669921875 583.666992188 -50.8330078125 577 -34.5 c 128
 570.333007812 -18.1669921875 562.333007812 0.5 553 21.5 c 128
 543.666992188 42.5 536.666992188 58.6669921875 532 70 c 0
 508 127.333007812 489.333007812 166 476 186 c 0
 463.333007812 207.333007812 457 223 457 233 c 0
 457 243.666992188 451.666992188 254 441 264 c 128
 430.333007812 274 421 277.333007812 413 274 c 0
 404.333007812 270.666992188 382.666992188 225 348 137 c 0
 314.666992188 49 294.666992188 0 288 -10 c 0
 272.666992188 -38 252.333007812 -26.3330078125 227 25 c 0
 212.333007812 54.3330078125 190.333007812 94.3330078125 161 145 c 0
 137.666992188 185 120.833007812 226.666992188 110.5 270 c 128
 100.166992188 313.333007812 97.3330078125 353.666992188 102 391 c 0
 105.333007812 417.666992188 110.666992188 435.166992188 118 443.5 c 128
 125.333007812 451.833007812 142 460.666992188 168 470 c 0
 198.666992188 480.666992188 229.5 499 260.5 525 c 128
 291.5 551 317.333007812 580 338 612 c 0
 376 670.666992188 386.666992188 707.666992188 370 723 c 0
218 652 m 0
 239.333007812 662.666992188 254.666992188 668.166992188 264 668.5 c 128
 273.333007812 668.833007812 280 664 284 654 c 0
 288 643.333007812 282.5 628.666992188 267.5 610 c 128
 252.5 591.333007812 231 572.333007812 203 553 c 0
 155 519.666992188 127.666992188 511 121 527 c 0
 119.666992188 530.333007812 120 535.666992188 122 543 c 0
 128 561 141 581.5 161 604.5 c 128
 181 627.5 200 643.333007812 218 652 c 0
EndSplineSet
EndChar

StartChar: uni0913
Encoding: 2323 2323 38
Width: 497
Flags: W
HStem: -160 100<153.5 203.5>
LayerCount: 2
Fore
SplineSet
345.5 760 m 0
 344.5 761 344.5 761 343.5 762 c 0
 336.833007812 766 327.333007812 764.333007812 315 757 c 0
 302.666992188 749.666992188 262.833007812 722 195.5 674 c 0
 187.5 668 181.5 663.666992188 177.5 661 c 0
 125.5 624.333007812 90.6669921875 598 73 582 c 0
 55.3330078125 566 46.8330078125 554 47.5 546 c 0
 51.5 521.333007812 69.8330078125 517 102.5 533 c 0
 121.166992188 543 147.166992188 560.333007812 180.5 585 c 0
 244.5 631 279.166992188 652.333007812 284.5 649 c 0
 285.166992188 647.666992188 285.5 646 285.5 644 c 0
 285.5 640.666992188 280.5 619.666992188 270.5 581 c 0
 258.5 535 231.333007812 407.333007812 189 198 c 0
 146.666992188 -11.3330078125 125.5 -122.666992188 125.5 -136 c 0
 125.5 -146 127.333007812 -152.5 131 -155.5 c 0
 134.666992188 -158.5 142.166992188 -160 153.5 -160 c 0
 173.5 -160 226.833007812 -125 313.5 -55 c 0
 376.166992188 -5 416.666992188 30.3330078125 435 51 c 0
 453.333007812 71.6669921875 458.666992188 88 451 100 c 0
 443.333007812 112 429.166992188 112.5 408.5 101.5 c 0
 387.833007812 90.5 354.833007812 65 309.5 25 c 0
 244.833007812 -31.6669921875 209.5 -60 203.5 -60 c 0
 197.5 -58 196 -48.1669921875 199 -30.5 c 0
 202 -12.8330078125 213.833007812 42.3330078125 234.5 135 c 0
 261.166992188 252.333007812 288.5 383.333007812 316.5 528 c 0
 334.5 620.666992188 345.333007812 681.666992188 349 711 c 0
 352.666992188 740.333007812 351.5 756.666992188 345.5 760 c 0
EndSplineSet
EndChar

StartChar: uni094D
Encoding: 2381 2381 39
Width: 0
LayerCount: 2
Fore
SplineSet
46 561 m 1
 46 552 l 1025
EndSplineSet
Validated: 3
EndChar

StartChar: uni093E
Encoding: 2366 2366 40
Width: 512
Flags: W
VStem: 45 2<459.188 473.719> 202 75<235 337.625> 215 61<270.231 519.628 595 757.613>
LayerCount: 2
Fore
SplineSet
222 763 m 0xa0
 225.333333333 767.666666667 235.333333333 770 252 770 c 0
 263.333333333 770 270 766 272 758 c 0
 274 750 275 725 275 683 c 2
 276 595 l 1xa0
 357 554 l 2
 401.666666667 531.333333333 430.333333333 513.833333333 443 501.5 c 0
 455.666666667 489.166666667 457.666666667 476 449 462 c 0
 439.666666667 447.333333333 428.666666667 441.5 416 444.5 c 0
 403.333333333 447.5 381.333333333 460.666666667 350 484 c 0
 309.333333333 514.666666667 285.333333333 530 278 530 c 0
 270 530 267.666666667 481 271 383 c 2
 277 235 l 1
 339 125 l 2
 423 -23.6666666667 465 -114 465 -146 c 0
 465 -155.333333333 463.333333333 -161.666666667 460 -165 c 0
 456.666666667 -168.333333333 450.333333333 -170 441 -170 c 0
 431 -170 419.833333333 -161 407.5 -143 c 0
 395.166666667 -125 371.666666667 -83.3333333333 337 -18 c 0
 283.666666667 83.3333333333 253.666666667 135.333333333 247 138 c 0
 241 140 232.333333333 123.333333333 221 88 c 0
 207.666666667 42 188 -12 162 -74 c 0
 136 -136 119.333333333 -169.333333333 112 -174 c 0
 101.333333333 -180.666666667 90.8333333333 -181 80.5 -175 c 0
 70.1666666667 -169 65 -159.333333333 65 -146 c 0
 65 -130 88 -69.3333333333 134 36 c 2
 202 195 l 1xc0
 210 358 l 2
 214 466 213 520 207 520 c 0
 200.333333333 520 176.666666667 506.333333333 136 479 c 0
 82.6666666667 443 53 436.333333333 47 459 c 0
 45.6666666667 463 45 468 45 474 c 0
 45 488.666666667 53.5 502.666666667 70.5 516 c 0
 87.5 529.333333333 116.666666667 545.333333333 158 564 c 2
 215 589 l 1
 215 673 l 2
 215 729.666666667 217.333333333 759.666666667 222 763 c 0xa0
EndSplineSet
EndChar

StartChar: uni093F
Encoding: 2367 2367 41
Width: 538
Flags: HW
LayerCount: 2
Fore
SplineSet
249 758 m 0
 265 774 278.333333333 772.333333333 289 753 c 0
 295.666666667 739.666666667 298.333333333 721.333333333 297 698 c 0
 297 694 297 694 297 687 c 0
 296.333333333 675 295.833333333 666.666666667 295.5 662 c 128
 295.166666667 657.333333333 296 652 298 646 c 128
 300 640 301.666666667 636.5 303 635.5 c 128
 304.333333333 634.5 308.833333333 633.166666667 316.5 631.5 c 128
 324.166666667 629.833333333 331.166666667 629.166666667 337.5 629.5 c 128
 343.833333333 629.833333333 354.666666667 630.333333333 370 631 c 0
 376.666666667 631.666666667 381.666666667 632 385 632 c 2
 472 635 l 1
 472 610 l 2
 472 597.333333333 468.333333333 589.833333333 461 587.5 c 128
 453.666666667 585.166666667 428.666666667 583.333333333 386 582 c 2
 386 582 386 582 385 582 c 0
 343.666666667 580.666666667 318.5 578.666666667 309.5 576 c 128
 300.5 573.333333333 294.333333333 566.333333333 291 555 c 0
 289 545 287.5 537.166666667 286.5 531.5 c 128
 285.5 525.833333333 285.833333333 520.5 287.5 515.5 c 128
 289.166666667 510.5 291.666666667 506.833333333 295 504.5 c 128
 298.333333333 502.166666667 304.333333333 500.166666667 313 498.5 c 128
 321.666666667 496.833333333 331 495.833333333 341 495.5 c 128
 351 495.166666667 364.666666667 495 382 495 c 0
 426.666666667 495 452.833333333 494 460.5 492 c 128
 468.166666667 490 472 482.666666667 472 470 c 0
 472 458 468 450.666666667 460 448 c 128
 452 445.333333333 426 442.666666667 382 440 c 0
 337.333333333 437.333333333 311.166666667 434.666666667 303.5 432 c 128
 295.833333333 429.333333333 291 421.333333333 289 408 c 0
 289 407 289 407 289 404 c 0
 287 390.666666667 290 382.833333333 298 380.5 c 128
 306 378.166666667 334.333333333 376.666666667 383 376 c 0
 389 376 389 376 392 376 c 0
 429.333333333 375.333333333 452.166666667 373.833333333 460.5 371.5 c 128
 468.833333333 369.166666667 473.666666667 363 475 353 c 0
 477 344.333333333 476 338.166666667 472 334.5 c 128
 468 330.833333333 459.666666667 327.666666667 447 325 c 0
 425.666666667 320.333333333 400.333333333 320.333333333 371 325 c 0
 341 329.666666667 319.5 329.5 306.5 324.5 c 128
 293.5 319.5 287 309 287 293 c 0
 287 280.333333333 290.5 273 297.5 271 c 128
 304.5 269 328.666666667 268.666666667 370 270 c 0
 374 270 374 270 381 270 c 0
 429 271.333333333 457 271 465 269 c 128
 473 267 477 259.666666667 477 247 c 0
 477 246 477 246 477 246 c 2
 477 230 471.5 220.333333333 460.5 217 c 128
 449.5 213.666666667 421.666666667 213.666666667 377 217 c 0
 335.666666667 220.333333333 308.166666667 218.5 294.5 211.5 c 128
 280.833333333 204.5 275.666666667 190 279 168 c 0
 281 157.333333333 286.5 150.666666667 295.5 148 c 128
 304.5 145.333333333 331.666666667 142.666666667 377 140 c 0
 378 140 378 140 379 140 c 0
 425 137.333333333 452 134.833333333 460 132.5 c 128
 468 130.166666667 472 122.666666667 472 110 c 128
 472 97.3333333333 468.166666667 89.8333333333 460.5 87.5 c 128
 452.833333333 85.1666666667 426.333333333 83.3333333333 381 82 c 2
 380 82 l 1
 287 79 l 1
 287 45 l 2
 287 23 291.333333333 9 300 3 c 0
 308 -2.33333333333 338.666666667 -5 392 -5 c 0
 432 -5 455.333333333 -6 462 -8 c 128
 468.666666667 -10 472 -17.3333333333 472 -30 c 128
 472 -42.6666666667 468.333333333 -50.1666666667 461 -52.5 c 128
 453.666666667 -54.8333333333 428.666666667 -56.6666666667 386 -58 c 2
 386 -58 386 -58 385 -58 c 2
 297 -61 l 1
 297 -111 l 2
 297 -144.333333333 292 -162.666666667 282 -166 c 0
 269.333333333 -171.333333333 258.666666667 -168 250 -156 c 128
 241.333333333 -144 237 -126.666666667 237 -104 c 2
 237 -60 l 1
 153 -60 l 2
 109.666666667 -60 82.1666666667 -57 70.5 -51 c 128
 58.8333333333 -45 56.6666666667 -32.6666666667 64 -14 c 0
 66 -8 72.3333333333 -4 83 -2 c 128
 93.6666666667 0 113 0.666666666667 141 0 c 0
 149 0 149 0 163 0 c 0
 206.333333333 -1.33333333333 231.5 -0.666666666667 238.5 2 c 128
 245.5 4.66666666667 248 14.3333333333 246 31 c 0
 246 33.6666666667 245.666666667 35.6666666667 245 37 c 2
 242 75 l 1
 155 78 l 2
 110.333333333 79.3333333333 82.3333333333 83 71 89 c 128
 59.6666666667 95 57.3333333333 107.333333333 64 126 c 0
 66.6666666667 133.333333333 73.1666666667 137.666666667 83.5 139 c 128
 93.8333333333 140.333333333 115 139.666666667 147 137 c 0
 188.333333333 133.666666667 215.333333333 134.5 228 139.5 c 128
 240.666666667 144.5 247 156.666666667 247 176 c 0
 247 193.333333333 240.166666667 205 226.5 211 c 128
 212.833333333 217 186 219.333333333 146 218 c 2
 72 215 l 1
 69 244 l 1
 65 272 l 1
 154 269 l 2
 197.333333333 267 223 266.833333333 231 268.5 c 128
 239 270.166666667 243.666666667 277 245 289 c 0
 247.666666667 306.333333333 242.666666667 317.333333333 230 322 c 128
 217.333333333 326.666666667 191 327.333333333 151 324 c 0
 119 320.666666667 98.5 319.833333333 89.5 321.5 c 128
 80.5 323.166666667 73.3333333333 328.666666667 68 338 c 0
 64.6666666667 346 63.1666666667 352.5 63.5 357.5 c 128
 63.8333333333 362.5 68 366.833333333 76 370.5 c 128
 84 374.166666667 94.6666666667 376.833333333 108 378.5 c 128
 121.333333333 380.166666667 139.333333333 381.333333333 162 382 c 0
 201.333333333 383.333333333 224.5 385.333333333 231.5 388 c 128
 238.5 390.666666667 242 398 242 410 c 128
 242 422 238.333333333 429.333333333 231 432 c 128
 223.666666667 434.666666667 200 436.666666667 160 438 c 0
 92.6666666667 440 59.3333333333 450 60 468 c 0
 60 473.333333333 62.6666666667 479.333333333 68 486 c 256
 73.3333333333 492.666666667 82.1666666667 496.666666667 94.5 498 c 128
 106.833333333 499.333333333 129 499.333333333 161 498 c 2
 242 495 l 1
 242 535 l 1
 242 575 l 1
 160 575 l 2
 118 575 89.5 577.833333333 74.5 583.5 c 128
 59.5 589.166666667 54.6666666667 599.333333333 60 614 c 0
 62.6666666667 620.666666667 70 625 82 627 c 128
 94 629 117.333333333 630 152 630 c 2
 237 630 l 1
 237 688 l 2
 237 726.666666667 241 750 249 758 c 0
EndSplineSet
EndChar

StartChar: uni0940
Encoding: 2368 2368 42
Width: 990
Flags: HW
LayerCount: 2
Fore
SplineSet
724 758 m 4
 740 774 753.333007812 772.333007812 764 753 c 4
 770.666992188 739.666992188 773.333007812 721.333007812 772 698 c 4
 772 694 772 694 772 687 c 4
 771.333007812 675 770.833007812 666.666992188 770.5 662 c 132
 770.166992188 657.333007812 771 652 773 646 c 132
 775 640 776.666992188 636.5 778 635.5 c 132
 779.333007812 634.5 783.833007812 633.166992188 791.5 631.5 c 132
 799.166992188 629.833007812 806.166992188 629.166992188 812.5 629.5 c 132
 818.833007812 629.833007812 829.666992188 630.333007812 845 631 c 4
 851.666992188 631.666992188 856.666992188 632 860 632 c 6
 947 635 l 5
 947 610 l 6
 947 597.333007812 943.333007812 589.833007812 936 587.5 c 132
 928.666992188 585.166992188 903.666992188 583.333007812 861 582 c 6
 861 582 861 582 860 582 c 4
 818.666992188 580.666992188 793.5 578.666992188 784.5 576 c 132
 775.5 573.333007812 769.333007812 566.333007812 766 555 c 4
 764 545 762.5 537.166992188 761.5 531.5 c 132
 760.5 525.833007812 760.833007812 520.5 762.5 515.5 c 132
 764.166992188 510.5 766.666992188 506.833007812 770 504.5 c 132
 773.333007812 502.166992188 779.333007812 500.166992188 788 498.5 c 132
 796.666992188 496.833007812 806 495.833007812 816 495.5 c 132
 826 495.166992188 839.666992188 495 857 495 c 4
 901.666992188 495 927.833007812 494 935.5 492 c 132
 943.166992188 490 947 482.666992188 947 470 c 4
 947 458 943 450.666992188 935 448 c 132
 927 445.333007812 901 442.666992188 857 440 c 4
 812.333007812 437.333007812 786.166992188 434.666992188 778.5 432 c 132
 770.833007812 429.333007812 766 421.333007812 764 408 c 4
 764 407 764 407 764 404 c 4
 762 390.666992188 765 382.833007812 773 380.5 c 132
 781 378.166992188 809.333007812 376.666992188 858 376 c 4
 864 376 864 376 867 376 c 4
 904.333007812 375.333007812 927.166992188 373.833007812 935.5 371.5 c 132
 943.833007812 369.166992188 948.666992188 363 950 353 c 4
 952 344.333007812 951 338.166992188 947 334.5 c 132
 943 330.833007812 934.666992188 327.666992188 922 325 c 4
 900.666992188 320.333007812 875.333007812 320.333007812 846 325 c 4
 816 329.666992188 794.5 329.5 781.5 324.5 c 132
 768.5 319.5 762 309 762 293 c 4
 762 280.333007812 765.5 273 772.5 271 c 132
 779.5 269 803.666992188 268.666992188 845 270 c 4
 849 270 849 270 856 270 c 4
 904 271.333007812 932 271 940 269 c 132
 948 267 952 259.666992188 952 247 c 4
 952 246 952 246 952 246 c 6
 952 230 946.5 220.333007812 935.5 217 c 132
 924.5 213.666992188 896.666992188 213.666992188 852 217 c 4
 810.666992188 220.333007812 783.166992188 218.5 769.5 211.5 c 132
 755.833007812 204.5 750.666992188 190 754 168 c 4
 756 157.333007812 761.5 150.666992188 770.5 148 c 132
 779.5 145.333007812 806.666992188 142.666992188 852 140 c 4
 853 140 853 140 854 140 c 4
 900 137.333007812 927 134.833007812 935 132.5 c 132
 943 130.166992188 947 122.666992188 947 110 c 132
 947 97.3330078125 943.166992188 89.8330078125 935.5 87.5 c 132
 927.833007812 85.1669921875 901.333007812 83.3330078125 856 82 c 6
 855 82 l 5
 762 79 l 5
 762 45 l 6
 762 23 766.333007812 9 775 3 c 4
 783 -2.3330078125 813.666992188 -5 867 -5 c 4
 907 -5 930.333007812 -6 937 -8 c 132
 943.666992188 -10 947 -17.3330078125 947 -30 c 132
 947 -42.6669921875 943.333007812 -50.1669921875 936 -52.5 c 132
 928.666992188 -54.8330078125 903.666992188 -56.6669921875 861 -58 c 6
 861 -58 861 -58 860 -58 c 6
 772 -61 l 5
 772 -111 l 6
 772 -144.333007812 767 -162.666992188 757 -166 c 4
 744.333007812 -171.333007812 733.666992188 -168 725 -156 c 132
 716.333007812 -144 712 -126.666992188 712 -104 c 6
 712 -60 l 5
 628 -60 l 6
 584.666992188 -60 557.166992188 -57 545.5 -51 c 132
 533.833007812 -45 531.666992188 -32.6669921875 539 -14 c 4
 541 -8 547.333007812 -4 558 -2 c 132
 568.666992188 0 588 0.6669921875 616 0 c 4
 624 0 624 0 638 0 c 4
 681.333007812 -1.3330078125 706.5 -0.6669921875 713.5 2 c 132
 720.5 4.6669921875 723 14.3330078125 721 31 c 4
 721 33.6669921875 720.666992188 35.6669921875 720 37 c 6
 717 75 l 5
 630 78 l 6
 585.333007812 79.3330078125 557.333007812 83 546 89 c 132
 534.666992188 95 532.333007812 107.333007812 539 126 c 4
 541.666992188 133.333007812 548.166992188 137.666992188 558.5 139 c 132
 568.833007812 140.333007812 590 139.666992188 622 137 c 4
 663.333007812 133.666992188 690.333007812 134.5 703 139.5 c 132
 715.666992188 144.5 722 156.666992188 722 176 c 4
 722 193.333007812 715.166992188 205 701.5 211 c 132
 687.833007812 217 661 219.333007812 621 218 c 6
 547 215 l 5
 544 244 l 5
 540 272 l 5
 629 269 l 6
 672.333007812 267 698 266.833007812 706 268.5 c 132
 714 270.166992188 718.666992188 277 720 289 c 4
 722.666992188 306.333007812 717.666992188 317.333007812 705 322 c 132
 692.333007812 326.666992188 666 327.333007812 626 324 c 4
 594 320.666992188 573.5 319.833007812 564.5 321.5 c 132
 555.5 323.166992188 548.333007812 328.666992188 543 338 c 4
 539.666992188 346 538.166992188 352.5 538.5 357.5 c 132
 538.833007812 362.5 543 366.833007812 551 370.5 c 132
 559 374.166992188 569.666992188 376.833007812 583 378.5 c 132
 596.333007812 380.166992188 614.333007812 381.333007812 637 382 c 4
 676.333007812 383.333007812 699.5 385.333007812 706.5 388 c 132
 713.5 390.666992188 717 398 717 410 c 132
 717 422 713.333007812 429.333007812 706 432 c 132
 698.666992188 434.666992188 675 436.666992188 635 438 c 4
 567.666992188 440 534.333007812 450 535 468 c 4
 535 473.333007812 537.666992188 479.333007812 543 486 c 260
 548.333007812 492.666992188 557.166992188 496.666992188 569.5 498 c 132
 581.833007812 499.333007812 604 499.333007812 636 498 c 6
 717 495 l 5
 717 535 l 5
 717 575 l 5
 635 575 l 6
 593 575 564.5 577.833007812 549.5 583.5 c 132
 534.5 589.166992188 529.666992188 599.333007812 535 614 c 4
 537.666992188 620.666992188 545 625 557 627 c 132
 569 629 592.333007812 630 627 630 c 6
 712 630 l 5
 712 688 l 6
 712 726.666992188 716 750 724 758 c 4
249 758 m 0
 265 774 278.333333333 772.333333333 289 753 c 0
 295.666666667 739.666666667 298.333333333 721.333333333 297 698 c 0
 297 694 297 694 297 687 c 0
 296.333333333 675 295.833333333 666.666666667 295.5 662 c 128
 295.166666667 657.333333333 296 652 298 646 c 128
 300 640 301.666666667 636.5 303 635.5 c 128
 304.333333333 634.5 308.833333333 633.166666667 316.5 631.5 c 128
 324.166666667 629.833333333 331.166666667 629.166666667 337.5 629.5 c 128
 343.833333333 629.833333333 354.666666667 630.333333333 370 631 c 0
 376.666666667 631.666666667 381.666666667 632 385 632 c 2
 472 635 l 1
 472 610 l 2
 472 597.333333333 468.333333333 589.833333333 461 587.5 c 128
 453.666666667 585.166666667 428.666666667 583.333333333 386 582 c 2
 386 582 386 582 385 582 c 0
 343.666666667 580.666666667 318.5 578.666666667 309.5 576 c 128
 300.5 573.333333333 294.333333333 566.333333333 291 555 c 0
 289 545 287.5 537.166666667 286.5 531.5 c 128
 285.5 525.833333333 285.833333333 520.5 287.5 515.5 c 128
 289.166666667 510.5 291.666666667 506.833333333 295 504.5 c 128
 298.333333333 502.166666667 304.333333333 500.166666667 313 498.5 c 128
 321.666666667 496.833333333 331 495.833333333 341 495.5 c 128
 351 495.166666667 364.666666667 495 382 495 c 0
 426.666666667 495 452.833333333 494 460.5 492 c 128
 468.166666667 490 472 482.666666667 472 470 c 0
 472 458 468 450.666666667 460 448 c 128
 452 445.333333333 426 442.666666667 382 440 c 0
 337.333333333 437.333333333 311.166666667 434.666666667 303.5 432 c 128
 295.833333333 429.333333333 291 421.333333333 289 408 c 0
 289 407 289 407 289 404 c 0
 287 390.666666667 290 382.833333333 298 380.5 c 128
 306 378.166666667 334.333333333 376.666666667 383 376 c 0
 389 376 389 376 392 376 c 0
 429.333333333 375.333333333 452.166666667 373.833333333 460.5 371.5 c 128
 468.833333333 369.166666667 473.666666667 363 475 353 c 0
 477 344.333333333 476 338.166666667 472 334.5 c 128
 468 330.833333333 459.666666667 327.666666667 447 325 c 0
 425.666666667 320.333333333 400.333333333 320.333333333 371 325 c 0
 341 329.666666667 319.5 329.5 306.5 324.5 c 128
 293.5 319.5 287 309 287 293 c 0
 287 280.333333333 290.5 273 297.5 271 c 128
 304.5 269 328.666666667 268.666666667 370 270 c 0
 374 270 374 270 381 270 c 0
 429 271.333333333 457 271 465 269 c 128
 473 267 477 259.666666667 477 247 c 0
 477 246 477 246 477 246 c 2
 477 230 471.5 220.333333333 460.5 217 c 128
 449.5 213.666666667 421.666666667 213.666666667 377 217 c 0
 335.666666667 220.333333333 308.166666667 218.5 294.5 211.5 c 128
 280.833333333 204.5 275.666666667 190 279 168 c 0
 281 157.333333333 286.5 150.666666667 295.5 148 c 128
 304.5 145.333333333 331.666666667 142.666666667 377 140 c 0
 378 140 378 140 379 140 c 0
 425 137.333333333 452 134.833333333 460 132.5 c 128
 468 130.166666667 472 122.666666667 472 110 c 128
 472 97.3333333333 468.166666667 89.8333333333 460.5 87.5 c 128
 452.833333333 85.1666666667 426.333333333 83.3333333333 381 82 c 2
 380 82 l 1
 287 79 l 1
 287 45 l 2
 287 23 291.333333333 9 300 3 c 0
 308 -2.33333333333 338.666666667 -5 392 -5 c 0
 432 -5 455.333333333 -6 462 -8 c 128
 468.666666667 -10 472 -17.3333333333 472 -30 c 128
 472 -42.6666666667 468.333333333 -50.1666666667 461 -52.5 c 128
 453.666666667 -54.8333333333 428.666666667 -56.6666666667 386 -58 c 2
 386 -58 386 -58 385 -58 c 2
 297 -61 l 1
 297 -111 l 2
 297 -144.333333333 292 -162.666666667 282 -166 c 0
 269.333333333 -171.333333333 258.666666667 -168 250 -156 c 128
 241.333333333 -144 237 -126.666666667 237 -104 c 2
 237 -60 l 1
 153 -60 l 2
 109.666666667 -60 82.1666666667 -57 70.5 -51 c 128
 58.8333333333 -45 56.6666666667 -32.6666666667 64 -14 c 0
 66 -8 72.3333333333 -4 83 -2 c 128
 93.6666666667 0 113 0.666666666667 141 0 c 0
 149 0 149 0 163 0 c 0
 206.333333333 -1.33333333333 231.5 -0.666666666667 238.5 2 c 128
 245.5 4.66666666667 248 14.3333333333 246 31 c 0
 246 33.6666666667 245.666666667 35.6666666667 245 37 c 2
 242 75 l 1
 155 78 l 2
 110.333333333 79.3333333333 82.3333333333 83 71 89 c 128
 59.6666666667 95 57.3333333333 107.333333333 64 126 c 0
 66.6666666667 133.333333333 73.1666666667 137.666666667 83.5 139 c 128
 93.8333333333 140.333333333 115 139.666666667 147 137 c 0
 188.333333333 133.666666667 215.333333333 134.5 228 139.5 c 128
 240.666666667 144.5 247 156.666666667 247 176 c 0
 247 193.333333333 240.166666667 205 226.5 211 c 128
 212.833333333 217 186 219.333333333 146 218 c 2
 72 215 l 1
 69 244 l 1
 65 272 l 1
 154 269 l 2
 197.333333333 267 223 266.833333333 231 268.5 c 128
 239 270.166666667 243.666666667 277 245 289 c 0
 247.666666667 306.333333333 242.666666667 317.333333333 230 322 c 128
 217.333333333 326.666666667 191 327.333333333 151 324 c 0
 119 320.666666667 98.5 319.833333333 89.5 321.5 c 128
 80.5 323.166666667 73.3333333333 328.666666667 68 338 c 0
 64.6666666667 346 63.1666666667 352.5 63.5 357.5 c 128
 63.8333333333 362.5 68 366.833333333 76 370.5 c 128
 84 374.166666667 94.6666666667 376.833333333 108 378.5 c 128
 121.333333333 380.166666667 139.333333333 381.333333333 162 382 c 0
 201.333333333 383.333333333 224.5 385.333333333 231.5 388 c 128
 238.5 390.666666667 242 398 242 410 c 128
 242 422 238.333333333 429.333333333 231 432 c 128
 223.666666667 434.666666667 200 436.666666667 160 438 c 0
 92.6666666667 440 59.3333333333 450 60 468 c 0
 60 473.333333333 62.6666666667 479.333333333 68 486 c 256
 73.3333333333 492.666666667 82.1666666667 496.666666667 94.5 498 c 128
 106.833333333 499.333333333 129 499.333333333 161 498 c 2
 242 495 l 1
 242 535 l 1
 242 575 l 1
 160 575 l 2
 118 575 89.5 577.833333333 74.5 583.5 c 128
 59.5 589.166666667 54.6666666667 599.333333333 60 614 c 0
 62.6666666667 620.666666667 70 625 82 627 c 128
 94 629 117.333333333 630 152 630 c 2
 237 630 l 1
 237 688 l 2
 237 726.666666667 241 750 249 758 c 0
EndSplineSet
EndChar

StartChar: uni0919
Encoding: 2329 2329 43
Width: 525
VWidth: 2048
Flags: HW
LayerCount: 2
Fore
SplineSet
459.200195312 31.640625 m 2
 459.200195312 0.2802734375 455.466796875 -27.7197265625 448 -52.359375 c 128
 440.534179688 -77 429.799804688 -97.8125 415.799804688 -114.799804688 c 128
 401.799804688 -131.786132812 384.813476562 -144.666015625 364.83984375 -153.439453125 c 128
 344.866210938 -162.212890625 322.186523438 -166.599609375 296.799804688 -166.599609375 c 0
 224 -166.599609375 178.080078125 -162.493164062 159.040039062 -154.279296875 c 128
 140 -146.06640625 123.666992188 -133.93359375 110.040039062 -117.87890625 c 128
 96.4130859375 -101.826171875 85.8662109375 -81.666015625 78.400390625 -57.3994140625 c 128
 70.93359375 -33.1328125 67.2001953125 -5.1328125 67.2001953125 26.6005859375 c 2
 67.2001953125 772.520507812 l 2
 67.2001953125 774.760742188 67.6669921875 776.626953125 68.6005859375 778.12109375 c 128
 69.5341796875 779.61328125 71.0263671875 780.827148438 73.080078125 781.760742188 c 128
 75.1337890625 782.694335938 77.93359375 783.534179688 81.4794921875 784.280273438 c 128
 85.0263671875 785.02734375 89.6005859375 785.400390625 95.2001953125 785.400390625 c 0
 100.426757812 785.400390625 104.90625 785.02734375 108.639648438 784.280273438 c 128
 112.374023438 783.534179688 115.266601562 782.694335938 117.3203125 781.760742188 c 128
 119.374023438 780.827148438 120.7734375 779.61328125 121.520507812 778.12109375 c 128
 122.266601562 776.626953125 122.639648438 774.760742188 122.639648438 772.520507812 c 2
 122.639648438 35 l 2
 122.639648438 11.1064453125 125.06640625 -9.7998046875 129.920898438 -27.7197265625 c 128
 134.7734375 -45.6396484375 141.6796875 -60.4794921875 150.639648438 -72.2392578125 c 128
 159.600585938 -84 170.426757812 -92.8662109375 183.120117188 -98.83984375 c 128
 195.813476562 -104.8125 235.013671875 -107.799804688 300.720703125 -107.799804688 c 0
 316.7734375 -107.799804688 331.147460938 -104.90625 343.83984375 -99.1201171875 c 128
 356.534179688 -93.3330078125 367.360351562 -84.5595703125 376.3203125 -72.7998046875 c 128
 385.280273438 -61.0390625 392.09375 -46.5732421875 396.760742188 -29.3994140625 c 128
 401.426757812 -12.2265625 403.760742188 7.93359375 403.760742188 31.080078125 c 2
 403.760742188 772.520507812 l 2
 403.760742188 774.760742188 404.133789062 776.626953125 404.879882812 778.12109375 c 128
 405.626953125 779.61328125 407.120117188 780.827148438 409.360351562 781.760742188 c 128
 411.600585938 782.694335938 414.494140625 783.534179688 418.040039062 784.280273438 c 128
 421.586914062 785.02734375 426.16015625 785.400390625 431.760742188 785.400390625 c 0
 436.987304688 785.400390625 441.374023438 785.02734375 444.920898438 784.280273438 c 128
 448.466796875 783.534179688 451.266601562 782.694335938 453.3203125 781.760742188 c 128
 455.374023438 780.827148438 456.866210938 779.61328125 457.799804688 778.12109375 c 128
 458.733398438 776.626953125 459.200195312 774.760742188 459.200195312 772.520507812 c 2
 459.200195312 31.640625 l 2
EndSplineSet
EndChar

StartChar: uni091E
Encoding: 2334 2334 44
Width: 650
VWidth: 2048
Flags: HW
LayerCount: 2
Fore
SplineSet
89.25 792.5 m 0
 96.25 792.5 105.416992188 782.416015625 116.75 762.25 c 1
 116.75 754.549804688 l 1
 112.25 731.450195312 l 1
 112.25 480.650390625 l 1
 150.25 492.016601562 190.916992188 494.583984375 234.25 488.349609375 c 1
 339.916992188 479.916015625 434.25 414.099609375 517.25 290.900390625 c 1
 548.25 241.766601562 571.416992188 198.68359375 586.75 161.650390625 c 1
 586.75 138.549804688 l 2
 586.75 128.650390625 581.916992188 121.866210938 572.25 118.200195312 c 128
 562.583007812 114.534179688 553.583007812 116.366210938 545.25 123.700195312 c 1
 498.25 180.900390625 353.916992188 211.333984375 112.25 215 c 1
 112.75 -119.950195312 l 1
 107.083007812 -126.916015625 97.25 -134.43359375 83.25 -142.5 c 1
 76.25 -142.5 l 2
 67.25 -142.5 62.75 -137.366210938 62.75 -127.099609375 c 2
 62.25 754.549804688 l 1
 73.9169921875 779.483398438 82.9169921875 792.133789062 89.25 792.5 c 0
112.25 429.5 m 1
 112.25 266.150390625 l 1
 147.25 266.150390625 l 1
 147.25 438.849609375 l 1
 134.25 437.75 122.583007812 434.633789062 112.25 429.5 c 1
502.25 245.25 m 1
 502.25 207.849609375 l 1
 539.25 175.400390625 l 1
 532.583007812 196.666015625 520.25 219.950195312 502.25 245.25 c 1
177.25 443.799804688 m 1
 177.25 265.599609375 l 1
 231.25 263.950195312 l 1
 231.25 442.700195312 l 1
 210.916992188 446.366210938 192.916992188 446.733398438 177.25 443.799804688 c 1
272.25 435 m 1
 272.25 260.650390625 l 1
 324.75 252.950195312 l 1
 324.75 413 l 1
 305.083007812 426.56640625 287.583007812 433.900390625 272.25 435 c 1
362.25 396.5 m 1
 362.25 246.900390625 l 1
 397.25 238.099609375 l 1
 397.25 367.349609375 l 1
 384.25 380.916015625 372.583007812 390.633789062 362.25 396.5 c 1
433.75 329.950195312 m 1
 433.75 227.099609375 l 1
 472.25 215 l 1
 472.25 288.700195312 l 1
 457.916992188 308.866210938 445.083007812 322.616210938 433.75 329.950195312 c 1
EndSplineSet
EndChar

StartChar: uni0923
Encoding: 2339 2339 45
Width: 815
Flags: HW
LayerCount: 2
Fore
SplineSet
278 763 m 0
 282 767.666666667 312.833333333 769.833333333 370.5 769.5 c 128
 428.166666667 769.166666667 470 766.666666667 496 762 c 2
 536 755 l 1
 541 405 l 1
 546 55 l 1
 654 52 l 1
 761 49 l 1
 761 -54 l 1
 761 -157 l 1
 664 -163 l 2
 600.666666667 -167.666666667 514.666666667 -170 406 -170 c 128
 297.333333333 -170 211.333333333 -167.666666667 148 -163 c 2
 50 -157 l 1
 53 -56 l 1
 56 45 l 1
 157 48 l 1
 258 51 l 1
 265 88 l 2
 269 114.666666667 271 232.333333333 271 441 c 0
 271 652.333333333 273.333333333 759.666666667 278 763 c 0
484 653 m 2
 478 720 l 1
 406 720 l 2
 357.333333333 720 331.333333333 717.666666667 328 713 c 0
 323.333333333 709.666666667 321 600 321 384 c 2
 321 60 l 1
 344 55 l 2
 358.666666667 50.3333333333 384.666666667 49.3333333333 422 52 c 2
 476 55 l 1
 483 100 l 2
 487.666666667 129.333333333 490.166666667 217.833333333 490.5 365.5 c 128
 490.833333333 513.166666667 488.666666667 609 484 653 c 2
266 -55 m 1
 266 5 l 1
 211 6 l 2
 179 7.33333333333 151.666666667 6.33333333333 129 3 c 0
 115.666666667 1 107.666666667 -2.83333333333 105 -8.5 c 128
 102.333333333 -14.1666666667 101 -29.6666666667 101 -55 c 0
 101 -87 106.166666667 -106.166666667 116.5 -112.5 c 128
 126.833333333 -118.833333333 156.666666667 -120.666666667 206 -118 c 2
 266 -115 l 1
 266 -55 l 1
486 -55 m 1
 486 5 l 1
 411 8 l 2
 359.666666667 9.33333333333 332 8 328 4 c 0
 323.333333333 -0.666666666667 321 -20.6666666667 321 -56 c 0
 321 -87.3333333333 326.333333333 -106.166666667 337 -112.5 c 128
 347.666666667 -118.833333333 377.333333333 -120.666666667 426 -118 c 2
 486 -115 l 1
 486 -55 l 1
665 4 m 2
 593 13.3333333333 553 11.3333333333 545 -2 c 0
 539 -11.3333333333 537 -30.6666666667 539 -60 c 128
 541 -89.3333333333 545.666666667 -106.333333333 553 -111 c 0
 561 -117 588.666666667 -119.333333333 636 -118 c 2
 706 -115 l 1
 709 -59 l 1
 712 -3 l 1
 665 4 l 2
EndSplineSet
EndChar

StartChar: uni090B
Encoding: 2315 2315 46
Width: 350
VWidth: 2048
Flags: HW
LayerCount: 2
Fore
SplineSet
288.400390625 759 m 0
 302.439453125 759 309.639648438 753.419921875 310 742.260742188 c 2
 310 632.099609375 l 1
 306.040039062 530.939453125 264.280273438 470.459960938 184.719726562 450.66015625 c 1
 184.719726562 -146.580078125 l 2
 185.439453125 -154.860351562 176.799804688 -159 158.799804688 -159 c 0
 140.439453125 -159 131.260742188 -154.139648438 131.260742188 -144.419921875 c 2
 131.260742188 457.6796875 l 1
 70.060546875 479.280273438 39.6396484375 539.040039062 40 636.959960938 c 2
 40 736.860351562 l 2
 40.3603515625 746.939453125 47.7392578125 751.620117188 62.1396484375 750.900390625 c 0
 77.2607421875 750.1796875 84.4599609375 745.5 83.7392578125 736.860351562 c 2
 82.1201171875 634.799804688 l 2
 82.1201171875 551.639648438 109.48046875 507.360351562 164.200195312 501.959960938 c 1
 171.219726562 501.959960938 l 1
 228.8203125 512.400390625 260.5 556.5 266.260742188 634.260742188 c 1
 266.260742188 747.66015625 l 2
 266.260742188 754.860351562 273.639648438 758.639648438 288.400390625 759 c 0
EndSplineSet
EndChar

StartChar: uni0910
Encoding: 2320 2320 47
Width: 975
Flags: HW
LayerCount: 2
Fore
SplineSet
699 758 m 4
 715 774 728.333007812 772.333007812 739 753 c 4
 745.666992188 739.666992188 748.333007812 721.333007812 747 698 c 4
 747 694 747 694 747 687 c 4
 746.333007812 675 745.833007812 666.666992188 745.5 662 c 132
 745.166992188 657.333007812 746 652 748 646 c 132
 750 640 751.666992188 636.5 753 635.5 c 132
 754.333007812 634.5 758.833007812 633.166992188 766.5 631.5 c 132
 774.166992188 629.833007812 781.166992188 629.166992188 787.5 629.5 c 132
 793.833007812 629.833007812 804.666992188 630.333007812 820 631 c 4
 826.666992188 631.666992188 831.666992188 632 835 632 c 6
 922 635 l 5
 922 610 l 6
 922 597.333007812 918.333007812 589.833007812 911 587.5 c 132
 903.666992188 585.166992188 878.666992188 583.333007812 836 582 c 6
 836 582 836 582 835 582 c 4
 793.666992188 580.666992188 768.5 578.666992188 759.5 576 c 132
 750.5 573.333007812 744.333007812 566.333007812 741 555 c 4
 739 545 737.5 537.166992188 736.5 531.5 c 132
 735.5 525.833007812 735.833007812 520.5 737.5 515.5 c 132
 739.166992188 510.5 741.666992188 506.833007812 745 504.5 c 132
 748.333007812 502.166992188 754.333007812 500.166992188 763 498.5 c 132
 771.666992188 496.833007812 781 495.833007812 791 495.5 c 132
 801 495.166992188 814.666992188 495 832 495 c 4
 876.666992188 495 902.833007812 494 910.5 492 c 132
 918.166992188 490 922 482.666992188 922 470 c 4
 922 458 918 450.666992188 910 448 c 132
 902 445.333007812 876 442.666992188 832 440 c 4
 787.333007812 437.333007812 761.166992188 434.666992188 753.5 432 c 132
 745.833007812 429.333007812 741 421.333007812 739 408 c 4
 739 407 739 407 739 404 c 4
 737 390.666992188 740 382.833007812 748 380.5 c 132
 756 378.166992188 784.333007812 376.666992188 833 376 c 4
 839 376 839 376 842 376 c 4
 879.333007812 375.333007812 902.166992188 373.833007812 910.5 371.5 c 132
 918.833007812 369.166992188 923.666992188 363 925 353 c 4
 927 344.333007812 926 338.166992188 922 334.5 c 132
 918 330.833007812 909.666992188 327.666992188 897 325 c 4
 875.666992188 320.333007812 850.333007812 320.333007812 821 325 c 4
 791 329.666992188 769.5 329.5 756.5 324.5 c 132
 743.5 319.5 737 309 737 293 c 4
 737 280.333007812 740.5 273 747.5 271 c 132
 754.5 269 778.666992188 268.666992188 820 270 c 4
 824 270 824 270 831 270 c 4
 879 271.333007812 907 271 915 269 c 132
 923 267 927 259.666992188 927 247 c 4
 927 246 927 246 927 246 c 6
 927 230 921.5 220.333007812 910.5 217 c 132
 899.5 213.666992188 871.666992188 213.666992188 827 217 c 4
 785.666992188 220.333007812 758.166992188 218.5 744.5 211.5 c 132
 730.833007812 204.5 725.666992188 190 729 168 c 4
 731 157.333007812 736.5 150.666992188 745.5 148 c 132
 754.5 145.333007812 781.666992188 142.666992188 827 140 c 4
 828 140 828 140 829 140 c 4
 875 137.333007812 902 134.833007812 910 132.5 c 132
 918 130.166992188 922 122.666992188 922 110 c 132
 922 97.3330078125 918.166992188 89.8330078125 910.5 87.5 c 132
 902.833007812 85.1669921875 876.333007812 83.3330078125 831 82 c 6
 830 82 l 5
 737 79 l 5
 737 45 l 6
 737 23 741.333007812 9 750 3 c 4
 758 -2.3330078125 788.666992188 -5 842 -5 c 4
 882 -5 905.333007812 -6 912 -8 c 132
 918.666992188 -10 922 -17.3330078125 922 -30 c 132
 922 -42.6669921875 918.333007812 -50.1669921875 911 -52.5 c 132
 903.666992188 -54.8330078125 878.666992188 -56.6669921875 836 -58 c 6
 836 -58 836 -58 835 -58 c 6
 747 -61 l 5
 747 -111 l 6
 747 -144.333007812 742 -162.666992188 732 -166 c 4
 719.333007812 -171.333007812 708.666992188 -168 700 -156 c 132
 691.333007812 -144 687 -126.666992188 687 -104 c 6
 687 -60 l 5
 603 -60 l 6
 559.666992188 -60 532.166992188 -57 520.5 -51 c 132
 508.833007812 -45 506.666992188 -32.6669921875 514 -14 c 4
 516 -8 522.333007812 -4 533 -2 c 132
 543.666992188 0 563 0.6669921875 591 0 c 4
 599 0 599 0 613 0 c 4
 656.333007812 -1.3330078125 681.5 -0.6669921875 688.5 2 c 132
 695.5 4.6669921875 698 14.3330078125 696 31 c 4
 696 33.6669921875 695.666992188 35.6669921875 695 37 c 6
 692 75 l 5
 605 78 l 6
 560.333007812 79.3330078125 532.333007812 83 521 89 c 132
 509.666992188 95 507.333007812 107.333007812 514 126 c 4
 516.666992188 133.333007812 523.166992188 137.666992188 533.5 139 c 132
 543.833007812 140.333007812 565 139.666992188 597 137 c 4
 638.333007812 133.666992188 665.333007812 134.5 678 139.5 c 132
 690.666992188 144.5 697 156.666992188 697 176 c 4
 697 193.333007812 690.166992188 205 676.5 211 c 132
 662.833007812 217 636 219.333007812 596 218 c 6
 522 215 l 5
 519 244 l 5
 515 272 l 5
 604 269 l 6
 647.333007812 267 673 266.833007812 681 268.5 c 132
 689 270.166992188 693.666992188 277 695 289 c 4
 697.666992188 306.333007812 692.666992188 317.333007812 680 322 c 132
 667.333007812 326.666992188 641 327.333007812 601 324 c 4
 569 320.666992188 548.5 319.833007812 539.5 321.5 c 132
 530.5 323.166992188 523.333007812 328.666992188 518 338 c 4
 514.666992188 346 513.166992188 352.5 513.5 357.5 c 132
 513.833007812 362.5 518 366.833007812 526 370.5 c 132
 534 374.166992188 544.666992188 376.833007812 558 378.5 c 132
 571.333007812 380.166992188 589.333007812 381.333007812 612 382 c 4
 651.333007812 383.333007812 674.5 385.333007812 681.5 388 c 132
 688.5 390.666992188 692 398 692 410 c 132
 692 422 688.333007812 429.333007812 681 432 c 132
 673.666992188 434.666992188 650 436.666992188 610 438 c 4
 542.666992188 440 509.333007812 450 510 468 c 4
 510 473.333007812 512.666992188 479.333007812 518 486 c 260
 523.333007812 492.666992188 532.166992188 496.666992188 544.5 498 c 132
 556.833007812 499.333007812 579 499.333007812 611 498 c 6
 692 495 l 5
 692 535 l 5
 692 575 l 5
 610 575 l 6
 568 575 539.5 577.833007812 524.5 583.5 c 132
 509.5 589.166992188 504.666992188 599.333007812 510 614 c 4
 512.666992188 620.666992188 520 625 532 627 c 132
 544 629 567.333007812 630 602 630 c 6
 687 630 l 5
 687 688 l 6
 687 726.666992188 691 750 699 758 c 4
222 763 m 0xa0
 225.333333333 767.666666667 235.333333333 770 252 770 c 0
 263.333333333 770 270 766 272 758 c 0
 274 750 275 725 275 683 c 2
 276 595 l 1xa0
 357 554 l 2
 401.666666667 531.333333333 430.333333333 513.833333333 443 501.5 c 0
 455.666666667 489.166666667 457.666666667 476 449 462 c 0
 439.666666667 447.333333333 428.666666667 441.5 416 444.5 c 0
 403.333333333 447.5 381.333333333 460.666666667 350 484 c 0
 309.333333333 514.666666667 285.333333333 530 278 530 c 0
 270 530 267.666666667 481 271 383 c 2
 277 235 l 1
 339 125 l 2
 423 -23.6666666667 465 -114 465 -146 c 0
 465 -155.333333333 463.333333333 -161.666666667 460 -165 c 0
 456.666666667 -168.333333333 450.333333333 -170 441 -170 c 0
 431 -170 419.833333333 -161 407.5 -143 c 0
 395.166666667 -125 371.666666667 -83.3333333333 337 -18 c 0
 283.666666667 83.3333333333 253.666666667 135.333333333 247 138 c 0
 241 140 232.333333333 123.333333333 221 88 c 0
 207.666666667 42 188 -12 162 -74 c 0
 136 -136 119.333333333 -169.333333333 112 -174 c 0
 101.333333333 -180.666666667 90.8333333333 -181 80.5 -175 c 0
 70.1666666667 -169 65 -159.333333333 65 -146 c 0
 65 -130 88 -69.3333333333 134 36 c 2
 202 195 l 1xc0
 210 358 l 2
 214 466 213 520 207 520 c 0
 200.333333333 520 176.666666667 506.333333333 136 479 c 0
 82.6666666667 443 53 436.333333333 47 459 c 0
 45.6666666667 463 45 468 45 474 c 0
 45 488.666666667 53.5 502.666666667 70.5 516 c 0
 87.5 529.333333333 116.666666667 545.333333333 158 564 c 2
 215 589 l 1
 215 673 l 2
 215 729.666666667 217.333333333 759.666666667 222 763 c 0xa0
EndSplineSet
EndChar

StartChar: uni0947
Encoding: 2375 2375 48
Width: 789
Flags: HW
LayerCount: 2
Fore
SplineSet
386 685 m 0
 381.333333333 688.333333333 368.666666667 655 348 585 c 0
 344.666666667 573 343.666666667 566.333333333 345 565 c 0
 348.333333333 561.666666667 360.333333333 559.666666667 381 559 c 0
 405.666666667 559 420.166666667 560.166666667 424.5 562.5 c 128
 428.833333333 564.833333333 428.666666667 571.333333333 424 582 c 0
 405.333333333 646 392.666666667 680.333333333 386 685 c 0
375 758 m 0
 381.666666667 766 389.666666667 766.333333333 399 759 c 128
 408.333333333 751.666666667 413 745 413 739 c 128
 413 733 450.833333333 630.833333333 526.5 432.5 c 128
 602.166666667 234.166666667 656.333333333 94.3333333333 689 13 c 0
 725 -73.6666666667 743 -124 743 -138 c 0
 743 -151.333333333 723.166666667 -160 683.5 -164 c 128
 643.833333333 -168 560 -170 432 -170 c 0
 172.666666667 -170 43 -161.666666667 43 -145 c 0
 43 -137 68.3333333333 -65 119 71 c 0
 127 92.3333333333 151.333333333 158.333333333 192 269 c 128
 232.666666667 379.666666667 262 460 280 510 c 0
 336 666.666666667 367.666666667 749.333333333 375 758 c 0
451 493 m 0
 449.666666667 502.333333333 445.666666667 508.5 439 511.5 c 128
 432.333333333 514.5 417 516.666666667 393 518 c 0
 339.666666667 520.666666667 313 509 313 483 c 0
 313 474.333333333 336.666666667 470 384 470 c 0
 417.333333333 470 437.166666667 471.166666667 443.5 473.5 c 128
 449.833333333 475.833333333 452.333333333 482.333333333 451 493 c 0
480 412 m 0
 470.666666667 417.333333333 439.333333333 420 386 420 c 0
 349.333333333 420 325.666666667 418.833333333 315 416.5 c 128
 304.333333333 414.166666667 295.666666667 408 289 398 c 0
 278.333333333 383.333333333 275.666666667 373.333333333 281 368 c 128
 286.333333333 362.666666667 324 360.666666667 394 362 c 0
 443.333333333 363.333333333 472.833333333 365.166666667 482.5 367.5 c 128
 492.166666667 369.833333333 496.333333333 375.666666667 495 385 c 0
 492.333333333 397.666666667 487.333333333 406.666666667 480 412 c 0
514 310 m 0
 496 319.333333333 432.333333333 319.666666667 323 311 c 0
 289 308.333333333 267.833333333 305.5 259.5 302.5 c 128
 251.166666667 299.5 246.333333333 293 245 283 c 0
 243.666666667 271.666666667 248.833333333 265 260.5 263 c 128
 272.166666667 261 314.333333333 260 387 260 c 0
 456.333333333 260 498 261 512 263 c 128
 526 265 533 270.666666667 533 280 c 0
 533 292.666666667 526.666666667 302.666666667 514 310 c 0
572 188 m 0
 568 198.666666667 558.333333333 205 543 207 c 128
 527.666666667 209 478.333333333 210 395 210 c 0
 347.666666667 210 312.833333333 209.666666667 290.5 209 c 128
 268.166666667 208.333333333 249.5 206.333333333 234.5 203 c 128
 219.5 199.666666667 210.5 195.5 207.5 190.5 c 128
 204.5 185.5 203 178 203 168 c 0
 203 159.333333333 212.166666667 154.166666667 230.5 152.5 c 128
 248.833333333 150.833333333 301 150 387 150 c 0
 511 150 574 152.666666667 576 158 c 0
 579.333333333 162.666666667 578 172.666666667 572 188 c 0
613 79 m 0
 607.666666667 89 594.833333333 95 574.5 97 c 128
 554.166666667 99 493.666666667 100 393 100 c 128
 292.333333333 100 231.833333333 99 211.5 97 c 128
 191.166666667 95 178.333333333 89 173 79 c 0
 164.333333333 65 162.666666667 56 168 52 c 0
 171.333333333 48.6666666667 246.666666667 47.3333333333 394 48 c 128
 541.333333333 48.6666666667 617 50.6666666667 621 54 c 0
 624.333333333 57.3333333333 621.666666667 65.6666666667 613 79 c 0
651 -27 m 1
 648 -5 l 1
 397 -2 l 2
 231 -0.666666666667 145.333333333 -2 140 -6 c 0
 135.333333333 -10.6666666667 133 -19.3333333333 133 -32 c 0
 133 -40.6666666667 145.666666667 -45.8333333333 171 -47.5 c 128
 196.333333333 -49.1666666667 270.666666667 -50 394 -50 c 2
 654 -50 l 1
 651 -27 l 1
682 -105 m 0
 678.666666667 -101.666666667 593.333333333 -98.8333333333 426 -96.5 c 128
 258.666666667 -94.1666666667 163.333333333 -94.3333333333 140 -97 c 0
 132 -97.6666666667 125.333333333 -98.8333333333 120 -100.5 c 128
 114.666666667 -102.166666667 110.666666667 -104 108 -106 c 128
 105.333333333 -108 104.666666667 -110.333333333 106 -113 c 0
 108.666666667 -121 202.666666667 -126 388 -128 c 128
 573.333333333 -130 669.666666667 -127.333333333 677 -120 c 0
 683 -114 684.666666667 -109 682 -105 c 0
EndSplineSet
EndChar

StartChar: uni0948
Encoding: 2376 2376 49
Width: 975
Flags: HW
LayerCount: 2
Fore
SplineSet
699 758 m 4
 715 774 728.333007812 772.333007812 739 753 c 4
 745.666992188 739.666992188 748.333007812 721.333007812 747 698 c 4
 747 694 747 694 747 687 c 4
 746.333007812 675 745.833007812 666.666992188 745.5 662 c 132
 745.166992188 657.333007812 746 652 748 646 c 132
 750 640 751.666992188 636.5 753 635.5 c 132
 754.333007812 634.5 758.833007812 633.166992188 766.5 631.5 c 132
 774.166992188 629.833007812 781.166992188 629.166992188 787.5 629.5 c 132
 793.833007812 629.833007812 804.666992188 630.333007812 820 631 c 4
 826.666992188 631.666992188 831.666992188 632 835 632 c 6
 922 635 l 5
 922 610 l 6
 922 597.333007812 918.333007812 589.833007812 911 587.5 c 132
 903.666992188 585.166992188 878.666992188 583.333007812 836 582 c 6
 836 582 836 582 835 582 c 4
 793.666992188 580.666992188 768.5 578.666992188 759.5 576 c 132
 750.5 573.333007812 744.333007812 566.333007812 741 555 c 4
 739 545 737.5 537.166992188 736.5 531.5 c 132
 735.5 525.833007812 735.833007812 520.5 737.5 515.5 c 132
 739.166992188 510.5 741.666992188 506.833007812 745 504.5 c 132
 748.333007812 502.166992188 754.333007812 500.166992188 763 498.5 c 132
 771.666992188 496.833007812 781 495.833007812 791 495.5 c 132
 801 495.166992188 814.666992188 495 832 495 c 4
 876.666992188 495 902.833007812 494 910.5 492 c 132
 918.166992188 490 922 482.666992188 922 470 c 4
 922 458 918 450.666992188 910 448 c 132
 902 445.333007812 876 442.666992188 832 440 c 4
 787.333007812 437.333007812 761.166992188 434.666992188 753.5 432 c 132
 745.833007812 429.333007812 741 421.333007812 739 408 c 4
 739 407 739 407 739 404 c 4
 737 390.666992188 740 382.833007812 748 380.5 c 132
 756 378.166992188 784.333007812 376.666992188 833 376 c 4
 839 376 839 376 842 376 c 4
 879.333007812 375.333007812 902.166992188 373.833007812 910.5 371.5 c 132
 918.833007812 369.166992188 923.666992188 363 925 353 c 4
 927 344.333007812 926 338.166992188 922 334.5 c 132
 918 330.833007812 909.666992188 327.666992188 897 325 c 4
 875.666992188 320.333007812 850.333007812 320.333007812 821 325 c 4
 791 329.666992188 769.5 329.5 756.5 324.5 c 132
 743.5 319.5 737 309 737 293 c 4
 737 280.333007812 740.5 273 747.5 271 c 132
 754.5 269 778.666992188 268.666992188 820 270 c 4
 824 270 824 270 831 270 c 4
 879 271.333007812 907 271 915 269 c 132
 923 267 927 259.666992188 927 247 c 4
 927 246 927 246 927 246 c 6
 927 230 921.5 220.333007812 910.5 217 c 132
 899.5 213.666992188 871.666992188 213.666992188 827 217 c 4
 785.666992188 220.333007812 758.166992188 218.5 744.5 211.5 c 132
 730.833007812 204.5 725.666992188 190 729 168 c 4
 731 157.333007812 736.5 150.666992188 745.5 148 c 132
 754.5 145.333007812 781.666992188 142.666992188 827 140 c 4
 828 140 828 140 829 140 c 4
 875 137.333007812 902 134.833007812 910 132.5 c 132
 918 130.166992188 922 122.666992188 922 110 c 132
 922 97.3330078125 918.166992188 89.8330078125 910.5 87.5 c 132
 902.833007812 85.1669921875 876.333007812 83.3330078125 831 82 c 6
 830 82 l 5
 737 79 l 5
 737 45 l 6
 737 23 741.333007812 9 750 3 c 4
 758 -2.3330078125 788.666992188 -5 842 -5 c 4
 882 -5 905.333007812 -6 912 -8 c 132
 918.666992188 -10 922 -17.3330078125 922 -30 c 132
 922 -42.6669921875 918.333007812 -50.1669921875 911 -52.5 c 132
 903.666992188 -54.8330078125 878.666992188 -56.6669921875 836 -58 c 6
 836 -58 836 -58 835 -58 c 6
 747 -61 l 5
 747 -111 l 6
 747 -144.333007812 742 -162.666992188 732 -166 c 4
 719.333007812 -171.333007812 708.666992188 -168 700 -156 c 132
 691.333007812 -144 687 -126.666992188 687 -104 c 6
 687 -60 l 5
 603 -60 l 6
 559.666992188 -60 532.166992188 -57 520.5 -51 c 132
 508.833007812 -45 506.666992188 -32.6669921875 514 -14 c 4
 516 -8 522.333007812 -4 533 -2 c 132
 543.666992188 0 563 0.6669921875 591 0 c 4
 599 0 599 0 613 0 c 4
 656.333007812 -1.3330078125 681.5 -0.6669921875 688.5 2 c 132
 695.5 4.6669921875 698 14.3330078125 696 31 c 4
 696 33.6669921875 695.666992188 35.6669921875 695 37 c 6
 692 75 l 5
 605 78 l 6
 560.333007812 79.3330078125 532.333007812 83 521 89 c 132
 509.666992188 95 507.333007812 107.333007812 514 126 c 4
 516.666992188 133.333007812 523.166992188 137.666992188 533.5 139 c 132
 543.833007812 140.333007812 565 139.666992188 597 137 c 4
 638.333007812 133.666992188 665.333007812 134.5 678 139.5 c 132
 690.666992188 144.5 697 156.666992188 697 176 c 4
 697 193.333007812 690.166992188 205 676.5 211 c 132
 662.833007812 217 636 219.333007812 596 218 c 6
 522 215 l 5
 519 244 l 5
 515 272 l 5
 604 269 l 6
 647.333007812 267 673 266.833007812 681 268.5 c 132
 689 270.166992188 693.666992188 277 695 289 c 4
 697.666992188 306.333007812 692.666992188 317.333007812 680 322 c 132
 667.333007812 326.666992188 641 327.333007812 601 324 c 4
 569 320.666992188 548.5 319.833007812 539.5 321.5 c 132
 530.5 323.166992188 523.333007812 328.666992188 518 338 c 4
 514.666992188 346 513.166992188 352.5 513.5 357.5 c 132
 513.833007812 362.5 518 366.833007812 526 370.5 c 132
 534 374.166992188 544.666992188 376.833007812 558 378.5 c 132
 571.333007812 380.166992188 589.333007812 381.333007812 612 382 c 4
 651.333007812 383.333007812 674.5 385.333007812 681.5 388 c 132
 688.5 390.666992188 692 398 692 410 c 132
 692 422 688.333007812 429.333007812 681 432 c 132
 673.666992188 434.666992188 650 436.666992188 610 438 c 4
 542.666992188 440 509.333007812 450 510 468 c 4
 510 473.333007812 512.666992188 479.333007812 518 486 c 260
 523.333007812 492.666992188 532.166992188 496.666992188 544.5 498 c 132
 556.833007812 499.333007812 579 499.333007812 611 498 c 6
 692 495 l 5
 692 535 l 5
 692 575 l 5
 610 575 l 6
 568 575 539.5 577.833007812 524.5 583.5 c 132
 509.5 589.166992188 504.666992188 599.333007812 510 614 c 4
 512.666992188 620.666992188 520 625 532 627 c 132
 544 629 567.333007812 630 602 630 c 6
 687 630 l 5
 687 688 l 6
 687 726.666992188 691 750 699 758 c 4
222 763 m 0xa0
 225.333333333 767.666666667 235.333333333 770 252 770 c 0
 263.333333333 770 270 766 272 758 c 0
 274 750 275 725 275 683 c 2
 276 595 l 1xa0
 357 554 l 2
 401.666666667 531.333333333 430.333333333 513.833333333 443 501.5 c 0
 455.666666667 489.166666667 457.666666667 476 449 462 c 0
 439.666666667 447.333333333 428.666666667 441.5 416 444.5 c 0
 403.333333333 447.5 381.333333333 460.666666667 350 484 c 0
 309.333333333 514.666666667 285.333333333 530 278 530 c 0
 270 530 267.666666667 481 271 383 c 2
 277 235 l 1
 339 125 l 2
 423 -23.6666666667 465 -114 465 -146 c 0
 465 -155.333333333 463.333333333 -161.666666667 460 -165 c 0
 456.666666667 -168.333333333 450.333333333 -170 441 -170 c 0
 431 -170 419.833333333 -161 407.5 -143 c 0
 395.166666667 -125 371.666666667 -83.3333333333 337 -18 c 0
 283.666666667 83.3333333333 253.666666667 135.333333333 247 138 c 0
 241 140 232.333333333 123.333333333 221 88 c 0
 207.666666667 42 188 -12 162 -74 c 0
 136 -136 119.333333333 -169.333333333 112 -174 c 0
 101.333333333 -180.666666667 90.8333333333 -181 80.5 -175 c 0
 70.1666666667 -169 65 -159.333333333 65 -146 c 0
 65 -130 88 -69.3333333333 134 36 c 2
 202 195 l 1xc0
 210 358 l 2
 214 466 213 520 207 520 c 0
 200.333333333 520 176.666666667 506.333333333 136 479 c 0
 82.6666666667 443 53 436.333333333 47 459 c 0
 45.6666666667 463 45 468 45 474 c 0
 45 488.666666667 53.5 502.666666667 70.5 516 c 0
 87.5 529.333333333 116.666666667 545.333333333 158 564 c 2
 215 589 l 1
 215 673 l 2
 215 729.666666667 217.333333333 759.666666667 222 763 c 0xa0
EndSplineSet
EndChar

StartChar: uni090A
Encoding: 2314 2314 50
Width: 832
Flags: HW
LayerCount: 2
Fore
SplineSet
335 695 m 0
 365 738.333333333 385.666666667 760 397 760 c 0
 406.333333333 760 418.333333333 752.333333333 433 737 c 128
 447.666666667 721.666666667 468 695 494 657 c 0
 502.666666667 644.333333333 511.166666667 633.333333333 519.5 624 c 128
 527.833333333 614.666666667 533 610 535 610 c 0
 541 610 559.666666667 633.666666667 591 681 c 0
 609.666666667 709 623.666666667 727.5 633 736.5 c 128
 642.333333333 745.5 651.333333333 749.333333333 660 748 c 0
 684.666666667 744.666666667 688.666666667 728.666666667 672 700 c 0
 664 686 650.666666667 668 632 646 c 0
 604 612 587.166666667 587.166666667 581.5 571.5 c 128
 575.833333333 555.833333333 578.333333333 542.666666667 589 532 c 256
 599.666666667 521.333333333 610 519.666666667 620 527 c 128
 630 534.333333333 648.333333333 557 675 595 c 0
 711 645 735.333333333 670 748 670 c 0
 773.333333333 670 778.333333333 655.666666667 763 627 c 0
 755 611 740 589 718 561 c 0
 677.333333333 507 657 475.666666667 657 467 c 256
 657 458.333333333 677 429 717 379 c 0
 757 330.333333333 777 303 777 297 c 0
 777 281 754.666666667 246 710 192 c 0
 681.333333333 154.666666667 667 131.333333333 667 122 c 0
 667 110.666666667 684 85 718 45 c 0
 766 -12.3333333333 784 -50.3333333333 772 -69 c 0
 763.333333333 -83.6666666667 749 -80.3333333333 729 -59 c 0
 718.333333333 -47.6666666667 704 -29.6666666667 686 -5 c 0
 657.333333333 35 637 57.6666666667 625 63 c 128
 613 68.3333333333 600.666666667 60 588 38 c 0
 584 30.6666666667 581.333333333 25.3333333333 580 22 c 128
 578.666666667 18.6666666667 579.833333333 13.3333333333 583.5 6 c 128
 587.166666667 -1.33333333333 592 -8.66666666667 598 -16 c 128
 604 -23.3333333333 615 -36.3333333333 631 -55 c 0
 688.333333333 -123.666666667 699.666666667 -161.333333333 665 -168 c 0
 653 -170 636.333333333 -155.333333333 615 -124 c 0
 590.333333333 -88 572.333333333 -64 561 -52 c 0
 560.333333333 -50.6666666667 559 -49 557 -47 c 0
 547.666666667 -35.6666666667 540 -32.1666666667 534 -36.5 c 128
 528 -40.8333333333 511 -61.6666666667 483 -99 c 0
 479.666666667 -103.666666667 477 -107.333333333 475 -110 c 0
 449 -144.666666667 427.666666667 -161.166666667 411 -159.5 c 128
 394.333333333 -157.833333333 371.333333333 -136.666666667 342 -96 c 0
 310 -52 291.666666667 -30 287 -30 c 0
 281 -30 270.666666667 -42.3333333333 256 -67 c 0
 240 -93 222.166666667 -116.666666667 202.5 -138 c 128
 182.833333333 -159.333333333 169.333333333 -170 162 -170 c 0
 153.333333333 -170 145.333333333 -165.333333333 138 -156 c 0
 134 -150.666666667 133.666666667 -143.833333333 137 -135.5 c 128
 140.333333333 -127.166666667 149.666666667 -113.333333333 165 -94 c 0
 194.333333333 -58.6666666667 214.666666667 -36 226 -26 c 0
 249.333333333 -4.66666666667 253 21 237 51 c 0
 228.333333333 67 218 71.8333333333 206 65.5 c 128
 194 59.1666666667 174.333333333 38.6666666667 147 4 c 0
 94.3333333333 -64 65 -76.6666666667 59 -34 c 0
 57 -20 74.6666666667 7.66666666667 112 49 c 0
 148.666666667 90.3333333333 167 115 167 123 c 0
 167 130.333333333 148.666666667 157.333333333 112 204 c 128
 75.3333333333 250.666666667 57 278.333333333 57 287 c 0
 57 296.333333333 75.3333333333 326.666666667 112 378 c 128
 148.666666667 429.333333333 167 459.333333333 167 468 c 0
 167 478 147 504.666666667 107 548 c 0
 66.3333333333 592.666666667 47 621.666666667 49 635 c 0
 55 675.666666667 86 661 142 591 c 0
 180 543.666666667 201.666666667 520 207 520 c 0
 213.666666667 520 222.333333333 528.333333333 233 545 c 0
 233.666666667 546.333333333 234.666666667 547.666666667 236 549 c 0
 243.333333333 560.333333333 244.666666667 570.333333333 240 579 c 128
 235.333333333 587.666666667 215 613 179 655 c 0
 172.333333333 663 167 669.333333333 163 674 c 0
 137.666666667 704.666666667 127 725.333333333 131 736 c 0
 139.666666667 758.666666667 159.666666667 755.333333333 191 726 c 0
 201.666666667 716 213 703.333333333 225 688 c 0
 237 672 248.5 658.333333333 259.5 647 c 128
 270.5 635.666666667 277.666666667 630 281 630 c 256
 284.333333333 630 291.333333333 636.5 302 649.5 c 128
 312.666666667 662.5 323.666666667 677.666666667 335 695 c 0
453 627 m 0
 432.333333333 654.333333333 417.166666667 670.666666667 407.5 676 c 128
 397.833333333 681.333333333 388.666666667 678.666666667 380 668 c 0
 356 637.333333333 307.833333333 567.5 235.5 458.5 c 128
 163.166666667 349.5 127 292.333333333 127 287 c 0
 127 277.666666667 173 213.333333333 265 94 c 128
 357 -25.3333333333 406.666666667 -85 414 -85 c 0
 420.666666667 -85 471 -25 565 95 c 128
 659 215 706.333333333 279.333333333 707 288 c 0
 707 297.333333333 671.333333333 347.333333333 600 438 c 0
 577.333333333 467.333333333 548.166666667 505 512.5 551 c 128
 476.833333333 597 457 622.333333333 453 627 c 0
EndSplineSet
EndChar

StartChar: ki
Encoding: 65538 -1 51
Width: 1000
Flags: HW
LayerCount: 2
Fore
SplineSet
724 758 m 4
 740 774 753.333007812 772.333007812 764 753 c 4
 770.666992188 739.666992188 773.333007812 721.333007812 772 698 c 4
 772 694 772 694 772 687 c 4
 771.333007812 675 770.833007812 666.666992188 770.5 662 c 132
 770.166992188 657.333007812 771 652 773 646 c 132
 775 640 776.666992188 636.5 778 635.5 c 132
 779.333007812 634.5 783.833007812 633.166992188 791.5 631.5 c 132
 799.166992188 629.833007812 806.166992188 629.166992188 812.5 629.5 c 132
 818.833007812 629.833007812 829.666992188 630.333007812 845 631 c 4
 851.666992188 631.666992188 856.666992188 632 860 632 c 6
 947 635 l 5
 947 610 l 6
 947 597.333007812 943.333007812 589.833007812 936 587.5 c 132
 928.666992188 585.166992188 903.666992188 583.333007812 861 582 c 6
 861 582 861 582 860 582 c 4
 818.666992188 580.666992188 793.5 578.666992188 784.5 576 c 132
 775.5 573.333007812 769.333007812 566.333007812 766 555 c 4
 764 545 762.5 537.166992188 761.5 531.5 c 132
 760.5 525.833007812 760.833007812 520.5 762.5 515.5 c 132
 764.166992188 510.5 766.666992188 506.833007812 770 504.5 c 132
 773.333007812 502.166992188 779.333007812 500.166992188 788 498.5 c 132
 796.666992188 496.833007812 806 495.833007812 816 495.5 c 132
 826 495.166992188 839.666992188 495 857 495 c 4
 901.666992188 495 927.833007812 494 935.5 492 c 132
 943.166992188 490 947 482.666992188 947 470 c 4
 947 458 943 450.666992188 935 448 c 132
 927 445.333007812 901 442.666992188 857 440 c 4
 812.333007812 437.333007812 786.166992188 434.666992188 778.5 432 c 132
 770.833007812 429.333007812 766 421.333007812 764 408 c 4
 764 407 764 407 764 404 c 4
 762 390.666992188 765 382.833007812 773 380.5 c 132
 781 378.166992188 809.333007812 376.666992188 858 376 c 4
 864 376 864 376 867 376 c 4
 904.333007812 375.333007812 927.166992188 373.833007812 935.5 371.5 c 132
 943.833007812 369.166992188 948.666992188 363 950 353 c 4
 952 344.333007812 951 338.166992188 947 334.5 c 132
 943 330.833007812 934.666992188 327.666992188 922 325 c 4
 900.666992188 320.333007812 875.333007812 320.333007812 846 325 c 4
 816 329.666992188 794.5 329.5 781.5 324.5 c 132
 768.5 319.5 762 309 762 293 c 4
 762 280.333007812 765.5 273 772.5 271 c 132
 779.5 269 803.666992188 268.666992188 845 270 c 4
 849 270 849 270 856 270 c 4
 904 271.333007812 932 271 940 269 c 132
 948 267 952 259.666992188 952 247 c 4
 952 246 952 246 952 246 c 6
 952 230 946.5 220.333007812 935.5 217 c 132
 924.5 213.666992188 896.666992188 213.666992188 852 217 c 4
 810.666992188 220.333007812 783.166992188 218.5 769.5 211.5 c 132
 755.833007812 204.5 750.666992188 190 754 168 c 4
 756 157.333007812 761.5 150.666992188 770.5 148 c 132
 779.5 145.333007812 806.666992188 142.666992188 852 140 c 4
 853 140 853 140 854 140 c 4
 900 137.333007812 927 134.833007812 935 132.5 c 132
 943 130.166992188 947 122.666992188 947 110 c 132
 947 97.3330078125 943.166992188 89.8330078125 935.5 87.5 c 132
 927.833007812 85.1669921875 901.333007812 83.3330078125 856 82 c 6
 855 82 l 5
 762 79 l 5
 762 45 l 6
 762 23 766.333007812 9 775 3 c 4
 783 -2.3330078125 813.666992188 -5 867 -5 c 4
 907 -5 930.333007812 -6 937 -8 c 132
 943.666992188 -10 947 -17.3330078125 947 -30 c 132
 947 -42.6669921875 943.333007812 -50.1669921875 936 -52.5 c 132
 928.666992188 -54.8330078125 903.666992188 -56.6669921875 861 -58 c 6
 861 -58 861 -58 860 -58 c 6
 772 -61 l 5
 772 -111 l 6
 772 -144.333007812 767 -162.666992188 757 -166 c 4
 744.333007812 -171.333007812 733.666992188 -168 725 -156 c 132
 716.333007812 -144 712 -126.666992188 712 -104 c 6
 712 -60 l 5
 628 -60 l 6
 584.666992188 -60 557.166992188 -57 545.5 -51 c 132
 533.833007812 -45 531.666992188 -32.6669921875 539 -14 c 4
 541 -8 547.333007812 -4 558 -2 c 132
 568.666992188 0 588 0.6669921875 616 0 c 4
 624 0 624 0 638 0 c 4
 681.333007812 -1.3330078125 706.5 -0.6669921875 713.5 2 c 132
 720.5 4.6669921875 723 14.3330078125 721 31 c 4
 721 33.6669921875 720.666992188 35.6669921875 720 37 c 6
 717 75 l 5
 630 78 l 6
 585.333007812 79.3330078125 557.333007812 83 546 89 c 132
 534.666992188 95 532.333007812 107.333007812 539 126 c 4
 541.666992188 133.333007812 548.166992188 137.666992188 558.5 139 c 132
 568.833007812 140.333007812 590 139.666992188 622 137 c 4
 663.333007812 133.666992188 690.333007812 134.5 703 139.5 c 132
 715.666992188 144.5 722 156.666992188 722 176 c 4
 722 193.333007812 715.166992188 205 701.5 211 c 132
 687.833007812 217 661 219.333007812 621 218 c 6
 547 215 l 5
 544 244 l 5
 540 272 l 5
 629 269 l 6
 672.333007812 267 698 266.833007812 706 268.5 c 132
 714 270.166992188 718.666992188 277 720 289 c 4
 722.666992188 306.333007812 717.666992188 317.333007812 705 322 c 132
 692.333007812 326.666992188 666 327.333007812 626 324 c 4
 594 320.666992188 573.5 319.833007812 564.5 321.5 c 132
 555.5 323.166992188 548.333007812 328.666992188 543 338 c 4
 539.666992188 346 538.166992188 352.5 538.5 357.5 c 132
 538.833007812 362.5 543 366.833007812 551 370.5 c 132
 559 374.166992188 569.666992188 376.833007812 583 378.5 c 132
 596.333007812 380.166992188 614.333007812 381.333007812 637 382 c 4
 676.333007812 383.333007812 699.5 385.333007812 706.5 388 c 132
 713.5 390.666992188 717 398 717 410 c 132
 717 422 713.333007812 429.333007812 706 432 c 132
 698.666992188 434.666992188 675 436.666992188 635 438 c 4
 567.666992188 440 534.333007812 450 535 468 c 4
 535 473.333007812 537.666992188 479.333007812 543 486 c 260
 548.333007812 492.666992188 557.166992188 496.666992188 569.5 498 c 132
 581.833007812 499.333007812 604 499.333007812 636 498 c 6
 717 495 l 5
 717 535 l 5
 717 575 l 5
 635 575 l 6
 593 575 564.5 577.833007812 549.5 583.5 c 132
 534.5 589.166992188 529.666992188 599.333007812 535 614 c 4
 537.666992188 620.666992188 545 625 557 627 c 132
 569 629 592.333007812 630 627 630 c 6
 712 630 l 5
 712 688 l 6
 712 726.666992188 716 750 724 758 c 4
52 755 m 0
 54.6666666667 763 60 767.666666667 68 769 c 0
 76 770.333333333 85 768 95 762 c 0
 102.333333333 757.333333333 126.666666667 705 168 605 c 0
 177.333333333 581 187.666666667 555.333333333 199 528 c 0
 210.333333333 500.666666667 219.5 478.333333333 226.5 461 c 0
 233.5 443.666666667 237.666666667 433.666666667 239 431 c 0
 241.666666667 424.333333333 244.833333333 419.5 248.5 416.5 c 0
 252.166666667 413.5 255.333333333 413.333333333 258 416 c 0
 263.333333333 421.333333333 285 476 323 580 c 0
 352.333333333 660 373.333333333 711.666666667 386 735 c 0
 398.666666667 758.333333333 411.333333333 767.666666667 424 763 c 0
 430 761 434.5 758 437.5 754 c 0
 440.5 750 442.333333333 744.166666667 443 736.5 c 0
 443.666666667 728.833333333 442.833333333 719.833333333 440.5 709.5 c 0
 438.166666667 699.166666667 434 685.333333333 428 668 c 0
 422 650.666666667 414.833333333 631.333333333 406.5 610 c 0
 398.166666667 588.666666667 387.333333333 562.333333333 374 531 c 0
 356.666666667 489.666666667 343.833333333 458.833333333 335.5 438.5 c 0
 327.166666667 418.166666667 319.5 396.166666667 312.5 372.5 c 0
 305.5 348.833333333 301.5 331.833333333 300.5 321.5 c 0
 299.5 311.166666667 300.166666667 297.833333333 302.5 281.5 c 0
 304.833333333 265.166666667 308.5 251.333333333 313.5 240 c 0
 318.5 228.666666667 326.333333333 212.666666667 337 192 c 0
 360.333333333 145.333333333 387.5 86 418.5 14 c 0
 449.5 -58 466 -99.3333333333 468 -110 c 0
 470 -126.666666667 469.333333333 -137.5 466 -142.5 c 0
 462.666666667 -147.5 454.333333333 -149.333333333 441 -148 c 0
 431.666666667 -146.666666667 423.666666667 -142.333333333 417 -135 c 0
 410.333333333 -127.666666667 401.833333333 -113.5 391.5 -92.5 c 0
 381.166666667 -71.5 364.666666667 -34 342 20 c 0
 322 67.3333333333 304 106.666666667 288 138 c 0
 272 169.333333333 262 185 258 185 c 256
 254 185 249.5 181.166666667 244.5 173.5 c 0
 239.5 165.833333333 235 156.333333333 231 145 c 0
 215 100.333333333 190.666666667 41.5 158 -31.5 c 0
 125.333333333 -104.5 104.666666667 -145.666666667 96 -155 c 0
 86 -165 79.6666666667 -170 77 -170 c 0
 74.3333333333 -170 69.6666666667 -165.333333333 63 -156 c 0
 57 -148.666666667 53.5 -142 52.5 -136 c 0
 51.5 -130 54 -117.166666667 60 -97.5 c 0
 66 -77.8333333333 74.3333333333 -55.5 85 -30.5 c 0
 95.6666666667 -5.5 113.666666667 35 139 91 c 0
 160.333333333 139 178.833333333 183.333333333 194.5 224 c 0
 210.166666667 264.666666667 218 289.333333333 218 298 c 256
 218 306.666666667 210.166666667 331.666666667 194.5 373 c 0
 178.833333333 414.333333333 160 459.666666667 138 509 c 0
 95.3333333333 604.333333333 69.1666666667 666.166666667 59.5 694.5 c 0
 49.8333333333 722.833333333 47.3333333333 743 52 755 c 0
  Spiro
    52 755 o
    58 764.5 o
    68 769 o
    80.75 768.25 o
    95 762 o
    118.75 719.25 o
    168 605 o
    182.75 567.75 o
    199 528 o
    214.375 490.75 o
    226.5 461 o
    234.875 440.5 o
    239 431 o
    243.375 422.375 o
    248.5 416.5 o
    253.625 414.125 o
    258 416 o
    278.25 461 o
    323 580 o
    360.75 678.75 o
    386 735 o
    405 759.5 o
    424 763 o
    431.875 759.25 o
    437.5 754 o
    441.125 746.625 o
    443 736.5 o
    442.875 724 o
    440.5 709.5 o
    435.625 691.375 o
    428 668 o
    418.125 640.5 o
    406.5 610 o
    392.125 574.25 o
    374 531 o
    351.375 476.875 o
    335.5 438.5 o
    323.5 406.75 o
    312.5 372.5 o
    304.25 342 o
    300.5 321.5 o
    300.25 303.75 o
    302.5 281.5 o
    307 258.875 o
    313.5 240 o
    323.125 219.5 o
    337 192 o
    374.875 112.5 o
    418.5 14 o
    454.125 -71 o
    468 -110 o
    469 -130.625 o
    466 -142.5 o
    457.25 -147.625 o
    441 -148 o
    428 -143.75 o
    417 -135 o
    405.625 -118.875 o
    391.5 -92.5 o
    371.375 -48.625 o
    342 20 o
    313.5 85 o
    288 138 o
    268.5 173.25 o
    258 185 o
    251.625 182.125 o
    244.5 173.5 o
    237.375 160.625 o
    231 145 o
    200.75 67.375 o
    158 -31.5 o
    118 -117.125 o
    96 -155 o
    83.75 -166.25 o
    77 -170 o
    71.5 -166.5 o
    63 -156 o
    55.875 -145.5 o
    52.5 -136 o
    53.625 -121.875 o
    60 -97.5 o
    70.75 -66 o
    85 -30.5 o
    106.5 18.625 o
    139 91 o
    168.875 160.25 o
    194.5 224 o
    212.125 273 o
    218 298 o
    212.125 323.25 o
    194.5 373 o
    168.625 438 o
    138 509 o
    86.375 626.875 o
    59.5 694.5 o
    50.375 730.875 o
    0 0 z
  EndSpiro
EndSplineSet
Ligature2: "i dlig" uni093F uni0915
LCarets2: 1 0
EndChar

StartChar: gi
Encoding: 65539 -1 52
Width: 1125
Flags: HW
LayerCount: 2
Fore
SplineSet
849 758 m 0
 865 774 878.333007812 772.333007812 889 753 c 0
 895.666992188 739.666992188 898.333007812 721.333007812 897 698 c 0
 897 694 897 694 897 687 c 0
 896.333007812 675 895.833007812 666.666992188 895.5 662 c 128
 895.166992188 657.333007812 896 652 898 646 c 128
 900 640 901.666992188 636.5 903 635.5 c 128
 904.333007812 634.5 908.833007812 633.166992188 916.5 631.5 c 128
 924.166992188 629.833007812 931.166992188 629.166992188 937.5 629.5 c 128
 943.833007812 629.833007812 954.666992188 630.333007812 970 631 c 0
 976.666992188 631.666992188 981.666992188 632 985 632 c 2
 1072 635 l 1
 1072 610 l 2
 1072 597.333007812 1068.33300781 589.833007812 1061 587.5 c 128
 1053.66699219 585.166992188 1028.66699219 583.333007812 986 582 c 2
 986 582 986 582 985 582 c 0
 943.666992188 580.666992188 918.5 578.666992188 909.5 576 c 128
 900.5 573.333007812 894.333007812 566.333007812 891 555 c 0
 889 545 887.5 537.166992188 886.5 531.5 c 128
 885.5 525.833007812 885.833007812 520.5 887.5 515.5 c 128
 889.166992188 510.5 891.666992188 506.833007812 895 504.5 c 128
 898.333007812 502.166992188 904.333007812 500.166992188 913 498.5 c 128
 921.666992188 496.833007812 931 495.833007812 941 495.5 c 128
 951 495.166992188 964.666992188 495 982 495 c 0
 1026.66699219 495 1052.83300781 494 1060.5 492 c 128
 1068.16699219 490 1072 482.666992188 1072 470 c 0
 1072 458 1068 450.666992188 1060 448 c 128
 1052 445.333007812 1026 442.666992188 982 440 c 0
 937.333007812 437.333007812 911.166992188 434.666992188 903.5 432 c 128
 895.833007812 429.333007812 891 421.333007812 889 408 c 0
 889 407 889 407 889 404 c 0
 887 390.666992188 890 382.833007812 898 380.5 c 128
 906 378.166992188 934.333007812 376.666992188 983 376 c 0
 989 376 989 376 992 376 c 0
 1029.33300781 375.333007812 1052.16699219 373.833007812 1060.5 371.5 c 128
 1068.83300781 369.166992188 1073.66699219 363 1075 353 c 0
 1077 344.333007812 1076 338.166992188 1072 334.5 c 128
 1068 330.833007812 1059.66699219 327.666992188 1047 325 c 0
 1025.66699219 320.333007812 1000.33300781 320.333007812 971 325 c 0
 941 329.666992188 919.5 329.5 906.5 324.5 c 128
 893.5 319.5 887 309 887 293 c 0
 887 280.333007812 890.5 273 897.5 271 c 128
 904.5 269 928.666992188 268.666992188 970 270 c 0
 974 270 974 270 981 270 c 0
 1029 271.333007812 1057 271 1065 269 c 128
 1073 267 1077 259.666992188 1077 247 c 0
 1077 246 1077 246 1077 246 c 2
 1077 230 1071.5 220.333007812 1060.5 217 c 128
 1049.5 213.666992188 1021.66699219 213.666992188 977 217 c 0
 935.666992188 220.333007812 908.166992188 218.5 894.5 211.5 c 128
 880.833007812 204.5 875.666992188 190 879 168 c 0
 881 157.333007812 886.5 150.666992188 895.5 148 c 128
 904.5 145.333007812 931.666992188 142.666992188 977 140 c 0
 978 140 978 140 979 140 c 0
 1025 137.333007812 1052 134.833007812 1060 132.5 c 128
 1068 130.166992188 1072 122.666992188 1072 110 c 128
 1072 97.3330078125 1068.16699219 89.8330078125 1060.5 87.5 c 128
 1052.83300781 85.1669921875 1026.33300781 83.3330078125 981 82 c 2
 980 82 l 1
 887 79 l 1
 887 45 l 2
 887 23 891.333007812 9 900 3 c 0
 908 -2.3330078125 938.666992188 -5 992 -5 c 0
 1032 -5 1055.33300781 -6 1062 -8 c 128
 1068.66699219 -10 1072 -17.3330078125 1072 -30 c 128
 1072 -42.6669921875 1068.33300781 -50.1669921875 1061 -52.5 c 128
 1053.66699219 -54.8330078125 1028.66699219 -56.6669921875 986 -58 c 2
 986 -58 986 -58 985 -58 c 2
 897 -61 l 1
 897 -111 l 2
 897 -144.333007812 892 -162.666992188 882 -166 c 0
 869.333007812 -171.333007812 858.666992188 -168 850 -156 c 128
 841.333007812 -144 837 -126.666992188 837 -104 c 2
 837 -60 l 1
 753 -60 l 2
 709.666992188 -60 682.166992188 -57 670.5 -51 c 128
 658.833007812 -45 656.666992188 -32.6669921875 664 -14 c 0
 666 -8 672.333007812 -4 683 -2 c 128
 693.666992188 0 713 0.6669921875 741 0 c 0
 749 0 749 0 763 0 c 0
 806.333007812 -1.3330078125 831.5 -0.6669921875 838.5 2 c 128
 845.5 4.6669921875 848 14.3330078125 846 31 c 0
 846 33.6669921875 845.666992188 35.6669921875 845 37 c 2
 842 75 l 1
 755 78 l 2
 710.333007812 79.3330078125 682.333007812 83 671 89 c 128
 659.666992188 95 657.333007812 107.333007812 664 126 c 0
 666.666992188 133.333007812 673.166992188 137.666992188 683.5 139 c 128
 693.833007812 140.333007812 715 139.666992188 747 137 c 0
 788.333007812 133.666992188 815.333007812 134.5 828 139.5 c 128
 840.666992188 144.5 847 156.666992188 847 176 c 0
 847 193.333007812 840.166992188 205 826.5 211 c 128
 812.833007812 217 786 219.333007812 746 218 c 2
 672 215 l 1
 669 244 l 1
 665 272 l 1
 754 269 l 2
 797.333007812 267 823 266.833007812 831 268.5 c 128
 839 270.166992188 843.666992188 277 845 289 c 0
 847.666992188 306.333007812 842.666992188 317.333007812 830 322 c 128
 817.333007812 326.666992188 791 327.333007812 751 324 c 0
 719 320.666992188 698.5 319.833007812 689.5 321.5 c 128
 680.5 323.166992188 673.333007812 328.666992188 668 338 c 0
 664.666992188 346 663.166992188 352.5 663.5 357.5 c 128
 663.833007812 362.5 668 366.833007812 676 370.5 c 128
 684 374.166992188 694.666992188 376.833007812 708 378.5 c 128
 721.333007812 380.166992188 739.333007812 381.333007812 762 382 c 0
 801.333007812 383.333007812 824.5 385.333007812 831.5 388 c 128
 838.5 390.666992188 842 398 842 410 c 128
 842 422 838.333007812 429.333007812 831 432 c 128
 823.666992188 434.666992188 800 436.666992188 760 438 c 0
 692.666992188 440 659.333007812 450 660 468 c 0
 660 473.333007812 662.666992188 479.333007812 668 486 c 256
 673.333007812 492.666992188 682.166992188 496.666992188 694.5 498 c 128
 706.833007812 499.333007812 729 499.333007812 761 498 c 2
 842 495 l 1
 842 535 l 1
 842 575 l 1
 760 575 l 2
 718 575 689.5 577.833007812 674.5 583.5 c 128
 659.5 589.166992188 654.666992188 599.333007812 660 614 c 0
 662.666992188 620.666992188 670 625 682 627 c 128
 694 629 717.333007812 630 752 630 c 2
 837 630 l 1
 837 688 l 2
 837 726.666992188 841 750 849 758 c 0
366 728 m 4
 373.333007812 744.666992188 383.166992188 755 395.5 759 c 4
 407.833007812 763 418.666992188 759.333007812 428 748 c 4
 434.666992188 740 470.333007812 668 535 532 c 4
 562.333007812 474.666992188 582.833007812 430.666992188 596.5 400 c 4
 610.166992188 369.333007812 619.5 343.833007812 624.5 323.5 c 4
 629.5 303.166992188 629.833007812 289.833007812 625.5 283.5 c 4
 621.166992188 277.166992188 612.666992188 273.333007812 600 272 c 4
 583.333007812 270 571.333007812 273.333007812 564 282 c 4
 558 290 533.666992188 344.333007812 491 445 c 4
 472.333007812 488.333007812 458.333007812 520.5 449 541.5 c 4
 439.666992188 562.5 431.333007812 580.166992188 424 594.5 c 4
 416.666992188 608.833007812 411.833007812 615.666992188 409.5 615 c 4
 407.166992188 614.333007812 404 613.666992188 400 613 c 4
 394 607.666992188 375.666992188 561.666992188 345 475 c 4
 339 458.333007812 312.666992188 385 266 255 c 4
 249.333007812 211 223 143 187 51 c 4
 155.666992188 -25 136.333007812 -77.6669921875 129 -107 c 4
 123 -129.666992188 114.5 -146.166992188 103.5 -156.5 c 4
 92.5 -166.833007812 80.3330078125 -169.333007812 67 -164 c 4
 47.6669921875 -156 42.8330078125 -133 52.5 -95 c 4
 62.1669921875 -57 98 41.3330078125 160 200 c 4
 234 391.333007812 281.333007812 513 302 565 c 4
 312.666992188 593.666992188 325.833007812 627.666992188 341.5 667 c 4
 357.166992188 706.333007812 365.333007812 726.666992188 366 728 c 4
EndSplineSet
LCarets2: 1 0
Ligature2: "i dlig" uni093F uni0918
Ligature2: "i dlig" uni093F uni0917
EndChar

StartChar: Ni
Encoding: 65540 -1 53
Width: 975
VWidth: 2048
Flags: HW
LayerCount: 2
Fore
SplineSet
699 758 m 4
 715 774 728.333007812 772.333007812 739 753 c 4
 745.666992188 739.666992188 748.333007812 721.333007812 747 698 c 4
 747 694 747 694 747 687 c 4
 746.333007812 675 745.833007812 666.666992188 745.5 662 c 132
 745.166992188 657.333007812 746 652 748 646 c 132
 750 640 751.666992188 636.5 753 635.5 c 132
 754.333007812 634.5 758.833007812 633.166992188 766.5 631.5 c 132
 774.166992188 629.833007812 781.166992188 629.166992188 787.5 629.5 c 132
 793.833007812 629.833007812 804.666992188 630.333007812 820 631 c 4
 826.666992188 631.666992188 831.666992188 632 835 632 c 6
 922 635 l 5
 922 610 l 6
 922 597.333007812 918.333007812 589.833007812 911 587.5 c 132
 903.666992188 585.166992188 878.666992188 583.333007812 836 582 c 6
 836 582 836 582 835 582 c 4
 793.666992188 580.666992188 768.5 578.666992188 759.5 576 c 132
 750.5 573.333007812 744.333007812 566.333007812 741 555 c 4
 739 545 737.5 537.166992188 736.5 531.5 c 132
 735.5 525.833007812 735.833007812 520.5 737.5 515.5 c 132
 739.166992188 510.5 741.666992188 506.833007812 745 504.5 c 132
 748.333007812 502.166992188 754.333007812 500.166992188 763 498.5 c 132
 771.666992188 496.833007812 781 495.833007812 791 495.5 c 132
 801 495.166992188 814.666992188 495 832 495 c 4
 876.666992188 495 902.833007812 494 910.5 492 c 132
 918.166992188 490 922 482.666992188 922 470 c 4
 922 458 918 450.666992188 910 448 c 132
 902 445.333007812 876 442.666992188 832 440 c 4
 787.333007812 437.333007812 761.166992188 434.666992188 753.5 432 c 132
 745.833007812 429.333007812 741 421.333007812 739 408 c 4
 739 407 739 407 739 404 c 4
 737 390.666992188 740 382.833007812 748 380.5 c 132
 756 378.166992188 784.333007812 376.666992188 833 376 c 4
 839 376 839 376 842 376 c 4
 879.333007812 375.333007812 902.166992188 373.833007812 910.5 371.5 c 132
 918.833007812 369.166992188 923.666992188 363 925 353 c 4
 927 344.333007812 926 338.166992188 922 334.5 c 132
 918 330.833007812 909.666992188 327.666992188 897 325 c 4
 875.666992188 320.333007812 850.333007812 320.333007812 821 325 c 4
 791 329.666992188 769.5 329.5 756.5 324.5 c 132
 743.5 319.5 737 309 737 293 c 4
 737 280.333007812 740.5 273 747.5 271 c 132
 754.5 269 778.666992188 268.666992188 820 270 c 4
 824 270 824 270 831 270 c 4
 879 271.333007812 907 271 915 269 c 132
 923 267 927 259.666992188 927 247 c 4
 927 246 927 246 927 246 c 6
 927 230 921.5 220.333007812 910.5 217 c 132
 899.5 213.666992188 871.666992188 213.666992188 827 217 c 4
 785.666992188 220.333007812 758.166992188 218.5 744.5 211.5 c 132
 730.833007812 204.5 725.666992188 190 729 168 c 4
 731 157.333007812 736.5 150.666992188 745.5 148 c 132
 754.5 145.333007812 781.666992188 142.666992188 827 140 c 4
 828 140 828 140 829 140 c 4
 875 137.333007812 902 134.833007812 910 132.5 c 132
 918 130.166992188 922 122.666992188 922 110 c 132
 922 97.3330078125 918.166992188 89.8330078125 910.5 87.5 c 132
 902.833007812 85.1669921875 876.333007812 83.3330078125 831 82 c 6
 830 82 l 5
 737 79 l 5
 737 45 l 6
 737 23 741.333007812 9 750 3 c 4
 758 -2.3330078125 788.666992188 -5 842 -5 c 4
 882 -5 905.333007812 -6 912 -8 c 132
 918.666992188 -10 922 -17.3330078125 922 -30 c 132
 922 -42.6669921875 918.333007812 -50.1669921875 911 -52.5 c 132
 903.666992188 -54.8330078125 878.666992188 -56.6669921875 836 -58 c 6
 836 -58 836 -58 835 -58 c 6
 747 -61 l 5
 747 -111 l 6
 747 -144.333007812 742 -162.666992188 732 -166 c 4
 719.333007812 -171.333007812 708.666992188 -168 700 -156 c 132
 691.333007812 -144 687 -126.666992188 687 -104 c 6
 687 -60 l 5
 603 -60 l 6
 559.666992188 -60 532.166992188 -57 520.5 -51 c 132
 508.833007812 -45 506.666992188 -32.6669921875 514 -14 c 4
 516 -8 522.333007812 -4 533 -2 c 132
 543.666992188 0 563 0.6669921875 591 0 c 4
 599 0 599 0 613 0 c 4
 656.333007812 -1.3330078125 681.5 -0.6669921875 688.5 2 c 132
 695.5 4.6669921875 698 14.3330078125 696 31 c 4
 696 33.6669921875 695.666992188 35.6669921875 695 37 c 6
 692 75 l 5
 605 78 l 6
 560.333007812 79.3330078125 532.333007812 83 521 89 c 132
 509.666992188 95 507.333007812 107.333007812 514 126 c 4
 516.666992188 133.333007812 523.166992188 137.666992188 533.5 139 c 132
 543.833007812 140.333007812 565 139.666992188 597 137 c 4
 638.333007812 133.666992188 665.333007812 134.5 678 139.5 c 132
 690.666992188 144.5 697 156.666992188 697 176 c 4
 697 193.333007812 690.166992188 205 676.5 211 c 132
 662.833007812 217 636 219.333007812 596 218 c 6
 522 215 l 5
 519 244 l 5
 515 272 l 5
 604 269 l 6
 647.333007812 267 673 266.833007812 681 268.5 c 132
 689 270.166992188 693.666992188 277 695 289 c 4
 697.666992188 306.333007812 692.666992188 317.333007812 680 322 c 132
 667.333007812 326.666992188 641 327.333007812 601 324 c 4
 569 320.666992188 548.5 319.833007812 539.5 321.5 c 132
 530.5 323.166992188 523.333007812 328.666992188 518 338 c 4
 514.666992188 346 513.166992188 352.5 513.5 357.5 c 132
 513.833007812 362.5 518 366.833007812 526 370.5 c 132
 534 374.166992188 544.666992188 376.833007812 558 378.5 c 132
 571.333007812 380.166992188 589.333007812 381.333007812 612 382 c 4
 651.333007812 383.333007812 674.5 385.333007812 681.5 388 c 132
 688.5 390.666992188 692 398 692 410 c 132
 692 422 688.333007812 429.333007812 681 432 c 132
 673.666992188 434.666992188 650 436.666992188 610 438 c 4
 542.666992188 440 509.333007812 450 510 468 c 4
 510 473.333007812 512.666992188 479.333007812 518 486 c 260
 523.333007812 492.666992188 532.166992188 496.666992188 544.5 498 c 132
 556.833007812 499.333007812 579 499.333007812 611 498 c 6
 692 495 l 5
 692 535 l 5
 692 575 l 5
 610 575 l 6
 568 575 539.5 577.833007812 524.5 583.5 c 132
 509.5 589.166992188 504.666992188 599.333007812 510 614 c 4
 512.666992188 620.666992188 520 625 532 627 c 132
 544 629 567.333007812 630 602 630 c 6
 687 630 l 5
 687 688 l 6
 687 726.666992188 691 750 699 758 c 4
459.200195312 31.640625 m 2
 459.200195312 0.2802734375 455.466796875 -27.7197265625 448 -52.359375 c 128
 440.534179688 -77 429.799804688 -97.8125 415.799804688 -114.799804688 c 128
 401.799804688 -131.786132812 384.813476562 -144.666015625 364.83984375 -153.439453125 c 128
 344.866210938 -162.212890625 322.186523438 -166.599609375 296.799804688 -166.599609375 c 0
 224 -166.599609375 178.080078125 -162.493164062 159.040039062 -154.279296875 c 128
 140 -146.06640625 123.666992188 -133.93359375 110.040039062 -117.87890625 c 128
 96.4130859375 -101.826171875 85.8662109375 -81.666015625 78.400390625 -57.3994140625 c 128
 70.93359375 -33.1328125 67.2001953125 -5.1328125 67.2001953125 26.6005859375 c 2
 67.2001953125 772.520507812 l 2
 67.2001953125 774.760742188 67.6669921875 776.626953125 68.6005859375 778.12109375 c 128
 69.5341796875 779.61328125 71.0263671875 780.827148438 73.080078125 781.760742188 c 128
 75.1337890625 782.694335938 77.93359375 783.534179688 81.4794921875 784.280273438 c 128
 85.0263671875 785.02734375 89.6005859375 785.400390625 95.2001953125 785.400390625 c 0
 100.426757812 785.400390625 104.90625 785.02734375 108.639648438 784.280273438 c 128
 112.374023438 783.534179688 115.266601562 782.694335938 117.3203125 781.760742188 c 128
 119.374023438 780.827148438 120.7734375 779.61328125 121.520507812 778.12109375 c 128
 122.266601562 776.626953125 122.639648438 774.760742188 122.639648438 772.520507812 c 2
 122.639648438 35 l 2
 122.639648438 11.1064453125 125.06640625 -9.7998046875 129.920898438 -27.7197265625 c 128
 134.7734375 -45.6396484375 141.6796875 -60.4794921875 150.639648438 -72.2392578125 c 128
 159.600585938 -84 170.426757812 -92.8662109375 183.120117188 -98.83984375 c 128
 195.813476562 -104.8125 235.013671875 -107.799804688 300.720703125 -107.799804688 c 0
 316.7734375 -107.799804688 331.147460938 -104.90625 343.83984375 -99.1201171875 c 128
 356.534179688 -93.3330078125 367.360351562 -84.5595703125 376.3203125 -72.7998046875 c 128
 385.280273438 -61.0390625 392.09375 -46.5732421875 396.760742188 -29.3994140625 c 128
 401.426757812 -12.2265625 403.760742188 7.93359375 403.760742188 31.080078125 c 2
 403.760742188 772.520507812 l 2
 403.760742188 774.760742188 404.133789062 776.626953125 404.879882812 778.12109375 c 128
 405.626953125 779.61328125 407.120117188 780.827148438 409.360351562 781.760742188 c 128
 411.600585938 782.694335938 414.494140625 783.534179688 418.040039062 784.280273438 c 128
 421.586914062 785.02734375 426.16015625 785.400390625 431.760742188 785.400390625 c 0
 436.987304688 785.400390625 441.374023438 785.02734375 444.920898438 784.280273438 c 128
 448.466796875 783.534179688 451.266601562 782.694335938 453.3203125 781.760742188 c 128
 455.374023438 780.827148438 456.866210938 779.61328125 457.799804688 778.12109375 c 128
 458.733398438 776.626953125 459.200195312 774.760742188 459.200195312 772.520507812 c 2
 459.200195312 31.640625 l 2
EndSplineSet
Ligature2: "i dlig" uni093F uni0919
LCarets2: 1 0
EndChar

StartChar: ci
Encoding: 65541 -1 54
Width: 1000
Flags: HW
LayerCount: 2
Fore
SplineSet
724 758 m 4
 740 774 753.333007812 772.333007812 764 753 c 4
 770.666992188 739.666992188 773.333007812 721.333007812 772 698 c 4
 772 694 772 694 772 687 c 4
 771.333007812 675 770.833007812 666.666992188 770.5 662 c 132
 770.166992188 657.333007812 771 652 773 646 c 132
 775 640 776.666992188 636.5 778 635.5 c 132
 779.333007812 634.5 783.833007812 633.166992188 791.5 631.5 c 132
 799.166992188 629.833007812 806.166992188 629.166992188 812.5 629.5 c 132
 818.833007812 629.833007812 829.666992188 630.333007812 845 631 c 4
 851.666992188 631.666992188 856.666992188 632 860 632 c 6
 947 635 l 5
 947 610 l 6
 947 597.333007812 943.333007812 589.833007812 936 587.5 c 132
 928.666992188 585.166992188 903.666992188 583.333007812 861 582 c 6
 861 582 861 582 860 582 c 4
 818.666992188 580.666992188 793.5 578.666992188 784.5 576 c 132
 775.5 573.333007812 769.333007812 566.333007812 766 555 c 4
 764 545 762.5 537.166992188 761.5 531.5 c 132
 760.5 525.833007812 760.833007812 520.5 762.5 515.5 c 132
 764.166992188 510.5 766.666992188 506.833007812 770 504.5 c 132
 773.333007812 502.166992188 779.333007812 500.166992188 788 498.5 c 132
 796.666992188 496.833007812 806 495.833007812 816 495.5 c 132
 826 495.166992188 839.666992188 495 857 495 c 4
 901.666992188 495 927.833007812 494 935.5 492 c 132
 943.166992188 490 947 482.666992188 947 470 c 4
 947 458 943 450.666992188 935 448 c 132
 927 445.333007812 901 442.666992188 857 440 c 4
 812.333007812 437.333007812 786.166992188 434.666992188 778.5 432 c 132
 770.833007812 429.333007812 766 421.333007812 764 408 c 4
 764 407 764 407 764 404 c 4
 762 390.666992188 765 382.833007812 773 380.5 c 132
 781 378.166992188 809.333007812 376.666992188 858 376 c 4
 864 376 864 376 867 376 c 4
 904.333007812 375.333007812 927.166992188 373.833007812 935.5 371.5 c 132
 943.833007812 369.166992188 948.666992188 363 950 353 c 4
 952 344.333007812 951 338.166992188 947 334.5 c 132
 943 330.833007812 934.666992188 327.666992188 922 325 c 4
 900.666992188 320.333007812 875.333007812 320.333007812 846 325 c 4
 816 329.666992188 794.5 329.5 781.5 324.5 c 132
 768.5 319.5 762 309 762 293 c 4
 762 280.333007812 765.5 273 772.5 271 c 132
 779.5 269 803.666992188 268.666992188 845 270 c 4
 849 270 849 270 856 270 c 4
 904 271.333007812 932 271 940 269 c 132
 948 267 952 259.666992188 952 247 c 4
 952 246 952 246 952 246 c 6
 952 230 946.5 220.333007812 935.5 217 c 132
 924.5 213.666992188 896.666992188 213.666992188 852 217 c 4
 810.666992188 220.333007812 783.166992188 218.5 769.5 211.5 c 132
 755.833007812 204.5 750.666992188 190 754 168 c 4
 756 157.333007812 761.5 150.666992188 770.5 148 c 132
 779.5 145.333007812 806.666992188 142.666992188 852 140 c 4
 853 140 853 140 854 140 c 4
 900 137.333007812 927 134.833007812 935 132.5 c 132
 943 130.166992188 947 122.666992188 947 110 c 132
 947 97.3330078125 943.166992188 89.8330078125 935.5 87.5 c 132
 927.833007812 85.1669921875 901.333007812 83.3330078125 856 82 c 6
 855 82 l 5
 762 79 l 5
 762 45 l 6
 762 23 766.333007812 9 775 3 c 4
 783 -2.3330078125 813.666992188 -5 867 -5 c 4
 907 -5 930.333007812 -6 937 -8 c 132
 943.666992188 -10 947 -17.3330078125 947 -30 c 132
 947 -42.6669921875 943.333007812 -50.1669921875 936 -52.5 c 132
 928.666992188 -54.8330078125 903.666992188 -56.6669921875 861 -58 c 6
 861 -58 861 -58 860 -58 c 6
 772 -61 l 5
 772 -111 l 6
 772 -144.333007812 767 -162.666992188 757 -166 c 4
 744.333007812 -171.333007812 733.666992188 -168 725 -156 c 132
 716.333007812 -144 712 -126.666992188 712 -104 c 6
 712 -60 l 5
 628 -60 l 6
 584.666992188 -60 557.166992188 -57 545.5 -51 c 132
 533.833007812 -45 531.666992188 -32.6669921875 539 -14 c 4
 541 -8 547.333007812 -4 558 -2 c 132
 568.666992188 0 588 0.6669921875 616 0 c 4
 624 0 624 0 638 0 c 4
 681.333007812 -1.3330078125 706.5 -0.6669921875 713.5 2 c 132
 720.5 4.6669921875 723 14.3330078125 721 31 c 4
 721 33.6669921875 720.666992188 35.6669921875 720 37 c 6
 717 75 l 5
 630 78 l 6
 585.333007812 79.3330078125 557.333007812 83 546 89 c 132
 534.666992188 95 532.333007812 107.333007812 539 126 c 4
 541.666992188 133.333007812 548.166992188 137.666992188 558.5 139 c 132
 568.833007812 140.333007812 590 139.666992188 622 137 c 4
 663.333007812 133.666992188 690.333007812 134.5 703 139.5 c 132
 715.666992188 144.5 722 156.666992188 722 176 c 4
 722 193.333007812 715.166992188 205 701.5 211 c 132
 687.833007812 217 661 219.333007812 621 218 c 6
 547 215 l 5
 544 244 l 5
 540 272 l 5
 629 269 l 6
 672.333007812 267 698 266.833007812 706 268.5 c 132
 714 270.166992188 718.666992188 277 720 289 c 4
 722.666992188 306.333007812 717.666992188 317.333007812 705 322 c 132
 692.333007812 326.666992188 666 327.333007812 626 324 c 4
 594 320.666992188 573.5 319.833007812 564.5 321.5 c 132
 555.5 323.166992188 548.333007812 328.666992188 543 338 c 4
 539.666992188 346 538.166992188 352.5 538.5 357.5 c 132
 538.833007812 362.5 543 366.833007812 551 370.5 c 132
 559 374.166992188 569.666992188 376.833007812 583 378.5 c 132
 596.333007812 380.166992188 614.333007812 381.333007812 637 382 c 4
 676.333007812 383.333007812 699.5 385.333007812 706.5 388 c 132
 713.5 390.666992188 717 398 717 410 c 132
 717 422 713.333007812 429.333007812 706 432 c 132
 698.666992188 434.666992188 675 436.666992188 635 438 c 4
 567.666992188 440 534.333007812 450 535 468 c 4
 535 473.333007812 537.666992188 479.333007812 543 486 c 260
 548.333007812 492.666992188 557.166992188 496.666992188 569.5 498 c 132
 581.833007812 499.333007812 604 499.333007812 636 498 c 6
 717 495 l 5
 717 535 l 5
 717 575 l 5
 635 575 l 6
 593 575 564.5 577.833007812 549.5 583.5 c 132
 534.5 589.166992188 529.666992188 599.333007812 535 614 c 4
 537.666992188 620.666992188 545 625 557 627 c 132
 569 629 592.333007812 630 627 630 c 6
 712 630 l 5
 712 688 l 6
 712 726.666992188 716 750 724 758 c 4
246 760 m 0
 250.666666667 768 260 770.666666667 274 768 c 0
 282.666666667 766.666666667 288 762 290 754 c 0
 294 739.333333333 296.666666667 664.666666667 298 530 c 0
 299.333333333 374 303.333333333 293 310 287 c 0
 314 283 320.833333333 286.666666667 330.5 298 c 128
 340.166666667 309.333333333 350.5 325.833333333 361.5 347.5 c 128
 372.5 369.166666667 382 391.666666667 390 415 c 0
 403.333333333 460.333333333 412.666666667 519 418 591 c 0
 423.333333333 649.666666667 429.333333333 690.833333333 436 714.5 c 128
 442.666666667 738.166666667 452 750 464 750 c 256
 476 750 483.166666667 740.666666667 485.5 722 c 128
 487.833333333 703.333333333 486 666 480 610 c 0
 472 519.333333333 462.833333333 454.333333333 452.5 415 c 128
 442.166666667 375.666666667 426 341.666666667 404 313 c 0
 388 292.333333333 380 280 380 276 c 256
 380 272 396.666666667 270 430 270 c 0
 457.333333333 270 475.5 266 484.5 258 c 128
 493.5 250 492.666666667 239.333333333 482 226 c 0
 473.333333333 216.666666667 449.333333333 213.666666667 410 217 c 0
 370 220.333333333 350 220 350 216 c 0
 350 209.333333333 359.333333333 195 378 173 c 0
 390 157.666666667 397.833333333 143 401.5 129 c 128
 405.166666667 115 407.333333333 92 408 60 c 0
 410 18 406.666666667 -16 398 -42 c 128
 389.333333333 -68 372 -97 346 -129 c 0
 326 -152.333333333 306.833333333 -162.666666667 288.5 -160 c 128
 270.166666667 -157.333333333 246.666666667 -141.333333333 218 -112 c 0
 187.333333333 -80 168.166666667 -55 160.5 -37 c 128
 152.833333333 -19 148.666666667 11.6666666667 148 55 c 0
 148 87.6666666667 149.5 110.666666667 152.5 124 c 128
 155.5 137.333333333 162.666666667 152.666666667 174 170 c 0
 191.333333333 197.333333333 200 212.666666667 200 216 c 0
 200 220 178.666666667 220.333333333 136 217 c 0
 111.333333333 214.333333333 93.6666666667 213.666666667 83 215 c 128
 72.3333333333 216.333333333 64.6666666667 219.666666667 60 225 c 0
 55.3333333333 231 53 236 53 240 c 128
 53 244 55.5 249 60.5 255 c 128
 65.5 261 72.3333333333 264.666666667 81 266 c 128
 89.6666666667 267.333333333 103.333333333 266.666666667 122 264 c 0
 151.333333333 260 166.833333333 261.5 168.5 268.5 c 128
 170.166666667 275.5 160 295.333333333 138 328 c 0
 119.333333333 355.333333333 105.333333333 387.166666667 96 423.5 c 128
 86.6666666667 459.833333333 78 515 70 589 c 0
 62.6666666667 666.333333333 59.6666666667 712.5 61 727.5 c 128
 62.3333333333 742.5 70.6666666667 750 86 750 c 0
 100.666666667 750 110.166666667 742.5 114.5 727.5 c 128
 118.833333333 712.5 124 666.333333333 130 589 c 0
 134.666666667 528.333333333 142.333333333 479.333333333 153 442 c 128
 163.666666667 404.666666667 181.333333333 365.333333333 206 324 c 0
 226 288.666666667 240.666666667 276.333333333 250 287 c 0
 254 291 256 299 256 311 c 0
 256 313 253.333333333 390 248 542 c 0
 241.333333333 680 240.666666667 752.666666667 246 760 c 0
330 156 m 0
 317.333333333 181.333333333 303.833333333 197.833333333 289.5 205.5 c 128
 275.166666667 213.166666667 262.666666667 210.333333333 252 197 c 0
 229.333333333 169.666666667 214.166666667 133.833333333 206.5 89.5 c 128
 198.833333333 45.1666666667 201.333333333 7.66666666667 214 -23 c 0
 224 -47 237.833333333 -66.5 255.5 -81.5 c 128
 273.166666667 -96.5 287.333333333 -100.666666667 298 -94 c 0
 326 -76 343.5 -40.3333333333 350.5 13 c 128
 357.5 66.3333333333 350.666666667 114 330 156 c 0
EndSplineSet
LCarets2: 1 0
Ligature2: "i dlig" uni093F uni091B
Ligature2: "i dlig" uni093F uni091A
EndChar

